<svg xmlns="http://www.w3.org/2000/svg" xmlns:xlink="http://www.w3.org/1999/xlink" zoomAndPan="magnify" preserveAspectRatio="xMidYMid meet" version="1.0" viewBox="538.38 467.58 1106.38 290.12"><defs><clipPath id="45dcea0353"><path d="M 556 467.597656 L 1644.761719 467.597656 L 1644.761719 722 L 556 722 Z M 556 467.597656 " clip-rule="nonzero"/></clipPath><clipPath id="7f8375ca52"><path d="M 539.261719 467.597656 L 1644.761719 467.597656 L 1644.761719 756.347656 L 539.261719 756.347656 Z M 539.261719 467.597656 " clip-rule="nonzero"/></clipPath></defs><g clip-path="url(#45dcea0353)"><path fill="#000000" d="M 1517.011719 721.980469 L 683.414062 721.980469 C 613.152344 721.980469 556.191406 665.03125 556.191406 594.777344 C 556.191406 524.527344 613.152344 467.578125 683.414062 467.578125 L 1517.011719 467.578125 C 1587.277344 467.578125 1644.234375 524.527344 1644.234375 594.777344 C 1644.234375 665.03125 1587.277344 721.980469 1517.011719 721.980469 Z M 1517.011719 721.980469 " fill-opacity="1" fill-rule="nonzero"/></g><path fill="#ffffff" d="M 1503.699219 753.199219 L 670.105469 753.199219 C 599.839844 753.199219 542.878906 696.25 542.878906 626 C 542.878906 555.746094 599.839844 498.796875 670.105469 498.796875 L 1503.699219 498.796875 C 1573.964844 498.796875 1630.925781 555.746094 1630.925781 626 C 1630.925781 696.25 1573.964844 753.199219 1503.699219 753.199219 Z M 1503.699219 753.199219 " fill-opacity="1" fill-rule="nonzero"/><g clip-path="url(#7f8375ca52)"><path stroke-linecap="butt" transform="matrix(0.690091, 0, 0, 0.689964, 383.52992, -84.098216)" fill="none" stroke-linejoin="miter" d="M 1623.220267 1213.53767 L 415.272262 1213.53767 C 313.451415 1213.53767 230.910189 1130.998277 230.910189 1029.181386 C 230.910189 927.358834 313.451415 844.819441 415.272262 844.819441 L 1623.220267 844.819441 C 1725.041114 844.819441 1807.58234 927.358834 1807.58234 1029.181386 C 1807.58234 1130.998277 1725.041114 1213.53767 1623.220267 1213.53767 Z M 1623.220267 1213.53767 " stroke="#000000" stroke-width="9" stroke-opacity="1" stroke-miterlimit="10"/></g></svg>