<svg xmlns="http://www.w3.org/2000/svg" xmlns:xlink="http://www.w3.org/1999/xlink" zoomAndPan="magnify" preserveAspectRatio="xMidYMid meet" version="1.0" viewBox="559 471.99 1066 280.01"><defs><clipPath id="7e74314b42"><path d="M 559 471.992188 L 1625 471.992188 L 1625 751.742188 L 559 751.742188 Z M 559 471.992188 " clip-rule="nonzero"/></clipPath></defs><path fill="#ffffff" d="M 1524.507812 744.882812 L 665.210938 744.882812 C 644.90625 744.882812 627 731.578125 621.152344 712.140625 L 568.839844 538.394531 C 559.957031 508.851562 582.0625 479.109375 612.910156 479.109375 L 1571.210938 479.109375 C 1601.488281 479.109375 1623.511719 507.832031 1615.648438 537.066406 L 1568.945312 710.8125 C 1563.539062 730.914062 1545.320312 744.882812 1524.507812 744.882812 Z M 1524.507812 744.882812 " fill-opacity="1" fill-rule="nonzero"/><g clip-path="url(#7e74314b42)"><path fill="#000000" d="M 1524.507812 752 L 665.210938 752 C 641.585938 752 621.140625 736.808594 614.332031 714.191406 L 562.03125 540.445312 C 557.132812 524.1875 560.136719 507.050781 570.261719 493.433594 C 580.390625 479.808594 595.925781 471.992188 612.910156 471.992188 L 1571.210938 471.992188 C 1587.875 471.992188 1603.242188 479.570312 1613.371094 492.792969 C 1623.511719 506.019531 1626.84375 522.824219 1622.515625 538.917969 L 1575.8125 712.660156 C 1569.585938 735.824219 1548.488281 752 1524.507812 752 Z M 612.910156 486.222656 C 600.480469 486.222656 589.109375 491.941406 581.683594 501.914062 C 574.261719 511.890625 572.078125 524.4375 575.660156 536.332031 L 627.960938 710.078125 C 632.941406 726.632812 647.921875 737.757812 665.210938 737.757812 L 1524.507812 737.757812 C 1542.070312 737.757812 1557.511719 725.910156 1562.078125 708.949219 L 1608.78125 535.203125 C 1611.949219 523.429688 1609.507812 511.117188 1602.082031 501.441406 C 1594.65625 491.761719 1583.402344 486.210938 1571.210938 486.210938 L 612.910156 486.210938 Z M 612.910156 486.222656 " fill-opacity="1" fill-rule="nonzero"/></g></svg>