<svg xmlns="http://www.w3.org/2000/svg" xmlns:xlink="http://www.w3.org/1999/xlink" zoomAndPan="magnify" preserveAspectRatio="xMidYMid meet" version="1.0" viewBox="255.45 99.43 1795.04 976.42"><defs><g/><clipPath id="7648b00dbb"><path d="M 560.644531 210.765625 L 1425.722656 210.765625 L 1425.722656 1075.84375 L 560.644531 1075.84375 Z M 560.644531 210.765625 " clip-rule="nonzero"/></clipPath><clipPath id="96863c31e9"><path d="M 993.183594 210.765625 C 754.296875 210.765625 560.644531 404.421875 560.644531 643.304688 C 560.644531 882.191406 754.296875 1075.84375 993.183594 1075.84375 C 1232.066406 1075.84375 1425.722656 882.191406 1425.722656 643.304688 C 1425.722656 404.421875 1232.066406 210.765625 993.183594 210.765625 Z M 993.183594 210.765625 " clip-rule="nonzero"/></clipPath><clipPath id="d7e96a1f05"><path d="M 751 233 L 1406 233 L 1406 1055.472656 L 751 1055.472656 Z M 751 233 " clip-rule="nonzero"/></clipPath><clipPath id="ec0f45c222"><path d="M 731 99.667969 L 779 99.667969 L 779 148 L 731 148 Z M 731 99.667969 " clip-rule="nonzero"/></clipPath><clipPath id="25472d7ab9"><path d="M 780 99.667969 L 823 99.667969 L 823 148 L 780 148 Z M 780 99.667969 " clip-rule="nonzero"/></clipPath><clipPath id="0f39fc9bda"><path d="M 824 99.667969 L 874 99.667969 L 874 148 L 824 148 Z M 824 99.667969 " clip-rule="nonzero"/></clipPath><clipPath id="806f6432bf"><path d="M 875 99.667969 L 945 99.667969 L 945 148 L 875 148 Z M 875 99.667969 " clip-rule="nonzero"/></clipPath></defs><g clip-path="url(#7648b00dbb)"><g clip-path="url(#96863c31e9)"><path fill="#000000" d="M 560.644531 210.765625 L 1425.722656 210.765625 L 1425.722656 1075.84375 L 560.644531 1075.84375 Z M 560.644531 210.765625 " fill-opacity="1" fill-rule="nonzero"/></g></g><g clip-path="url(#d7e96a1f05)"><path fill="#ffffff" d="M 993.46875 233.425781 C 1001.558594 233.425781 1009.640625 233.664062 1017.71875 234.140625 C 1025.796875 234.617188 1033.851562 235.332031 1041.886719 236.28125 C 1049.921875 237.234375 1057.921875 238.417969 1065.882812 239.84375 C 1073.847656 241.265625 1081.765625 242.921875 1089.632812 244.808594 C 1097.5 246.699219 1105.304688 248.816406 1113.046875 251.164062 C 1120.789062 253.511719 1128.457031 256.089844 1136.046875 258.886719 C 1143.636719 261.6875 1151.140625 264.710938 1158.550781 267.953125 C 1165.964844 271.195312 1173.273438 274.652344 1180.484375 278.324219 C 1187.691406 282 1194.785156 285.878906 1201.765625 289.972656 C 1208.746094 294.0625 1215.601562 298.355469 1222.328125 302.851562 C 1229.054688 307.347656 1235.644531 312.035156 1242.09375 316.917969 C 1248.546875 321.800781 1254.847656 326.871094 1261 332.125 C 1267.152344 337.378906 1273.144531 342.808594 1278.976562 348.417969 C 1284.808594 354.027344 1290.472656 359.800781 1295.964844 365.742188 C 1301.457031 371.683594 1306.765625 377.78125 1311.898438 384.035156 C 1317.03125 390.289062 1321.976562 396.6875 1326.734375 403.234375 C 1331.488281 409.78125 1336.046875 416.460938 1340.410156 423.273438 C 1344.769531 430.085938 1348.929688 437.023438 1352.882812 444.082031 C 1356.835938 451.144531 1360.578125 458.3125 1364.109375 465.589844 C 1367.640625 472.871094 1370.953125 480.25 1374.050781 487.722656 C 1377.144531 495.199219 1380.019531 502.757812 1382.667969 510.402344 C 1385.320312 518.046875 1387.742188 525.761719 1389.941406 533.546875 C 1392.136719 541.335938 1394.101562 549.179688 1395.835938 557.082031 C 1397.570312 564.984375 1399.070312 572.933594 1400.335938 580.925781 C 1401.601562 588.914062 1402.628906 596.9375 1403.421875 604.988281 C 1404.214844 613.039062 1404.769531 621.109375 1405.089844 629.191406 C 1405.40625 637.277344 1405.484375 645.363281 1405.328125 653.453125 C 1405.167969 661.542969 1404.769531 669.621094 1404.136719 677.6875 C 1403.5 685.75 1402.628906 693.792969 1401.519531 701.804688 C 1400.414062 709.820312 1399.070312 717.796875 1397.492188 725.730469 C 1395.914062 733.664062 1394.101562 741.546875 1392.058594 749.375 C 1390.015625 757.203125 1387.746094 764.964844 1385.246094 772.660156 C 1382.742188 780.355469 1380.019531 787.96875 1377.070312 795.503906 C 1374.121094 803.039062 1370.953125 810.480469 1367.566406 817.828125 C 1364.179688 825.175781 1360.578125 832.417969 1356.765625 839.550781 C 1352.949219 846.6875 1348.929688 853.703125 1344.703125 860.601562 C 1340.476562 867.5 1336.046875 874.269531 1331.421875 880.90625 C 1326.796875 887.542969 1321.980469 894.039062 1316.96875 900.394531 C 1311.960938 906.746094 1306.769531 912.949219 1301.394531 918.996094 C 1296.019531 925.042969 1290.472656 930.929688 1284.75 936.648438 C 1279.03125 942.371094 1273.144531 947.917969 1267.097656 953.292969 C 1261.050781 958.667969 1254.851562 963.859375 1248.496094 968.867188 C 1242.140625 973.875 1235.648438 978.695312 1229.007812 983.320312 C 1222.371094 987.945312 1215.601562 992.375 1208.703125 996.601562 C 1201.804688 1000.828125 1194.789062 1004.847656 1187.652344 1008.664062 C 1180.519531 1012.476562 1173.277344 1016.078125 1165.929688 1019.464844 C 1158.582031 1022.851562 1151.140625 1026.019531 1143.605469 1028.96875 C 1136.074219 1031.917969 1128.457031 1034.640625 1120.761719 1037.140625 C 1113.070312 1039.640625 1105.308594 1041.914062 1097.476562 1043.957031 C 1089.648438 1046 1081.769531 1047.808594 1073.832031 1049.386719 C 1065.898438 1050.96875 1057.921875 1052.308594 1049.90625 1053.417969 C 1041.894531 1054.527344 1033.855469 1055.398438 1025.789062 1056.035156 C 1017.722656 1056.667969 1009.644531 1057.066406 1001.554688 1057.222656 C 993.464844 1057.382812 985.378906 1057.304688 977.292969 1056.984375 C 969.210938 1056.667969 961.140625 1056.113281 953.089844 1055.320312 C 945.039062 1054.527344 937.015625 1053.496094 929.027344 1052.230469 C 921.035156 1050.964844 913.089844 1049.464844 905.183594 1047.734375 C 897.28125 1046 889.4375 1044.035156 881.652344 1041.835938 C 873.863281 1039.640625 866.148438 1037.21875 858.503906 1034.566406 C 850.859375 1031.917969 843.300781 1029.042969 835.824219 1025.945312 C 828.351562 1022.851562 820.972656 1019.539062 813.695312 1016.007812 C 806.414062 1012.476562 799.246094 1008.734375 792.1875 1004.78125 C 785.125 1000.828125 778.191406 996.667969 771.375 992.308594 C 764.5625 987.945312 757.882812 983.386719 751.335938 978.628906 L 993.46875 645.367188 Z M 993.46875 233.425781 " fill-opacity="1" fill-rule="nonzero"/></g><path fill="#ffbd59" d="M 751.335938 978.628906 C 744.789062 973.875 738.390625 968.929688 732.136719 963.796875 C 725.882812 958.664062 719.785156 953.351562 713.84375 947.859375 C 707.902344 942.367188 702.128906 936.707031 696.519531 930.875 C 690.914062 925.042969 685.480469 919.050781 680.226562 912.898438 C 674.972656 906.746094 669.902344 900.445312 665.019531 893.992188 C 660.136719 887.542969 655.449219 880.953125 650.953125 874.226562 C 646.457031 867.5 642.164062 860.644531 638.074219 853.664062 C 633.984375 846.683594 630.101562 839.589844 626.425781 832.382812 C 622.753906 825.171875 619.296875 817.863281 616.054688 810.449219 C 612.8125 803.035156 609.789062 795.535156 606.992188 787.945312 C 604.191406 780.355469 601.617188 772.6875 599.265625 764.945312 C 596.917969 757.203125 594.800781 749.398438 592.910156 741.53125 C 591.023438 733.664062 589.367188 725.746094 587.945312 717.78125 C 586.523438 709.816406 585.335938 701.816406 584.382812 693.785156 C 583.433594 685.75 582.71875 677.691406 582.242188 669.617188 C 581.765625 661.539062 581.527344 653.457031 581.527344 645.367188 C 581.527344 637.273438 581.765625 629.191406 582.242188 621.113281 C 582.71875 613.039062 583.433594 604.980469 584.382812 596.945312 C 585.335938 588.914062 586.523438 580.914062 587.945312 572.949219 C 589.367188 564.984375 591.023438 557.066406 592.910156 549.199219 C 594.800781 541.332031 596.917969 533.527344 599.265625 525.785156 C 601.617188 518.042969 604.191406 510.378906 606.992188 502.785156 C 609.789062 495.195312 612.8125 487.695312 616.054688 480.28125 C 619.296875 472.867188 622.753906 465.558594 626.425781 458.347656 C 630.101562 451.140625 633.984375 444.046875 638.074219 437.066406 C 642.164062 430.085938 646.457031 423.230469 650.953125 416.503906 C 655.449219 409.777344 660.136719 403.1875 665.019531 396.738281 C 669.902344 390.285156 674.972656 383.984375 680.226562 377.832031 C 685.480469 371.679688 690.914062 365.6875 696.519531 359.855469 C 702.128906 354.023438 707.902344 348.363281 713.84375 342.871094 C 719.785156 337.378906 725.882812 332.066406 732.136719 326.933594 C 738.390625 321.800781 744.789062 316.855469 751.335938 312.101562 L 993.46875 645.367188 Z M 751.335938 978.628906 " fill-opacity="1" fill-rule="nonzero"/><path fill="#000000" d="M 751.335938 312.101562 C 760.0625 305.757812 769.027344 299.769531 778.226562 294.132812 C 787.425781 288.496094 796.828125 283.226562 806.441406 278.332031 C 816.054688 273.433594 825.84375 268.917969 835.8125 264.789062 C 845.777344 260.660156 855.890625 256.929688 866.152344 253.59375 C 876.410156 250.261719 886.789062 247.332031 897.277344 244.816406 C 907.765625 242.296875 918.339844 240.191406 928.996094 238.503906 C 939.652344 236.816406 950.355469 235.546875 961.109375 234.699219 C 971.867188 233.851562 982.636719 233.429688 993.425781 233.425781 L 993.46875 645.367188 Z M 751.335938 312.101562 " fill-opacity="1" fill-rule="nonzero"/><g fill="#ffffff" fill-opacity="1"><g transform="translate(1375.558017, 858.580916)"><g><path d="M 1.25 -10.234375 L 4.375 -10.234375 L 4.375 -38.3125 L 1.25 -38.3125 L 1.25 -48.546875 L 28.640625 -48.546875 C 34.003906 -48.546875 38.097656 -47.390625 40.921875 -45.078125 C 43.753906 -42.765625 45.171875 -39.03125 45.171875 -33.875 C 45.171875 -28.71875 43.753906 -24.984375 40.921875 -22.671875 C 38.097656 -20.367188 34.003906 -19.21875 28.640625 -19.21875 L 21.84375 -19.21875 L 21.84375 -10.234375 L 27.828125 -10.234375 L 27.828125 0 L 1.25 0 Z M 23.953125 -28.078125 C 26.367188 -28.078125 27.578125 -29.40625 27.578125 -32.0625 L 27.578125 -34.3125 C 27.578125 -35.6875 27.273438 -36.695312 26.671875 -37.34375 C 26.066406 -37.988281 25.160156 -38.3125 23.953125 -38.3125 L 21.84375 -38.3125 L 21.84375 -28.078125 Z M 23.953125 -28.078125 "/></g></g></g><g fill="#ffffff" fill-opacity="1"><g transform="translate(1421.600525, 858.580916)"><g><path d="M 24.578125 0.875 C 18.046875 0.875 13.003906 -0.554688 9.453125 -3.421875 C 5.898438 -6.296875 4.125 -10.957031 4.125 -17.40625 L 4.125 -38.3125 L 1 -38.3125 L 1 -48.546875 L 24.078125 -48.546875 L 24.078125 -38.3125 L 21.59375 -38.3125 L 21.59375 -14.21875 C 21.59375 -12.851562 21.890625 -11.847656 22.484375 -11.203125 C 23.085938 -10.554688 23.992188 -10.234375 25.203125 -10.234375 C 26.410156 -10.234375 27.316406 -10.554688 27.921875 -11.203125 C 28.523438 -11.847656 28.828125 -12.851562 28.828125 -14.21875 L 28.828125 -38.3125 L 26.328125 -38.3125 L 26.328125 -48.546875 L 47.734375 -48.546875 L 47.734375 -38.3125 L 44.609375 -38.3125 L 44.609375 -17.40625 C 44.609375 -10.957031 42.878906 -6.296875 39.421875 -3.421875 C 35.972656 -0.554688 31.023438 0.875 24.578125 0.875 Z M 24.578125 0.875 "/></g></g></g><g fill="#ffffff" fill-opacity="1"><g transform="translate(1470.325724, 858.580916)"><g><path d="M 1.25 -10.234375 L 4.375 -10.234375 L 4.375 -38.3125 L 1.25 -38.3125 L 1.25 -48.546875 L 29.890625 -48.546875 C 35.085938 -48.546875 39.140625 -47.484375 42.046875 -45.359375 C 44.960938 -43.234375 46.421875 -40.195312 46.421875 -36.25 C 46.421875 -33.789062 45.835938 -31.71875 44.671875 -30.03125 C 43.503906 -28.351562 42.140625 -27.085938 40.578125 -26.234375 C 39.023438 -25.378906 37.519531 -24.804688 36.0625 -24.515625 L 36.0625 -23.890625 C 39.007812 -23.597656 41.671875 -22.660156 44.046875 -21.078125 C 46.421875 -19.503906 47.609375 -16.679688 47.609375 -12.609375 C 47.609375 -8.234375 45.960938 -5.035156 42.671875 -3.015625 C 39.390625 -1.003906 35.128906 0 29.890625 0 L 1.25 0 Z M 25.203125 -28.078125 C 26.410156 -28.078125 27.316406 -28.398438 27.921875 -29.046875 C 28.523438 -29.691406 28.828125 -30.695312 28.828125 -32.0625 L 28.828125 -34.3125 C 28.828125 -35.6875 28.523438 -36.695312 27.921875 -37.34375 C 27.316406 -37.988281 26.410156 -38.3125 25.203125 -38.3125 L 21.84375 -38.3125 L 21.84375 -28.078125 Z M 25.640625 -10.234375 C 26.847656 -10.234375 27.753906 -10.554688 28.359375 -11.203125 C 28.960938 -11.847656 29.265625 -12.851562 29.265625 -14.21875 L 29.265625 -16.96875 C 29.265625 -18.34375 28.960938 -19.351562 28.359375 -20 C 27.753906 -20.644531 26.847656 -20.96875 25.640625 -20.96875 L 21.84375 -20.96875 L 21.84375 -10.234375 Z M 25.640625 -10.234375 "/></g></g></g><g fill="#ffffff" fill-opacity="1"><g transform="translate(1518.676597, 858.580916)"><g><path d="M 1.25 0 L 1.25 -10.234375 L 4.375 -10.234375 L 4.375 -38.3125 L 1.25 -38.3125 L 1.25 -48.546875 L 27.578125 -48.546875 L 27.578125 -38.3125 L 21.84375 -38.3125 L 21.84375 -10.234375 L 27.453125 -10.234375 L 27.453125 -15.96875 L 39.875 -15.96875 L 39.875 0 Z M 1.25 0 "/></g></g></g><g fill="#ffffff" fill-opacity="1"><g transform="translate(1559.416104, 858.580916)"><g><path d="M 1.25 0 L 1.25 -10.234375 L 4.375 -10.234375 L 4.375 -38.3125 L 1.25 -38.3125 L 1.25 -48.546875 L 24.953125 -48.546875 L 24.953125 -38.3125 L 21.84375 -38.3125 L 21.84375 -10.234375 L 24.953125 -10.234375 L 24.953125 0 Z M 1.25 0 "/></g></g></g><g fill="#ffffff" fill-opacity="1"><g transform="translate(1585.61916, 858.580916)"><g><path d="M 25.453125 0.875 C 17.585938 0.875 11.523438 -1.117188 7.265625 -5.109375 C 3.003906 -9.109375 0.875 -15.492188 0.875 -24.265625 C 0.875 -41.023438 9.023438 -49.40625 25.328125 -49.40625 C 29.273438 -49.40625 32.941406 -48.925781 36.328125 -47.96875 C 39.722656 -47.019531 42.253906 -45.960938 43.921875 -44.796875 L 43.921875 -29.203125 L 28.953125 -29.203125 L 28.953125 -33.6875 C 28.953125 -35.269531 28.597656 -36.4375 27.890625 -37.1875 C 27.179688 -37.9375 26.117188 -38.3125 24.703125 -38.3125 C 23.285156 -38.3125 22.222656 -37.9375 21.515625 -37.1875 C 20.816406 -36.4375 20.46875 -35.269531 20.46875 -33.6875 L 20.46875 -14.84375 C 20.46875 -13.269531 20.816406 -12.109375 21.515625 -11.359375 C 22.222656 -10.609375 23.285156 -10.234375 24.703125 -10.234375 C 26.117188 -10.234375 27.179688 -10.609375 27.890625 -11.359375 C 28.597656 -12.109375 28.953125 -13.269531 28.953125 -14.84375 L 28.953125 -19.90625 L 43.921875 -19.90625 L 43.921875 -3.75 C 42.210938 -2.582031 39.679688 -1.519531 36.328125 -0.5625 C 32.984375 0.394531 29.359375 0.875 25.453125 0.875 Z M 25.453125 0.875 "/></g></g></g><g fill="#ffffff" fill-opacity="1"><g transform="translate(1630.663446, 858.580916)"><g/></g></g><g fill="#ffffff" fill-opacity="1"><g transform="translate(1649.379906, 858.580916)"><g><path d="M 1.25 0 L 1.25 -10.234375 L 4.375 -10.234375 L 4.375 -38.3125 L 1.25 -38.3125 L 1.25 -48.546875 L 38.5625 -48.546875 L 38.5625 -32.375 L 27.515625 -32.375 L 27.515625 -38.3125 L 21.84375 -38.3125 L 21.84375 -27.953125 L 31.25 -27.953125 L 31.25 -20.84375 L 21.84375 -20.84375 L 21.84375 -10.234375 L 30.015625 -10.234375 L 30.015625 0 Z M 1.25 0 "/></g></g></g><g fill="#ffffff" fill-opacity="1"><g transform="translate(1688.809249, 858.580916)"><g><path d="M 1.25 -10.234375 L 4.375 -10.234375 L 4.375 -38.3125 L 1.25 -38.3125 L 1.25 -48.546875 L 29.890625 -48.546875 C 35.253906 -48.546875 39.347656 -47.441406 42.171875 -45.234375 C 45.003906 -43.023438 46.421875 -39.445312 46.421875 -34.5 C 46.421875 -31.71875 45.859375 -29.304688 44.734375 -27.265625 C 43.609375 -25.222656 42.007812 -23.804688 39.9375 -23.015625 L 40 -22.390625 C 43.988281 -21.773438 45.984375 -19.320312 45.984375 -15.03125 L 45.984375 -10.234375 L 48.921875 -10.234375 L 48.921875 0 L 29.140625 0 L 29.140625 -14.65625 C 29.140625 -16.28125 28.898438 -17.507812 28.421875 -18.34375 C 27.941406 -19.175781 27.191406 -19.738281 26.171875 -20.03125 C 25.148438 -20.320312 23.707031 -20.46875 21.84375 -20.46875 L 21.84375 -10.234375 L 25.953125 -10.234375 L 25.953125 0 L 1.25 0 Z M 25.203125 -28.078125 C 26.410156 -28.078125 27.316406 -28.398438 27.921875 -29.046875 C 28.523438 -29.691406 28.828125 -30.695312 28.828125 -32.0625 L 28.828125 -34.3125 C 28.828125 -35.6875 28.523438 -36.695312 27.921875 -37.34375 C 27.316406 -37.988281 26.410156 -38.3125 25.203125 -38.3125 L 21.84375 -38.3125 L 21.84375 -28.078125 Z M 25.203125 -28.078125 "/></g></g></g><g fill="#ffffff" fill-opacity="1"><g transform="translate(1738.719823, 858.580916)"><g><path d="M 1.25 0 L 1.25 -10.234375 L 4.375 -10.234375 L 4.375 -38.3125 L 1.25 -38.3125 L 1.25 -48.546875 L 43.359375 -48.546875 L 43.359375 -29.703125 L 29.390625 -29.703125 L 29.390625 -38.3125 L 21.84375 -38.3125 L 21.84375 -28.453125 L 27.328125 -28.453125 L 27.328125 -21.34375 L 21.84375 -21.34375 L 21.84375 -10.234375 L 29.390625 -10.234375 L 29.390625 -20.09375 L 43.359375 -20.09375 L 43.359375 0 Z M 1.25 0 "/></g></g></g><g fill="#ffffff" fill-opacity="1"><g transform="translate(1783.202608, 858.580916)"><g><path d="M 1.25 0 L 1.25 -10.234375 L 4.375 -10.234375 L 4.375 -38.3125 L 1.25 -38.3125 L 1.25 -48.546875 L 43.359375 -48.546875 L 43.359375 -29.703125 L 29.390625 -29.703125 L 29.390625 -38.3125 L 21.84375 -38.3125 L 21.84375 -28.453125 L 27.328125 -28.453125 L 27.328125 -21.34375 L 21.84375 -21.34375 L 21.84375 -10.234375 L 29.390625 -10.234375 L 29.390625 -20.09375 L 43.359375 -20.09375 L 43.359375 0 Z M 1.25 0 "/></g></g></g><g fill="#ffffff" fill-opacity="1"><g transform="translate(1827.685393, 858.580916)"><g/></g></g><g fill="#ffffff" fill-opacity="1"><g transform="translate(1846.401853, 858.580916)"><g><path d="M 70.0625 -38.3125 L 66.9375 -38.3125 L 66.9375 -10.234375 L 70.0625 -10.234375 L 70.0625 0 L 46.484375 0 L 46.484375 -10.234375 L 49.46875 -10.234375 L 49.46875 -32.0625 L 38.875 0 L 29.640625 0 L 18.71875 -31.75 L 18.71875 -10.234375 L 21.71875 -10.234375 L 21.71875 0 L 1.25 0 L 1.25 -10.234375 L 4.375 -10.234375 L 4.375 -38.3125 L 1.25 -38.3125 L 1.25 -48.546875 L 29.828125 -48.546875 L 36.3125 -29.078125 L 42.546875 -48.546875 L 70.0625 -48.546875 Z M 70.0625 -38.3125 "/></g></g></g><g fill="#ffffff" fill-opacity="1"><g transform="translate(1917.7116, 858.580916)"><g><path d="M 1.25 0 L 1.25 -10.234375 L 4.375 -10.234375 L 4.375 -38.3125 L 1.25 -38.3125 L 1.25 -48.546875 L 24.953125 -48.546875 L 24.953125 -38.3125 L 21.84375 -38.3125 L 21.84375 -10.234375 L 24.953125 -10.234375 L 24.953125 0 Z M 1.25 0 "/></g></g></g><g fill="#ffffff" fill-opacity="1"><g transform="translate(1943.914636, 858.580916)"><g><path d="M 37.1875 -48.546875 L 57.65625 -48.546875 L 57.65625 -38.3125 L 54.53125 -38.3125 L 54.53125 0 L 37 0 L 18.71875 -28.140625 L 18.71875 -10.234375 L 21.71875 -10.234375 L 21.71875 0 L 1.25 0 L 1.25 -10.234375 L 4.375 -10.234375 L 4.375 -38.3125 L 1.25 -38.3125 L 1.25 -48.546875 L 23.765625 -48.546875 L 40.171875 -23.515625 L 40.171875 -38.3125 L 37.1875 -38.3125 Z M 37.1875 -48.546875 "/></g></g></g><g fill="#ffffff" fill-opacity="1"><g transform="translate(2002.684325, 858.580916)"><g><path d="M 47.796875 -33.4375 L 37.0625 -33.4375 L 37.0625 -38.3125 L 33.0625 -38.3125 L 33.0625 -10.234375 L 37.4375 -10.234375 L 37.4375 0 L 11.234375 0 L 11.234375 -10.234375 L 15.59375 -10.234375 L 15.59375 -38.3125 L 11.609375 -38.3125 L 11.609375 -33.4375 L 0.875 -33.4375 L 0.875 -48.546875 L 47.796875 -48.546875 Z M 47.796875 -33.4375 "/></g></g></g><g fill="#ffffff" fill-opacity="1"><g transform="translate(1641.391256, 934.70455)"><g><path d="M 28.015625 -30.640625 C 32.628906 -30.640625 36.234375 -29.304688 38.828125 -26.640625 C 41.429688 -23.972656 42.734375 -20.269531 42.734375 -15.53125 C 42.734375 -10.25 40.992188 -6.191406 37.515625 -3.359375 C 34.046875 -0.535156 29.148438 0.875 22.828125 0.875 C 15.515625 0.875 10.066406 -1.109375 6.484375 -5.078125 C 2.910156 -9.054688 1.125 -15.140625 1.125 -23.328125 C 1.125 -32.316406 3.234375 -38.910156 7.453125 -43.109375 C 11.671875 -47.304688 17.484375 -49.40625 24.890625 -49.40625 C 27.929688 -49.40625 30.757812 -49.144531 33.375 -48.625 C 36 -48.113281 38.101562 -47.441406 39.6875 -46.609375 L 39.6875 -34 C 38.101562 -34.707031 36.289062 -35.28125 34.25 -35.71875 C 32.207031 -36.15625 30.046875 -36.375 27.765625 -36.375 C 21.816406 -36.375 18.84375 -34.171875 18.84375 -29.765625 L 18.84375 -29.015625 C 20.132812 -29.472656 21.585938 -29.859375 23.203125 -30.171875 C 24.828125 -30.484375 26.429688 -30.640625 28.015625 -30.640625 Z M 23.078125 -10.234375 C 24.492188 -10.234375 25.554688 -10.660156 26.265625 -11.515625 C 26.972656 -12.367188 27.328125 -13.707031 27.328125 -15.53125 C 27.328125 -17.195312 26.960938 -18.5 26.234375 -19.4375 C 25.503906 -20.375 24.390625 -20.84375 22.890625 -20.84375 C 21.484375 -20.84375 20.132812 -20.570312 18.84375 -20.03125 L 18.84375 -15.03125 C 18.84375 -13.375 19.195312 -12.160156 19.90625 -11.390625 C 20.613281 -10.617188 21.671875 -10.234375 23.078125 -10.234375 Z M 23.078125 -10.234375 "/></g></g></g><g fill="#ffffff" fill-opacity="1"><g transform="translate(1684.626292, 934.70455)"><g><path d="M 22.828125 0.875 C 15.804688 0.875 10.390625 -1.117188 6.578125 -5.109375 C 2.773438 -9.109375 0.875 -15.492188 0.875 -24.265625 C 0.875 -33.046875 2.773438 -39.429688 6.578125 -43.421875 C 10.390625 -47.410156 15.804688 -49.40625 22.828125 -49.40625 C 29.859375 -49.40625 35.273438 -47.410156 39.078125 -43.421875 C 42.890625 -39.429688 44.796875 -33.046875 44.796875 -24.265625 C 44.796875 -16.160156 43.035156 -9.941406 39.515625 -5.609375 C 36.003906 -1.285156 30.441406 0.875 22.828125 0.875 Z M 22.828125 -10.234375 C 25.660156 -10.234375 27.078125 -11.769531 27.078125 -14.84375 L 27.078125 -33.6875 C 27.078125 -36.769531 25.660156 -38.3125 22.828125 -38.3125 C 20.003906 -38.3125 18.59375 -36.769531 18.59375 -33.6875 L 18.59375 -14.84375 C 18.59375 -11.769531 20.003906 -10.234375 22.828125 -10.234375 Z M 22.828125 -10.234375 "/></g></g></g><g fill="#ffffff" fill-opacity="1"><g transform="translate(1730.294472, 934.70455)"><g><path d="M 12.046875 -24.078125 C 5.265625 -24.078125 1.875 -28.238281 1.875 -36.5625 C 1.875 -40.96875 2.742188 -44.164062 4.484375 -46.15625 C 6.234375 -48.15625 8.753906 -49.15625 12.046875 -49.15625 C 18.867188 -49.15625 22.28125 -44.957031 22.28125 -36.5625 C 22.28125 -32.53125 21.46875 -29.441406 19.84375 -27.296875 C 18.21875 -25.148438 15.617188 -24.078125 12.046875 -24.078125 Z M 12.046875 -29.515625 C 13.253906 -29.515625 13.859375 -30.28125 13.859375 -31.8125 L 13.859375 -41.484375 C 13.859375 -42.984375 13.253906 -43.734375 12.046875 -43.734375 C 10.878906 -43.734375 10.296875 -42.984375 10.296875 -41.484375 L 10.296875 -31.8125 C 10.296875 -30.28125 10.878906 -29.515625 12.046875 -29.515625 Z M 9.921875 0 L 9.921875 -2 L 38.9375 -48.546875 L 45.296875 -48.546875 L 45.296875 -46.546875 L 16.34375 0 Z M 43.109375 0.625 C 36.328125 0.625 32.9375 -3.535156 32.9375 -11.859375 C 32.9375 -16.265625 33.804688 -19.460938 35.546875 -21.453125 C 37.296875 -23.453125 39.816406 -24.453125 43.109375 -24.453125 C 49.929688 -24.453125 53.34375 -20.253906 53.34375 -11.859375 C 53.34375 -7.816406 52.53125 -4.722656 50.90625 -2.578125 C 49.28125 -0.441406 46.679688 0.625 43.109375 0.625 Z M 43.109375 -4.796875 C 44.316406 -4.796875 44.921875 -5.566406 44.921875 -7.109375 L 44.921875 -16.78125 C 44.921875 -18.28125 44.316406 -19.03125 43.109375 -19.03125 C 41.941406 -19.03125 41.359375 -18.28125 41.359375 -16.78125 L 41.359375 -7.109375 C 41.359375 -5.566406 41.941406 -4.796875 43.109375 -4.796875 Z M 43.109375 -4.796875 "/></g></g></g><g fill="#ffffff" fill-opacity="1"><g transform="translate(254.695873, 624.656917)"><g><path d="M 47.046875 -10.234375 L 49.53125 -10.234375 L 49.53125 0 L 25.078125 0 L 25.078125 -10.234375 L 28.828125 -10.234375 L 27.828125 -15.21875 L 19.34375 -15.21875 L 18.34375 -10.234375 L 22.09375 -10.234375 L 22.09375 0 L 0.75 0 L 0.75 -10.234375 L 3.25 -10.234375 L 13.78125 -48.546875 L 36.5 -48.546875 Z M 20.71875 -21.84375 L 26.453125 -21.84375 L 23.890625 -34.25 L 23.265625 -34.25 Z M 20.71875 -21.84375 "/></g></g></g><g fill="#ffffff" fill-opacity="1"><g transform="translate(304.980774, 624.656917)"><g><path d="M 1.25 0 L 1.25 -10.234375 L 4.375 -10.234375 L 4.375 -38.3125 L 1.25 -38.3125 L 1.25 -48.546875 L 24.953125 -48.546875 L 24.953125 -38.3125 L 21.84375 -38.3125 L 21.84375 -10.234375 L 24.953125 -10.234375 L 24.953125 0 Z M 1.25 0 "/></g></g></g><g fill="#ffffff" fill-opacity="1"><g transform="translate(331.18383, 624.656917)"><g><path d="M 1.25 -10.234375 L 4.375 -10.234375 L 4.375 -38.3125 L 1.25 -38.3125 L 1.25 -48.546875 L 29.890625 -48.546875 C 35.253906 -48.546875 39.347656 -47.441406 42.171875 -45.234375 C 45.003906 -43.023438 46.421875 -39.445312 46.421875 -34.5 C 46.421875 -31.71875 45.859375 -29.304688 44.734375 -27.265625 C 43.609375 -25.222656 42.007812 -23.804688 39.9375 -23.015625 L 40 -22.390625 C 43.988281 -21.773438 45.984375 -19.320312 45.984375 -15.03125 L 45.984375 -10.234375 L 48.921875 -10.234375 L 48.921875 0 L 29.140625 0 L 29.140625 -14.65625 C 29.140625 -16.28125 28.898438 -17.507812 28.421875 -18.34375 C 27.941406 -19.175781 27.191406 -19.738281 26.171875 -20.03125 C 25.148438 -20.320312 23.707031 -20.46875 21.84375 -20.46875 L 21.84375 -10.234375 L 25.953125 -10.234375 L 25.953125 0 L 1.25 0 Z M 25.203125 -28.078125 C 26.410156 -28.078125 27.316406 -28.398438 27.921875 -29.046875 C 28.523438 -29.691406 28.828125 -30.695312 28.828125 -32.0625 L 28.828125 -34.3125 C 28.828125 -35.6875 28.523438 -36.695312 27.921875 -37.34375 C 27.316406 -37.988281 26.410156 -38.3125 25.203125 -38.3125 L 21.84375 -38.3125 L 21.84375 -28.078125 Z M 25.203125 -28.078125 "/></g></g></g><g fill="#ffffff" fill-opacity="1"><g transform="translate(381.094404, 624.656917)"><g><path d="M 1.25 -10.234375 L 4.375 -10.234375 L 4.375 -38.25 L 1.25 -38.25 L 1.25 -48.546875 L 26.578125 -48.546875 C 33.523438 -48.546875 39.046875 -46.640625 43.140625 -42.828125 C 47.234375 -39.023438 49.28125 -32.835938 49.28125 -24.265625 C 49.28125 -15.703125 47.234375 -9.515625 43.140625 -5.703125 C 39.046875 -1.898438 33.523438 0 26.578125 0 L 1.25 0 Z M 25.453125 -10.234375 C 26.867188 -10.234375 27.929688 -10.609375 28.640625 -11.359375 C 29.347656 -12.109375 29.703125 -13.269531 29.703125 -14.84375 L 29.703125 -33.6875 C 29.703125 -36.769531 28.285156 -38.3125 25.453125 -38.3125 L 21.84375 -38.3125 L 21.84375 -10.234375 Z M 25.453125 -10.234375 "/></g></g></g><g fill="#ffffff" fill-opacity="1"><g transform="translate(431.254536, 624.656917)"><g><path d="M 1.25 -10.234375 L 4.375 -10.234375 L 4.375 -38.3125 L 1.25 -38.3125 L 1.25 -48.546875 L 29.890625 -48.546875 C 35.253906 -48.546875 39.347656 -47.441406 42.171875 -45.234375 C 45.003906 -43.023438 46.421875 -39.445312 46.421875 -34.5 C 46.421875 -31.71875 45.859375 -29.304688 44.734375 -27.265625 C 43.609375 -25.222656 42.007812 -23.804688 39.9375 -23.015625 L 40 -22.390625 C 43.988281 -21.773438 45.984375 -19.320312 45.984375 -15.03125 L 45.984375 -10.234375 L 48.921875 -10.234375 L 48.921875 0 L 29.140625 0 L 29.140625 -14.65625 C 29.140625 -16.28125 28.898438 -17.507812 28.421875 -18.34375 C 27.941406 -19.175781 27.191406 -19.738281 26.171875 -20.03125 C 25.148438 -20.320312 23.707031 -20.46875 21.84375 -20.46875 L 21.84375 -10.234375 L 25.953125 -10.234375 L 25.953125 0 L 1.25 0 Z M 25.203125 -28.078125 C 26.410156 -28.078125 27.316406 -28.398438 27.921875 -29.046875 C 28.523438 -29.691406 28.828125 -30.695312 28.828125 -32.0625 L 28.828125 -34.3125 C 28.828125 -35.6875 28.523438 -36.695312 27.921875 -37.34375 C 27.316406 -37.988281 26.410156 -38.3125 25.203125 -38.3125 L 21.84375 -38.3125 L 21.84375 -28.078125 Z M 25.203125 -28.078125 "/></g></g></g><g fill="#ffffff" fill-opacity="1"><g transform="translate(481.16511, 624.656917)"><g><path d="M 24.703125 0.875 C 17.097656 0.875 11.222656 -1.117188 7.078125 -5.109375 C 2.941406 -9.109375 0.875 -15.492188 0.875 -24.265625 C 0.875 -33.046875 2.941406 -39.429688 7.078125 -43.421875 C 11.222656 -47.410156 17.097656 -49.40625 24.703125 -49.40625 C 32.316406 -49.40625 38.191406 -47.410156 42.328125 -43.421875 C 46.472656 -39.429688 48.546875 -33.046875 48.546875 -24.265625 C 48.546875 -15.492188 46.472656 -9.109375 42.328125 -5.109375 C 38.191406 -1.117188 32.316406 0.875 24.703125 0.875 Z M 24.703125 -10.234375 C 26.117188 -10.234375 27.179688 -10.609375 27.890625 -11.359375 C 28.597656 -12.109375 28.953125 -13.269531 28.953125 -14.84375 L 28.953125 -33.6875 C 28.953125 -35.269531 28.597656 -36.4375 27.890625 -37.1875 C 27.179688 -37.9375 26.117188 -38.3125 24.703125 -38.3125 C 23.285156 -38.3125 22.222656 -37.9375 21.515625 -37.1875 C 20.816406 -36.4375 20.46875 -35.269531 20.46875 -33.6875 L 20.46875 -14.84375 C 20.46875 -13.226562 20.816406 -12.054688 21.515625 -11.328125 C 22.222656 -10.597656 23.285156 -10.234375 24.703125 -10.234375 Z M 24.703125 -10.234375 "/></g></g></g><g fill="#ffffff" fill-opacity="1"><g transform="translate(530.576589, 624.656917)"><g><path d="M 1.25 -10.234375 L 4.375 -10.234375 L 4.375 -38.3125 L 1.25 -38.3125 L 1.25 -48.546875 L 28.640625 -48.546875 C 34.003906 -48.546875 38.097656 -47.390625 40.921875 -45.078125 C 43.753906 -42.765625 45.171875 -39.03125 45.171875 -33.875 C 45.171875 -28.71875 43.753906 -24.984375 40.921875 -22.671875 C 38.097656 -20.367188 34.003906 -19.21875 28.640625 -19.21875 L 21.84375 -19.21875 L 21.84375 -10.234375 L 27.828125 -10.234375 L 27.828125 0 L 1.25 0 Z M 23.953125 -28.078125 C 26.367188 -28.078125 27.578125 -29.40625 27.578125 -32.0625 L 27.578125 -34.3125 C 27.578125 -35.6875 27.273438 -36.695312 26.671875 -37.34375 C 26.066406 -37.988281 25.160156 -38.3125 23.953125 -38.3125 L 21.84375 -38.3125 L 21.84375 -28.078125 Z M 23.953125 -28.078125 "/></g></g></g><g fill="#ffffff" fill-opacity="1"><g transform="translate(345.785507, 700.770035)"><g><path d="M 30.328125 -24.765625 C 31.609375 -24.429688 32.84375 -23.753906 34.03125 -22.734375 C 35.21875 -21.722656 36.195312 -20.445312 36.96875 -18.90625 C 37.738281 -17.363281 38.125 -15.65625 38.125 -13.78125 C 38.125 -9.207031 36.488281 -5.617188 33.21875 -3.015625 C 29.957031 -0.421875 25.125 0.875 18.71875 0.875 C 15.675781 0.875 12.632812 0.53125 9.59375 -0.15625 C 6.5625 -0.84375 3.863281 -1.6875 1.5 -2.6875 L 1.5 -15.96875 C 4.070312 -14.84375 6.738281 -13.925781 9.5 -13.21875 C 12.269531 -12.519531 14.90625 -12.171875 17.40625 -12.171875 C 19.15625 -12.171875 20.429688 -12.4375 21.234375 -12.96875 C 22.046875 -13.507812 22.453125 -14.40625 22.453125 -15.65625 C 22.453125 -18.070312 21 -19.28125 18.09375 -19.28125 L 13.59375 -19.28125 L 13.59375 -29.515625 L 17.09375 -29.515625 C 19.84375 -29.515625 21.21875 -30.675781 21.21875 -33 C 21.21875 -35.25 19.84375 -36.375 17.09375 -36.375 C 15.09375 -36.375 13.007812 -35.90625 10.84375 -34.96875 C 8.6875 -34.03125 6.585938 -32.8125 4.546875 -31.3125 L 0.875 -44.609375 C 3.40625 -45.941406 6.289062 -47.070312 9.53125 -48 C 12.78125 -48.9375 16.050781 -49.40625 19.34375 -49.40625 C 25.082031 -49.40625 29.488281 -48.195312 32.5625 -45.78125 C 35.644531 -43.375 37.1875 -39.96875 37.1875 -35.5625 C 37.1875 -32.8125 36.539062 -30.550781 35.25 -28.78125 C 33.957031 -27.019531 32.316406 -25.679688 30.328125 -24.765625 Z M 30.328125 -24.765625 "/></g></g></g><g fill="#ffffff" fill-opacity="1"><g transform="translate(384.653371, 700.770035)"><g><path d="M 22.828125 0.875 C 15.804688 0.875 10.390625 -1.117188 6.578125 -5.109375 C 2.773438 -9.109375 0.875 -15.492188 0.875 -24.265625 C 0.875 -33.046875 2.773438 -39.429688 6.578125 -43.421875 C 10.390625 -47.410156 15.804688 -49.40625 22.828125 -49.40625 C 29.859375 -49.40625 35.273438 -47.410156 39.078125 -43.421875 C 42.890625 -39.429688 44.796875 -33.046875 44.796875 -24.265625 C 44.796875 -16.160156 43.035156 -9.941406 39.515625 -5.609375 C 36.003906 -1.285156 30.441406 0.875 22.828125 0.875 Z M 22.828125 -10.234375 C 25.660156 -10.234375 27.078125 -11.769531 27.078125 -14.84375 L 27.078125 -33.6875 C 27.078125 -36.769531 25.660156 -38.3125 22.828125 -38.3125 C 20.003906 -38.3125 18.59375 -36.769531 18.59375 -33.6875 L 18.59375 -14.84375 C 18.59375 -11.769531 20.003906 -10.234375 22.828125 -10.234375 Z M 22.828125 -10.234375 "/></g></g></g><g fill="#ffffff" fill-opacity="1"><g transform="translate(430.321551, 700.770035)"><g><path d="M 12.046875 -24.078125 C 5.265625 -24.078125 1.875 -28.238281 1.875 -36.5625 C 1.875 -40.96875 2.742188 -44.164062 4.484375 -46.15625 C 6.234375 -48.15625 8.753906 -49.15625 12.046875 -49.15625 C 18.867188 -49.15625 22.28125 -44.957031 22.28125 -36.5625 C 22.28125 -32.53125 21.46875 -29.441406 19.84375 -27.296875 C 18.21875 -25.148438 15.617188 -24.078125 12.046875 -24.078125 Z M 12.046875 -29.515625 C 13.253906 -29.515625 13.859375 -30.28125 13.859375 -31.8125 L 13.859375 -41.484375 C 13.859375 -42.984375 13.253906 -43.734375 12.046875 -43.734375 C 10.878906 -43.734375 10.296875 -42.984375 10.296875 -41.484375 L 10.296875 -31.8125 C 10.296875 -30.28125 10.878906 -29.515625 12.046875 -29.515625 Z M 9.921875 0 L 9.921875 -2 L 38.9375 -48.546875 L 45.296875 -48.546875 L 45.296875 -46.546875 L 16.34375 0 Z M 43.109375 0.625 C 36.328125 0.625 32.9375 -3.535156 32.9375 -11.859375 C 32.9375 -16.265625 33.804688 -19.460938 35.546875 -21.453125 C 37.296875 -23.453125 39.816406 -24.453125 43.109375 -24.453125 C 49.929688 -24.453125 53.34375 -20.253906 53.34375 -11.859375 C 53.34375 -7.816406 52.53125 -4.722656 50.90625 -2.578125 C 49.28125 -0.441406 46.679688 0.625 43.109375 0.625 Z M 43.109375 -4.796875 C 44.316406 -4.796875 44.921875 -5.566406 44.921875 -7.109375 L 44.921875 -16.78125 C 44.921875 -18.28125 44.316406 -19.03125 43.109375 -19.03125 C 41.941406 -19.03125 41.359375 -18.28125 41.359375 -16.78125 L 41.359375 -7.109375 C 41.359375 -5.566406 41.941406 -4.796875 43.109375 -4.796875 Z M 43.109375 -4.796875 "/></g></g></g><g clip-path="url(#ec0f45c222)"><g fill="#ffffff" fill-opacity="1"><g transform="translate(730.894535, 147.97446)"><g><path d="M 47.796875 -33.4375 L 37.0625 -33.4375 L 37.0625 -38.3125 L 33.0625 -38.3125 L 33.0625 -10.234375 L 37.4375 -10.234375 L 37.4375 0 L 11.234375 0 L 11.234375 -10.234375 L 15.59375 -10.234375 L 15.59375 -38.3125 L 11.609375 -38.3125 L 11.609375 -33.4375 L 0.875 -33.4375 L 0.875 -48.546875 L 47.796875 -48.546875 Z M 47.796875 -33.4375 "/></g></g></g></g><g clip-path="url(#25472d7ab9)"><g fill="#ffffff" fill-opacity="1"><g transform="translate(779.55735, 147.97446)"><g><path d="M 1.25 0 L 1.25 -10.234375 L 4.375 -10.234375 L 4.375 -38.3125 L 1.25 -38.3125 L 1.25 -48.546875 L 43.359375 -48.546875 L 43.359375 -29.703125 L 29.390625 -29.703125 L 29.390625 -38.3125 L 21.84375 -38.3125 L 21.84375 -28.453125 L 27.328125 -28.453125 L 27.328125 -21.34375 L 21.84375 -21.34375 L 21.84375 -10.234375 L 29.390625 -10.234375 L 29.390625 -20.09375 L 43.359375 -20.09375 L 43.359375 0 Z M 1.25 0 "/></g></g></g></g><g clip-path="url(#0f39fc9bda)"><g fill="#ffffff" fill-opacity="1"><g transform="translate(824.040145, 147.97446)"><g><path d="M 47.046875 -10.234375 L 49.53125 -10.234375 L 49.53125 0 L 25.078125 0 L 25.078125 -10.234375 L 28.828125 -10.234375 L 27.828125 -15.21875 L 19.34375 -15.21875 L 18.34375 -10.234375 L 22.09375 -10.234375 L 22.09375 0 L 0.75 0 L 0.75 -10.234375 L 3.25 -10.234375 L 13.78125 -48.546875 L 36.5 -48.546875 Z M 20.71875 -21.84375 L 26.453125 -21.84375 L 23.890625 -34.25 L 23.265625 -34.25 Z M 20.71875 -21.84375 "/></g></g></g></g><g clip-path="url(#806f6432bf)"><g fill="#ffffff" fill-opacity="1"><g transform="translate(874.325046, 147.97446)"><g><path d="M 70.0625 -38.3125 L 66.9375 -38.3125 L 66.9375 -10.234375 L 70.0625 -10.234375 L 70.0625 0 L 46.484375 0 L 46.484375 -10.234375 L 49.46875 -10.234375 L 49.46875 -32.0625 L 38.875 0 L 29.640625 0 L 18.71875 -31.75 L 18.71875 -10.234375 L 21.71875 -10.234375 L 21.71875 0 L 1.25 0 L 1.25 -10.234375 L 4.375 -10.234375 L 4.375 -38.3125 L 1.25 -38.3125 L 1.25 -48.546875 L 29.828125 -48.546875 L 36.3125 -29.078125 L 42.546875 -48.546875 L 70.0625 -48.546875 Z M 70.0625 -38.3125 "/></g></g></g></g><g fill="#ffffff" fill-opacity="1"><g transform="translate(771.533071, 223.088441)"><g><path d="M 2.75 0 L 2.75 -10.234375 L 8.734375 -10.234375 L 8.734375 -38.3125 L 0.875 -38.3125 L 0.875 -45.359375 L 14.71875 -48.546875 L 25.203125 -48.546875 L 25.203125 -10.234375 L 30.453125 -10.234375 L 30.453125 0 Z M 2.75 0 "/></g></g></g><g fill="#ffffff" fill-opacity="1"><g transform="translate(804.099723, 223.088441)"><g><path d="M 22.828125 0.875 C 15.804688 0.875 10.390625 -1.117188 6.578125 -5.109375 C 2.773438 -9.109375 0.875 -15.492188 0.875 -24.265625 C 0.875 -33.046875 2.773438 -39.429688 6.578125 -43.421875 C 10.390625 -47.410156 15.804688 -49.40625 22.828125 -49.40625 C 29.859375 -49.40625 35.273438 -47.410156 39.078125 -43.421875 C 42.890625 -39.429688 44.796875 -33.046875 44.796875 -24.265625 C 44.796875 -16.160156 43.035156 -9.941406 39.515625 -5.609375 C 36.003906 -1.285156 30.441406 0.875 22.828125 0.875 Z M 22.828125 -10.234375 C 25.660156 -10.234375 27.078125 -11.769531 27.078125 -14.84375 L 27.078125 -33.6875 C 27.078125 -36.769531 25.660156 -38.3125 22.828125 -38.3125 C 20.003906 -38.3125 18.59375 -36.769531 18.59375 -33.6875 L 18.59375 -14.84375 C 18.59375 -11.769531 20.003906 -10.234375 22.828125 -10.234375 Z M 22.828125 -10.234375 "/></g></g></g><g fill="#ffffff" fill-opacity="1"><g transform="translate(849.767904, 223.088441)"><g><path d="M 12.046875 -24.078125 C 5.265625 -24.078125 1.875 -28.238281 1.875 -36.5625 C 1.875 -40.96875 2.742188 -44.164062 4.484375 -46.15625 C 6.234375 -48.15625 8.753906 -49.15625 12.046875 -49.15625 C 18.867188 -49.15625 22.28125 -44.957031 22.28125 -36.5625 C 22.28125 -32.53125 21.46875 -29.441406 19.84375 -27.296875 C 18.21875 -25.148438 15.617188 -24.078125 12.046875 -24.078125 Z M 12.046875 -29.515625 C 13.253906 -29.515625 13.859375 -30.28125 13.859375 -31.8125 L 13.859375 -41.484375 C 13.859375 -42.984375 13.253906 -43.734375 12.046875 -43.734375 C 10.878906 -43.734375 10.296875 -42.984375 10.296875 -41.484375 L 10.296875 -31.8125 C 10.296875 -30.28125 10.878906 -29.515625 12.046875 -29.515625 Z M 9.921875 0 L 9.921875 -2 L 38.9375 -48.546875 L 45.296875 -48.546875 L 45.296875 -46.546875 L 16.34375 0 Z M 43.109375 0.625 C 36.328125 0.625 32.9375 -3.535156 32.9375 -11.859375 C 32.9375 -16.265625 33.804688 -19.460938 35.546875 -21.453125 C 37.296875 -23.453125 39.816406 -24.453125 43.109375 -24.453125 C 49.929688 -24.453125 53.34375 -20.253906 53.34375 -11.859375 C 53.34375 -7.816406 52.53125 -4.722656 50.90625 -2.578125 C 49.28125 -0.441406 46.679688 0.625 43.109375 0.625 Z M 43.109375 -4.796875 C 44.316406 -4.796875 44.921875 -5.566406 44.921875 -7.109375 L 44.921875 -16.78125 C 44.921875 -18.28125 44.316406 -19.03125 43.109375 -19.03125 C 41.941406 -19.03125 41.359375 -18.28125 41.359375 -16.78125 L 41.359375 -7.109375 C 41.359375 -5.566406 41.941406 -4.796875 43.109375 -4.796875 Z M 43.109375 -4.796875 "/></g></g></g></svg>