<svg xmlns="http://www.w3.org/2000/svg" xmlns:xlink="http://www.w3.org/1999/xlink" zoomAndPan="magnify" preserveAspectRatio="xMidYMid meet" version="1.0" viewBox="184.15 58 1892.85 1010.01"><defs><g/><clipPath id="35107e428a"><path d="M 624.546875 58 L 1045.296875 58 L 1045.296875 240 L 624.546875 240 Z M 624.546875 58 " clip-rule="nonzero"/></clipPath><clipPath id="c292a2181d"><path d="M 184.152344 540.316406 L 604.902344 540.316406 L 604.902344 722.566406 L 184.152344 722.566406 Z M 184.152344 540.316406 " clip-rule="nonzero"/></clipPath><clipPath id="ac35ed4a8b"><path d="M 1346.617188 680 L 2077 680 L 2077 996.238281 L 1346.617188 996.238281 Z M 1346.617188 680 " clip-rule="nonzero"/></clipPath><clipPath id="0675f1e28d"><path d="M 569.457031 219.578125 L 1417.886719 219.578125 L 1417.886719 1068.011719 L 569.457031 1068.011719 Z M 569.457031 219.578125 " clip-rule="nonzero"/></clipPath><clipPath id="425e1519c7"><path d="M 993.671875 219.578125 C 759.386719 219.578125 569.457031 409.507812 569.457031 643.792969 C 569.457031 878.082031 759.386719 1068.011719 993.671875 1068.011719 C 1227.960938 1068.011719 1417.886719 878.082031 1417.886719 643.792969 C 1417.886719 409.507812 1227.960938 219.578125 993.671875 219.578125 Z M 993.671875 219.578125 " clip-rule="nonzero"/></clipPath><clipPath id="05e388a4f2"><path d="M 751 233 L 1406 233 L 1406 1055.472656 L 751 1055.472656 Z M 751 233 " clip-rule="nonzero"/></clipPath><clipPath id="fb39f688e8"><path d="M 731 99.667969 L 779 99.667969 L 779 148 L 731 148 Z M 731 99.667969 " clip-rule="nonzero"/></clipPath><clipPath id="8458f8ceb3"><path d="M 780 99.667969 L 823 99.667969 L 823 148 L 780 148 Z M 780 99.667969 " clip-rule="nonzero"/></clipPath><clipPath id="468f85fa3d"><path d="M 824 99.667969 L 874 99.667969 L 874 148 L 824 148 Z M 824 99.667969 " clip-rule="nonzero"/></clipPath><clipPath id="61f4c44747"><path d="M 875 99.667969 L 945 99.667969 L 945 148 L 875 148 Z M 875 99.667969 " clip-rule="nonzero"/></clipPath></defs><path fill="#ffffff" d="M 665.066406 237.460938 C 663.671875 237.460938 662.300781 237.40625 660.996094 237.296875 C 658.640625 237.101562 656.4375 237.003906 654.253906 237.003906 C 653.679688 237.003906 653.101562 237.011719 652.527344 237.027344 C 652.089844 237.035156 651.65625 237.042969 651.226562 237.042969 C 647.375 237.042969 643.734375 236.652344 639.878906 236.246094 C 638.597656 236.109375 637.316406 235.972656 636.027344 235.851562 C 634.515625 235.707031 633.226562 235.398438 632.574219 235.023438 C 631.738281 234.539062 631.03125 234.109375 630.40625 233.710938 L 629.242188 232.957031 L 629.210938 232.972656 L 628.613281 232.449219 L 630.101562 232.328125 L 630.199219 230.136719 C 630.289062 228.109375 630.148438 226.183594 630.007812 224.324219 C 629.925781 223.183594 629.84375 222.109375 629.816406 221.042969 C 629.78125 219.453125 629.785156 217.820312 629.789062 216.238281 C 629.796875 213.691406 629.804688 211.058594 629.636719 208.4375 C 629.144531 200.707031 629.410156 192.796875 629.664062 185.148438 C 629.71875 183.585938 629.769531 182.023438 629.816406 180.460938 L 629.816406 180.335938 C 629.792969 179.171875 629.792969 178.207031 629.882812 177.269531 L 629.890625 177.175781 L 629.890625 177.082031 C 629.941406 174.628906 629.96875 172.171875 629.992188 169.71875 C 630.015625 167.570312 630.039062 165.421875 630.078125 163.277344 C 630.105469 161.730469 630.121094 160.183594 630.140625 158.636719 C 630.1875 154.617188 630.238281 150.460938 630.457031 146.410156 C 630.542969 144.847656 630.609375 143.285156 630.675781 141.71875 C 630.898438 136.4375 631.132812 130.972656 632.15625 125.757812 C 632.28125 125.113281 632.28125 124.507812 632.28125 124.023438 C 632.277344 123.835938 632.277344 123.648438 632.289062 123.464844 C 632.6875 116.796875 632.464844 110.078125 632.246094 103.578125 L 632.113281 99.445312 C 631.90625 92.796875 631.691406 85.921875 630.773438 79.140625 C 630.671875 78.382812 630.703125 77.5625 630.867188 76.828125 C 631.175781 75.425781 631.300781 74.101562 631.25 72.789062 C 631.191406 71.304688 631.613281 69.777344 632.058594 68.160156 C 632.210938 67.613281 632.363281 67.0625 632.5 66.507812 C 632.554688 66.285156 632.640625 66.15625 632.683594 66.125 L 632.835938 66.023438 L 635.625 64.070312 L 632.917969 62.003906 C 632.820312 61.929688 632.726562 61.859375 632.636719 61.785156 C 632.980469 61.8125 633.34375 61.871094 633.726562 61.960938 C 635.167969 62.296875 636.722656 62.5625 638.488281 62.769531 L 638.582031 62.78125 L 638.675781 62.78125 C 640.386719 62.851562 642.140625 62.886719 644.03125 62.886719 C 647.996094 62.886719 651.898438 62.734375 655.667969 62.582031 C 658.324219 62.480469 661.070312 62.371094 663.742188 62.324219 C 667.59375 62.253906 671.523438 62.226562 675.324219 62.199219 C 681.3125 62.160156 687.5 62.117188 693.574219 61.90625 C 703.582031 61.5625 714.53125 61.398438 728.042969 61.398438 C 735.214844 61.398438 742.511719 61.441406 749.566406 61.484375 C 753.28125 61.507812 756.992188 61.53125 760.703125 61.546875 C 762.152344 61.523438 763.546875 61.503906 764.941406 61.503906 C 766.289062 61.503906 767.492188 61.519531 768.625 61.558594 L 769.078125 61.558594 C 774.761719 61.558594 780.441406 61.539062 786.121094 61.519531 C 791.28125 61.5 796.441406 61.484375 801.601562 61.480469 C 805.269531 61.480469 808.9375 61.46875 812.609375 61.457031 C 816.6875 61.441406 820.769531 61.429688 824.851562 61.429688 C 831.507812 61.429688 836.953125 61.464844 841.992188 61.542969 C 845.691406 61.597656 849.394531 61.632812 853.09375 61.667969 C 865.886719 61.792969 879.109375 61.921875 891.953125 62.875 C 892.574219 62.917969 893.242188 62.941406 894.113281 62.941406 C 894.453125 62.941406 895.789062 62.929688 896.113281 62.929688 C 896.335938 62.929688 896.554688 62.929688 896.773438 62.933594 C 900.550781 62.996094 904.402344 63.027344 908.554688 63.027344 C 920.304688 63.027344 932.222656 62.765625 943.75 62.511719 L 953.578125 62.300781 C 969.277344 61.96875 985.515625 61.625 1001.382812 60.601562 C 1002.414062 60.53125 1003.480469 60.5 1004.554688 60.5 C 1005.9375 60.5 1007.292969 60.554688 1008.582031 60.664062 C 1010.925781 60.859375 1013.113281 60.953125 1015.273438 60.953125 C 1015.847656 60.953125 1016.421875 60.945312 1016.996094 60.933594 C 1017.425781 60.921875 1017.855469 60.917969 1018.285156 60.917969 C 1022.105469 60.917969 1025.71875 61.304688 1029.542969 61.714844 C 1030.816406 61.851562 1032.089844 61.988281 1033.367188 62.109375 C 1034.863281 62.25 1036.136719 62.558594 1036.78125 62.929688 C 1038.097656 63.695312 1039.601562 64.609375 1040.769531 65.574219 L 1041.183594 65.914062 L 1041.417969 65.976562 L 1041.582031 66.082031 L 1041.351562 66.703125 C 1041.292969 66.867188 1041.234375 67.03125 1041.1875 67.199219 L 1041.132812 67.40625 L 1041.109375 67.617188 C 1040.835938 70.273438 1041.058594 72.738281 1041.273438 75.121094 C 1041.375 76.257812 1041.472656 77.335938 1041.515625 78.402344 C 1041.578125 79.988281 1041.597656 81.621094 1041.613281 83.199219 C 1041.644531 85.742188 1041.675781 88.367188 1041.878906 90.976562 C 1042.484375 98.679688 1042.335938 106.574219 1042.195312 114.210938 C 1042.167969 115.773438 1042.136719 117.332031 1042.113281 118.894531 L 1042.113281 119.019531 C 1042.15625 120.183594 1042.167969 121.148438 1042.09375 122.078125 L 1042.085938 122.171875 L 1042.085938 122.265625 C 1042.074219 124.703125 1042.082031 127.136719 1042.09375 129.570312 C 1042.101562 131.730469 1042.109375 133.886719 1042.101562 136.042969 C 1042.097656 137.582031 1042.105469 139.125 1042.109375 140.664062 C 1042.121094 144.679688 1042.132812 148.832031 1041.972656 152.878906 C 1041.910156 154.441406 1041.867188 156.003906 1041.820312 157.566406 C 1041.675781 162.839844 1041.523438 168.292969 1040.578125 173.507812 C 1040.460938 174.15625 1040.46875 174.757812 1040.476562 175.238281 C 1040.480469 175.425781 1040.484375 175.613281 1040.476562 175.796875 C 1040.175781 182.460938 1040.5 189.160156 1040.8125 195.640625 L 1041.007812 199.804688 C 1041.3125 206.421875 1041.628906 213.265625 1042.644531 220.007812 C 1042.757812 220.757812 1042.734375 221.574219 1042.585938 222.308594 C 1042.296875 223.714844 1042.191406 225.035156 1042.261719 226.347656 C 1042.339844 227.824219 1041.941406 229.351562 1041.519531 230.972656 C 1041.375 231.523438 1041.230469 232.074219 1041.105469 232.628906 C 1041.050781 232.851562 1040.96875 232.980469 1040.925781 233.011719 L 1038.4375 234.832031 L 1039.851562 236.179688 C 1039.476562 236.15625 1039.074219 236.09375 1038.652344 235.996094 C 1037.195312 235.660156 1035.628906 235.394531 1033.859375 235.191406 L 1033.769531 235.179688 L 1033.675781 235.175781 C 1031.949219 235.105469 1030.183594 235.074219 1028.277344 235.074219 C 1024.285156 235.074219 1020.363281 235.226562 1016.570312 235.375 C 1013.890625 235.480469 1011.117188 235.589844 1008.421875 235.636719 C 1004.539062 235.707031 1000.578125 235.734375 996.75 235.757812 C 990.71875 235.800781 984.484375 235.839844 978.367188 236.050781 C 968.285156 236.398438 957.25 236.558594 943.640625 236.558594 C 936.402344 236.558594 929.035156 236.515625 921.914062 236.472656 C 918.1875 236.453125 914.460938 236.429688 910.734375 236.414062 C 909.28125 236.4375 907.878906 236.453125 906.480469 236.453125 C 905.117188 236.453125 903.898438 236.4375 902.75 236.402344 L 902.308594 236.398438 C 896.578125 236.398438 890.851562 236.417969 885.125 236.4375 C 879.925781 236.457031 874.730469 236.472656 869.53125 236.476562 C 865.832031 236.480469 862.132812 236.492188 858.4375 236.503906 C 854.328125 236.515625 850.21875 236.527344 846.105469 236.527344 C 839.398438 236.527344 833.914062 236.492188 828.835938 236.417969 C 825.109375 236.363281 821.382812 236.328125 817.652344 236.289062 C 804.765625 236.164062 791.441406 236.035156 778.5 235.085938 C 777.875 235.039062 777.207031 235.019531 776.332031 235.019531 C 775.992188 235.019531 774.65625 235.03125 774.332031 235.03125 C 774.101562 235.03125 773.875 235.027344 773.648438 235.023438 C 769.839844 234.960938 765.960938 234.929688 761.777344 234.929688 C 749.9375 234.929688 737.933594 235.191406 726.320312 235.445312 L 716.335938 235.660156 C 700.542969 235.992188 684.214844 236.332031 668.257812 237.359375 C 667.222656 237.425781 666.148438 237.460938 665.066406 237.460938 Z M 665.066406 237.460938 " fill-opacity="1" fill-rule="nonzero"/><g clip-path="url(#35107e428a)"><path fill="#000000" d="M 1045.113281 219.636719 C 1044.03125 212.445312 1043.761719 205.1875 1043.421875 197.953125 C 1043.078125 190.617188 1042.636719 183.269531 1042.972656 175.910156 C 1043 175.257812 1042.917969 174.589844 1043.03125 173.953125 C 1044.292969 167.011719 1044.183594 159.980469 1044.464844 152.980469 C 1044.691406 147.34375 1044.582031 141.695312 1044.597656 136.050781 C 1044.613281 131.460938 1044.558594 126.871094 1044.582031 122.277344 C 1044.671875 121.167969 1044.648438 120.050781 1044.609375 118.929688 C 1044.75 109.550781 1045.105469 100.164062 1044.367188 90.78125 C 1044.042969 86.640625 1044.171875 82.464844 1044.007812 78.304688 C 1043.875 74.910156 1043.222656 71.496094 1043.59375 67.871094 C 1043.636719 67.707031 1043.699219 67.550781 1043.753906 67.390625 C 1044.691406 66.9375 1044.734375 66.429688 1044.425781 65.867188 C 1044.4375 65.839844 1044.453125 65.808594 1044.46875 65.78125 C 1044.511719 65.746094 1044.550781 65.707031 1044.566406 65.671875 C 1044.605469 65.589844 1044.601562 65.523438 1044.574219 65.46875 C 1044.683594 65.027344 1044.601562 64.597656 1044.242188 64.179688 C 1043.734375 63.589844 1043.15625 63.554688 1042.492188 63.710938 C 1042.449219 63.679688 1042.402344 63.664062 1042.359375 63.652344 C 1041.132812 62.640625 1039.621094 61.699219 1038.035156 60.777344 C 1036.960938 60.152344 1035.3125 59.789062 1033.605469 59.628906 C 1028.101562 59.105469 1022.71875 58.300781 1016.933594 58.441406 C 1014.21875 58.507812 1011.515625 58.40625 1008.792969 58.179688 C 1006.347656 57.972656 1003.691406 57.953125 1001.222656 58.113281 C 984.0625 59.222656 966.730469 59.523438 949.453125 59.894531 C 931.933594 60.269531 914.386719 60.742188 896.816406 60.441406 C 895.257812 60.414062 893.65625 60.5 892.136719 60.386719 C 875.550781 59.160156 858.75 59.296875 842.03125 59.050781 C 828.570312 58.847656 815.078125 58.980469 801.601562 58.988281 C 790.636719 58.996094 779.675781 59.066406 768.707031 59.066406 C 766.054688 58.980469 763.386719 59.007812 760.714844 59.054688 C 738.3125 58.957031 715.890625 58.640625 693.488281 59.417969 C 683.601562 59.757812 673.628906 59.652344 663.695312 59.832031 C 655.589844 59.976562 647.4375 60.648438 638.777344 60.292969 C 637.253906 60.113281 635.757812 59.875 634.296875 59.535156 C 632.808594 59.1875 631.34375 59.152344 629.953125 59.660156 C 628.558594 60.167969 628.472656 60.746094 628.851562 61.40625 C 628.773438 61.460938 628.71875 61.511719 628.691406 61.5625 C 628.550781 61.851562 628.871094 61.957031 629.296875 62.011719 C 629.855469 62.703125 630.578125 63.355469 631.402344 63.984375 C 631.355469 64.015625 631.308594 64.046875 631.261719 64.078125 C 630.628906 64.515625 630.25 65.199219 630.074219 65.914062 C 629.511719 68.214844 628.660156 70.457031 628.753906 72.886719 C 628.800781 74.027344 628.679688 75.15625 628.429688 76.296875 C 628.203125 77.320312 628.160156 78.433594 628.300781 79.472656 C 629.277344 86.691406 629.4375 93.96875 629.671875 101.222656 C 629.90625 108.578125 630.238281 115.949219 629.796875 123.316406 C 629.757812 123.96875 629.832031 124.640625 629.707031 125.277344 C 628.34375 132.210938 628.347656 139.261719 627.964844 146.273438 C 627.65625 151.917969 627.683594 157.578125 627.582031 163.234375 C 627.503906 167.832031 627.488281 172.433594 627.398438 177.035156 C 627.292969 178.144531 627.296875 179.265625 627.320312 180.386719 C 627.042969 189.78125 626.550781 199.183594 627.148438 208.59375 C 627.410156 212.75 627.222656 216.929688 627.324219 221.101562 C 627.394531 224.019531 627.84375 226.960938 627.707031 230.023438 C 627.132812 230.070312 626.570312 230.183594 626.019531 230.382812 C 624.609375 230.890625 624.527344 231.46875 624.910156 232.128906 C 624.832031 232.183594 624.773438 232.234375 624.746094 232.285156 C 624.605469 232.574219 624.929688 232.679688 625.355469 232.734375 C 625.703125 233.160156 626.113281 233.570312 626.566406 233.972656 C 626.457031 234.40625 626.53125 234.835938 626.882812 235.253906 C 627.378906 235.851562 627.960938 235.894531 628.625 235.75 C 628.675781 235.78125 628.726562 235.808594 628.777344 235.820312 C 628.902344 235.847656 628.984375 235.832031 629.050781 235.800781 C 629.777344 236.269531 630.542969 236.730469 631.328125 237.183594 C 632.410156 237.808594 634.070312 238.171875 635.792969 238.332031 C 641.335938 238.851562 646.757812 239.65625 652.585938 239.515625 C 655.324219 239.453125 658.042969 239.550781 660.789062 239.78125 C 663.253906 239.984375 665.929688 240.007812 668.417969 239.847656 C 685.707031 238.734375 703.167969 238.433594 720.574219 238.0625 C 738.222656 237.6875 755.902344 237.214844 773.601562 237.519531 C 775.175781 237.542969 776.785156 237.457031 778.316406 237.570312 C 795.027344 238.796875 811.953125 238.660156 828.800781 238.910156 C 842.363281 239.109375 855.953125 238.976562 869.53125 238.96875 C 880.578125 238.964844 891.621094 238.890625 902.671875 238.890625 C 905.34375 238.976562 908.03125 238.949219 910.722656 238.90625 C 933.292969 239.003906 955.882812 239.316406 978.453125 238.542969 C 988.414062 238.199219 998.460938 238.308594 1008.46875 238.128906 C 1016.632812 237.980469 1024.847656 237.3125 1033.574219 237.667969 C 1035.109375 237.84375 1036.617188 238.082031 1038.085938 238.425781 C 1039.589844 238.773438 1041.0625 238.804688 1042.464844 238.300781 C 1043.871094 237.792969 1043.953125 237.210938 1043.574219 236.550781 C 1043.652344 236.5 1043.710938 236.445312 1043.734375 236.394531 C 1043.875 236.105469 1043.554688 236 1043.125 235.945312 C 1042.886719 235.652344 1042.609375 235.367188 1042.3125 235.082031 C 1042.335938 235.066406 1042.355469 235.054688 1042.375 235.039062 C 1043.003906 234.59375 1043.371094 233.90625 1043.535156 233.1875 C 1044.066406 230.886719 1044.882812 228.636719 1044.753906 226.214844 C 1044.691406 225.078125 1044.796875 223.945312 1045.03125 222.808594 C 1045.242188 221.785156 1045.265625 220.671875 1045.113281 219.636719 Z M 1032.6875 230.347656 C 1027.148438 229.828125 1021.722656 229.023438 1015.894531 229.164062 C 1013.160156 229.230469 1010.4375 229.128906 1007.691406 228.902344 C 1005.230469 228.695312 1002.554688 228.675781 1000.066406 228.835938 C 982.777344 229.945312 965.316406 230.246094 947.90625 230.617188 C 930.257812 230.992188 912.582031 231.464844 894.878906 231.164062 C 893.304688 231.136719 891.695312 231.222656 890.164062 231.109375 C 873.453125 229.882812 856.527344 230.019531 839.683594 229.769531 C 826.121094 229.570312 812.527344 229.703125 798.949219 229.710938 C 787.902344 229.71875 776.859375 229.789062 765.808594 229.789062 C 763.136719 229.703125 760.449219 229.730469 757.757812 229.777344 C 735.191406 229.679688 712.597656 229.363281 690.03125 230.140625 C 680.066406 230.480469 670.019531 230.375 660.015625 230.550781 C 651.878906 230.699219 643.691406 231.363281 635.003906 231.015625 C 635.566406 228.832031 636.328125 226.683594 636.238281 224.363281 C 636.195312 223.222656 636.316406 222.09375 636.566406 220.953125 C 636.792969 219.933594 636.835938 218.820312 636.695312 217.78125 C 635.71875 210.558594 635.554688 203.285156 635.324219 196.027344 C 635.085938 188.671875 634.753906 181.300781 635.199219 173.9375 C 635.238281 173.28125 635.164062 172.609375 635.289062 171.972656 C 636.648438 165.039062 636.644531 157.988281 637.027344 150.976562 C 637.339844 145.335938 637.3125 139.671875 637.414062 134.019531 C 637.492188 129.417969 637.507812 124.820312 637.597656 120.214844 C 637.703125 119.105469 637.699219 117.984375 637.675781 116.863281 C 637.953125 107.46875 638.445312 98.070312 637.847656 88.65625 C 637.582031 84.5 637.773438 80.320312 637.671875 76.148438 C 637.601562 73.230469 637.152344 70.292969 637.289062 67.226562 C 638.027344 67.40625 638.832031 67.53125 639.65625 67.609375 C 645.15625 68.132812 650.539062 68.9375 656.324219 68.796875 C 659.039062 68.730469 661.742188 68.828125 664.464844 69.058594 C 666.910156 69.261719 669.566406 69.285156 672.035156 69.125 C 689.199219 68.011719 706.527344 67.710938 723.808594 67.339844 C 741.324219 66.964844 758.871094 66.496094 776.441406 66.796875 C 778.003906 66.824219 779.601562 66.738281 781.121094 66.847656 C 797.707031 68.074219 814.507812 67.9375 831.226562 68.1875 C 844.691406 68.386719 858.179688 68.253906 871.65625 68.246094 C 882.625 68.242188 893.585938 68.167969 904.554688 68.171875 C 907.203125 68.253906 909.871094 68.226562 912.546875 68.183594 C 934.945312 68.28125 957.367188 68.597656 979.769531 67.820312 C 989.65625 67.476562 999.628906 67.585938 1009.5625 67.40625 C 1017.667969 67.261719 1025.820312 66.589844 1034.480469 66.945312 C 1035.207031 67.027344 1035.925781 67.128906 1036.636719 67.246094 C 1036.464844 67.546875 1036.339844 67.871094 1036.261719 68.207031 C 1035.730469 70.507812 1034.914062 72.757812 1035.046875 75.179688 C 1035.105469 76.316406 1035 77.449219 1034.769531 78.585938 C 1034.558594 79.609375 1034.53125 80.722656 1034.6875 81.757812 C 1035.769531 88.949219 1036.039062 96.207031 1036.378906 103.441406 C 1036.722656 110.777344 1037.160156 118.125 1036.828125 125.484375 C 1036.796875 126.136719 1036.882812 126.804688 1036.765625 127.441406 C 1035.507812 134.382812 1035.613281 141.414062 1035.332031 148.414062 C 1035.109375 154.050781 1035.214844 159.699219 1035.199219 165.34375 C 1035.1875 169.933594 1035.238281 174.523438 1035.21875 179.117188 C 1035.128906 180.226562 1035.148438 181.34375 1035.191406 182.464844 C 1035.050781 191.84375 1034.695312 201.230469 1035.429688 210.613281 C 1035.753906 214.753906 1035.628906 218.929688 1035.789062 223.089844 C 1035.890625 225.71875 1036.304688 228.363281 1036.3125 231.109375 C 1035.296875 230.71875 1034.015625 230.472656 1032.6875 230.347656 Z M 1032.6875 230.347656 " fill-opacity="1" fill-rule="nonzero"/></g><path fill="#ffffff" d="M 224.671875 719.9375 C 223.277344 719.9375 221.910156 719.882812 220.601562 719.773438 C 218.246094 719.578125 216.042969 719.480469 213.859375 719.480469 C 213.285156 719.480469 212.710938 719.488281 212.132812 719.503906 C 211.695312 719.515625 211.265625 719.519531 210.832031 719.519531 C 206.980469 719.519531 203.339844 719.132812 199.484375 718.722656 C 198.203125 718.585938 196.921875 718.449219 195.632812 718.328125 C 194.125 718.1875 192.832031 717.875 192.183594 717.5 C 191.34375 717.019531 190.636719 716.589844 190.011719 716.1875 L 188.851562 715.4375 L 188.816406 715.453125 L 188.21875 714.925781 L 189.707031 714.808594 L 189.804688 712.613281 C 189.894531 710.585938 189.753906 708.660156 189.617188 706.800781 C 189.53125 705.660156 189.449219 704.585938 189.425781 703.519531 C 189.386719 701.929688 189.390625 700.296875 189.394531 698.714844 C 189.402344 696.167969 189.410156 693.535156 189.242188 690.914062 C 188.753906 683.183594 189.015625 675.273438 189.273438 667.625 C 189.324219 666.0625 189.375 664.5 189.421875 662.9375 L 189.421875 662.8125 C 189.398438 661.648438 189.398438 660.683594 189.488281 659.746094 L 189.496094 659.652344 L 189.5 659.5625 C 189.546875 657.105469 189.574219 654.648438 189.601562 652.195312 C 189.625 650.046875 189.644531 647.898438 189.683594 645.753906 C 189.710938 644.207031 189.730469 642.660156 189.746094 641.113281 C 189.792969 637.09375 189.84375 632.9375 190.0625 628.886719 C 190.148438 627.324219 190.214844 625.761719 190.28125 624.199219 C 190.507812 618.914062 190.738281 613.449219 191.761719 608.234375 C 191.886719 607.589844 191.886719 606.984375 191.886719 606.5 C 191.886719 606.3125 191.882812 606.125 191.894531 605.941406 C 192.296875 599.273438 192.070312 592.554688 191.851562 586.054688 L 191.71875 581.921875 C 191.511719 575.273438 191.296875 568.398438 190.378906 561.617188 C 190.277344 560.859375 190.3125 560.039062 190.472656 559.304688 C 190.78125 557.902344 190.90625 556.578125 190.855469 555.265625 C 190.796875 553.785156 191.21875 552.253906 191.664062 550.640625 C 191.816406 550.089844 191.96875 549.539062 192.105469 548.988281 C 192.160156 548.761719 192.246094 548.632812 192.289062 548.605469 L 192.441406 548.5 L 195.230469 546.546875 L 192.523438 544.480469 C 192.425781 544.40625 192.332031 544.335938 192.242188 544.261719 C 192.585938 544.289062 192.949219 544.347656 193.335938 544.4375 C 194.773438 544.773438 196.328125 545.039062 198.09375 545.246094 L 198.1875 545.257812 L 198.28125 545.261719 C 199.996094 545.332031 201.746094 545.363281 203.636719 545.363281 C 207.605469 545.363281 211.503906 545.210938 215.273438 545.0625 C 217.929688 544.957031 220.675781 544.847656 223.347656 544.800781 C 227.203125 544.730469 231.128906 544.703125 234.933594 544.675781 C 240.917969 544.636719 247.109375 544.59375 253.179688 544.382812 C 263.1875 544.039062 274.136719 543.875 287.648438 543.875 C 294.820312 543.875 302.117188 543.921875 309.171875 543.960938 C 312.886719 543.984375 316.597656 544.007812 320.308594 544.023438 C 321.757812 544 323.152344 543.980469 324.546875 543.980469 C 325.894531 543.980469 327.101562 544 328.234375 544.035156 L 328.683594 544.035156 C 334.367188 544.035156 340.046875 544.015625 345.726562 543.996094 C 350.886719 543.980469 356.046875 543.960938 361.207031 543.957031 C 364.875 543.957031 368.546875 543.945312 372.214844 543.933594 C 376.296875 543.921875 380.375 543.910156 384.457031 543.910156 C 391.113281 543.910156 396.558594 543.941406 401.597656 544.019531 C 405.296875 544.074219 409 544.109375 412.703125 544.144531 C 425.492188 544.269531 438.714844 544.398438 451.558594 545.351562 C 452.183594 545.398438 452.847656 545.417969 453.71875 545.417969 C 454.058594 545.417969 455.394531 545.40625 455.722656 545.40625 C 455.941406 545.40625 456.160156 545.40625 456.378906 545.410156 C 460.15625 545.476562 464.011719 545.507812 468.160156 545.507812 C 479.910156 545.507812 491.828125 545.242188 503.355469 544.988281 L 513.183594 544.777344 C 528.886719 544.445312 545.121094 544.105469 560.988281 543.078125 C 562.019531 543.011719 563.085938 542.976562 564.160156 542.976562 C 565.542969 542.976562 566.898438 543.03125 568.191406 543.140625 C 570.53125 543.335938 572.71875 543.429688 574.878906 543.429688 C 575.453125 543.429688 576.027344 543.425781 576.601562 543.410156 C 577.03125 543.398438 577.460938 543.394531 577.890625 543.394531 C 581.714844 543.394531 585.324219 543.78125 589.148438 544.191406 C 590.421875 544.328125 591.695312 544.464844 592.972656 544.585938 C 594.46875 544.726562 595.742188 545.035156 596.386719 545.40625 C 597.703125 546.171875 599.207031 547.085938 600.378906 548.050781 L 600.792969 548.390625 L 601.023438 548.457031 L 601.1875 548.558594 L 600.957031 549.179688 C 600.898438 549.34375 600.839844 549.507812 600.796875 549.675781 L 600.738281 549.882812 L 600.714844 550.09375 C 600.445312 552.75 600.664062 555.214844 600.878906 557.597656 C 600.984375 558.738281 601.078125 559.8125 601.121094 560.878906 C 601.183594 562.464844 601.203125 564.097656 601.222656 565.679688 C 601.25 568.21875 601.28125 570.84375 601.488281 573.453125 C 602.089844 581.15625 601.945312 589.054688 601.800781 596.6875 C 601.773438 598.25 601.742188 599.8125 601.71875 601.371094 L 601.722656 601.496094 C 601.761719 602.660156 601.773438 603.625 601.699219 604.554688 L 601.691406 604.648438 L 601.691406 604.742188 C 601.679688 607.179688 601.691406 609.613281 601.699219 612.046875 C 601.707031 614.207031 601.714844 616.363281 601.710938 618.519531 C 601.703125 620.0625 601.710938 621.601562 601.714844 623.144531 C 601.726562 627.15625 601.738281 631.308594 601.578125 635.355469 C 601.515625 636.917969 601.472656 638.480469 601.429688 640.042969 C 601.28125 645.316406 601.128906 650.769531 600.183594 655.984375 C 600.066406 656.632812 600.078125 657.234375 600.085938 657.714844 C 600.085938 657.902344 600.09375 658.089844 600.082031 658.273438 C 599.78125 664.9375 600.105469 671.636719 600.417969 678.121094 L 600.613281 682.28125 C 600.917969 688.898438 601.234375 695.742188 602.25 702.484375 C 602.363281 703.234375 602.34375 704.050781 602.191406 704.785156 C 601.902344 706.191406 601.796875 707.515625 601.867188 708.824219 C 601.945312 710.300781 601.546875 711.832031 601.125 713.449219 C 600.980469 714 600.839844 714.550781 600.710938 715.105469 C 600.660156 715.332031 600.574219 715.457031 600.53125 715.488281 L 598.042969 717.308594 L 599.457031 718.65625 C 599.082031 718.632812 598.679688 718.574219 598.257812 718.472656 C 596.800781 718.136719 595.234375 717.875 593.46875 717.667969 L 593.375 717.65625 L 593.28125 717.652344 C 591.554688 717.582031 589.789062 717.550781 587.882812 717.550781 C 583.890625 717.550781 579.96875 717.703125 576.175781 717.851562 C 573.496094 717.957031 570.722656 718.066406 568.027344 718.113281 C 564.144531 718.183594 560.1875 718.210938 556.355469 718.234375 C 550.324219 718.277344 544.089844 718.320312 537.972656 718.527344 C 527.890625 718.875 516.855469 719.035156 503.246094 719.035156 C 496.007812 719.035156 488.640625 718.992188 481.519531 718.949219 C 477.792969 718.929688 474.066406 718.90625 470.34375 718.890625 C 468.886719 718.914062 467.484375 718.933594 466.085938 718.933594 C 464.726562 718.933594 463.503906 718.914062 462.355469 718.878906 L 461.914062 718.878906 C 456.183594 718.878906 450.457031 718.898438 444.730469 718.917969 C 439.53125 718.933594 434.335938 718.953125 429.136719 718.953125 C 425.4375 718.957031 421.742188 718.96875 418.042969 718.980469 C 413.933594 718.992188 409.824219 719.003906 405.714844 719.003906 C 399.007812 719.003906 393.519531 718.96875 388.441406 718.894531 C 384.71875 718.839844 380.988281 718.804688 377.257812 718.765625 C 364.371094 718.640625 351.046875 718.511719 338.105469 717.5625 C 337.480469 717.515625 336.8125 717.496094 335.9375 717.496094 C 335.597656 717.496094 334.261719 717.507812 333.9375 717.507812 C 333.710938 717.507812 333.480469 717.507812 333.253906 717.503906 C 329.449219 717.4375 325.566406 717.40625 321.382812 717.40625 C 309.542969 717.40625 297.539062 717.667969 285.929688 717.921875 L 275.941406 718.136719 C 260.152344 718.46875 243.820312 718.8125 227.863281 719.835938 C 226.828125 719.902344 225.753906 719.9375 224.671875 719.9375 Z M 224.671875 719.9375 " fill-opacity="1" fill-rule="nonzero"/><g clip-path="url(#c292a2181d)"><path fill="#000000" d="M 604.71875 702.113281 C 603.636719 694.925781 603.367188 687.667969 603.027344 680.429688 C 602.683594 673.09375 602.242188 665.746094 602.578125 658.390625 C 602.605469 657.734375 602.523438 657.066406 602.640625 656.429688 C 603.898438 649.492188 603.789062 642.457031 604.070312 635.457031 C 604.296875 629.820312 604.1875 624.171875 604.207031 618.527344 C 604.21875 613.9375 604.167969 609.347656 604.1875 604.753906 C 604.277344 603.644531 604.253906 602.527344 604.214844 601.410156 C 604.355469 592.03125 604.710938 582.640625 603.976562 573.257812 C 603.648438 569.117188 603.777344 564.941406 603.613281 560.785156 C 603.484375 557.386719 602.828125 553.972656 603.199219 550.347656 C 603.242188 550.183594 603.308594 550.027344 603.363281 549.867188 C 604.296875 549.414062 604.339844 548.910156 604.03125 548.34375 C 604.042969 548.316406 604.058594 548.285156 604.074219 548.257812 C 604.117188 548.222656 604.15625 548.1875 604.171875 548.148438 C 604.214844 548.066406 604.207031 548.003906 604.179688 547.945312 C 604.289062 547.507812 604.210938 547.074219 603.847656 546.65625 C 603.339844 546.066406 602.761719 546.03125 602.097656 546.1875 C 602.054688 546.160156 602.011719 546.140625 601.964844 546.128906 C 600.738281 545.117188 599.230469 544.175781 597.640625 543.253906 C 596.566406 542.628906 594.921875 542.265625 593.210938 542.105469 C 587.710938 541.582031 582.324219 540.777344 576.539062 540.917969 C 573.824219 540.984375 571.125 540.886719 568.398438 540.65625 C 565.953125 540.453125 563.296875 540.429688 560.828125 540.589844 C 543.667969 541.703125 526.335938 542.003906 509.058594 542.371094 C 491.539062 542.75 473.992188 543.21875 456.421875 542.917969 C 454.863281 542.890625 453.265625 542.976562 451.742188 542.863281 C 435.15625 541.636719 418.359375 541.777344 401.636719 541.527344 C 388.175781 541.324219 374.683594 541.457031 361.207031 541.464844 C 350.242188 541.472656 339.28125 541.546875 328.3125 541.542969 C 325.660156 541.460938 322.992188 541.488281 320.320312 541.53125 C 297.917969 541.433594 275.496094 541.117188 253.09375 541.894531 C 243.207031 542.238281 233.234375 542.128906 223.304688 542.308594 C 215.195312 542.453125 207.042969 543.125 198.382812 542.769531 C 196.859375 542.589844 195.363281 542.351562 193.902344 542.011719 C 192.414062 541.664062 190.949219 541.628906 189.558594 542.136719 C 188.164062 542.644531 188.078125 543.222656 188.457031 543.886719 C 188.382812 543.9375 188.324219 543.988281 188.296875 544.042969 C 188.15625 544.328125 188.476562 544.433594 188.902344 544.488281 C 189.460938 545.183594 190.183594 545.832031 191.007812 546.460938 C 190.960938 546.492188 190.914062 546.523438 190.867188 546.554688 C 190.234375 546.996094 189.859375 547.679688 189.679688 548.394531 C 189.117188 550.691406 188.265625 552.933594 188.363281 555.363281 C 188.40625 556.503906 188.285156 557.636719 188.035156 558.773438 C 187.808594 559.796875 187.765625 560.910156 187.90625 561.949219 C 188.882812 569.167969 189.046875 576.445312 189.277344 583.703125 C 189.515625 591.058594 189.847656 598.425781 189.402344 605.792969 C 189.363281 606.445312 189.4375 607.117188 189.3125 607.753906 C 187.953125 614.691406 187.957031 621.738281 187.570312 628.75 C 187.261719 634.394531 187.289062 640.054688 187.1875 645.710938 C 187.109375 650.308594 187.09375 654.910156 187.003906 659.511719 C 186.898438 660.621094 186.902344 661.742188 186.925781 662.863281 C 186.648438 672.257812 186.15625 681.660156 186.753906 691.074219 C 187.015625 695.226562 186.828125 699.410156 186.929688 703.578125 C 187 706.496094 187.449219 709.4375 187.3125 712.5 C 186.742188 712.546875 186.175781 712.660156 185.625 712.859375 C 184.21875 713.367188 184.132812 713.945312 184.515625 714.609375 C 184.4375 714.660156 184.378906 714.710938 184.351562 714.761719 C 184.210938 715.050781 184.535156 715.15625 184.960938 715.210938 C 185.308594 715.636719 185.71875 716.046875 186.171875 716.449219 C 186.0625 716.882812 186.136719 717.3125 186.488281 717.730469 C 186.988281 718.328125 187.566406 718.375 188.230469 718.226562 C 188.28125 718.261719 188.332031 718.285156 188.386719 718.296875 C 188.507812 718.324219 188.589844 718.3125 188.660156 718.28125 C 189.382812 718.746094 190.148438 719.207031 190.933594 719.660156 C 192.015625 720.285156 193.675781 720.648438 195.398438 720.808594 C 200.941406 721.332031 206.367188 722.136719 212.195312 721.996094 C 214.929688 721.929688 217.648438 722.027344 220.394531 722.257812 C 222.859375 722.460938 225.535156 722.484375 228.023438 722.324219 C 245.3125 721.210938 262.773438 720.910156 280.179688 720.539062 C 297.828125 720.164062 315.507812 719.695312 333.210938 719.996094 C 334.78125 720.023438 336.390625 719.9375 337.925781 720.046875 C 354.636719 721.277344 371.558594 721.136719 388.40625 721.386719 C 401.96875 721.589844 415.558594 721.457031 429.136719 721.445312 C 440.183594 721.441406 451.230469 721.367188 462.28125 721.371094 C 464.949219 721.453125 467.640625 721.425781 470.332031 721.382812 C 492.898438 721.480469 515.488281 721.796875 538.058594 721.019531 C 548.019531 720.675781 558.066406 720.785156 568.074219 720.605469 C 576.242188 720.460938 584.453125 719.789062 593.179688 720.144531 C 594.714844 720.320312 596.222656 720.5625 597.691406 720.902344 C 599.195312 721.25 600.667969 721.285156 602.070312 720.777344 C 603.476562 720.269531 603.5625 719.6875 603.179688 719.027344 C 603.257812 718.976562 603.316406 718.925781 603.339844 718.871094 C 603.484375 718.585938 603.160156 718.480469 602.730469 718.425781 C 602.492188 718.128906 602.214844 717.84375 601.917969 717.5625 C 601.941406 717.546875 601.960938 717.53125 601.984375 717.515625 C 602.609375 717.070312 602.976562 716.382812 603.140625 715.667969 C 603.675781 713.367188 604.488281 711.113281 604.359375 708.691406 C 604.296875 707.554688 604.402344 706.425781 604.636719 705.285156 C 604.847656 704.261719 604.875 703.148438 604.71875 702.113281 Z M 592.296875 712.828125 C 586.753906 712.304688 581.328125 711.5 575.5 711.640625 C 572.765625 711.707031 570.042969 711.605469 567.300781 711.378906 C 564.835938 711.175781 562.160156 711.152344 559.671875 711.3125 C 542.382812 712.421875 524.921875 712.726562 507.511719 713.09375 C 489.863281 713.472656 472.1875 713.941406 454.484375 713.640625 C 452.914062 713.613281 451.300781 713.699219 449.769531 713.585938 C 433.058594 712.359375 416.136719 712.496094 399.289062 712.25 C 385.726562 712.046875 372.136719 712.179688 358.554688 712.1875 C 347.507812 712.195312 336.464844 712.269531 325.414062 712.265625 C 322.742188 712.183594 320.054688 712.207031 317.363281 712.253906 C 294.796875 712.15625 272.203125 711.839844 249.636719 712.617188 C 239.671875 712.960938 229.628906 712.851562 219.621094 713.03125 C 211.484375 713.175781 203.296875 713.839844 194.609375 713.496094 C 195.171875 711.308594 195.9375 709.160156 195.847656 706.84375 C 195.800781 705.703125 195.921875 704.570312 196.171875 703.433594 C 196.398438 702.410156 196.441406 701.296875 196.300781 700.257812 C 195.324219 693.035156 195.164062 685.761719 194.929688 678.503906 C 194.695312 671.148438 194.363281 663.777344 194.804688 656.414062 C 194.84375 655.757812 194.769531 655.085938 194.894531 654.449219 C 196.253906 647.515625 196.253906 640.464844 196.636719 633.457031 C 196.945312 627.8125 196.917969 622.148438 197.019531 616.496094 C 197.097656 611.894531 197.113281 607.296875 197.203125 602.695312 C 197.308594 601.582031 197.304688 600.464844 197.28125 599.339844 C 197.558594 589.945312 198.050781 580.546875 197.453125 571.132812 C 197.191406 566.976562 197.378906 562.796875 197.277344 558.625 C 197.207031 555.710938 196.757812 552.769531 196.894531 549.707031 C 197.632812 549.882812 198.4375 550.007812 199.261719 550.085938 C 204.761719 550.609375 210.144531 551.414062 215.929688 551.273438 C 218.648438 551.207031 221.347656 551.304688 224.070312 551.535156 C 226.515625 551.738281 229.171875 551.761719 231.644531 551.601562 C 248.804688 550.492188 266.132812 550.1875 283.414062 549.820312 C 300.929688 549.441406 318.476562 548.972656 336.046875 549.273438 C 337.609375 549.300781 339.207031 549.214844 340.726562 549.328125 C 357.316406 550.554688 374.113281 550.414062 390.835938 550.664062 C 404.296875 550.867188 417.785156 550.734375 431.261719 550.726562 C 442.230469 550.71875 453.191406 550.644531 464.160156 550.648438 C 466.808594 550.730469 469.480469 550.703125 472.152344 550.660156 C 494.550781 550.757812 516.972656 551.074219 539.375 550.296875 C 549.265625 549.953125 559.234375 550.0625 569.167969 549.882812 C 577.273438 549.738281 585.425781 549.066406 594.085938 549.421875 C 594.8125 549.507812 595.53125 549.609375 596.242188 549.722656 C 596.070312 550.023438 595.945312 550.347656 595.867188 550.683594 C 595.335938 552.984375 594.519531 555.234375 594.652344 557.65625 C 594.714844 558.792969 594.609375 559.925781 594.375 561.066406 C 594.164062 562.085938 594.136719 563.199219 594.292969 564.234375 C 595.375 571.425781 595.644531 578.683594 595.984375 585.917969 C 596.328125 593.253906 596.769531 600.605469 596.433594 607.960938 C 596.40625 608.613281 596.488281 609.28125 596.371094 609.917969 C 595.113281 616.859375 595.21875 623.894531 594.941406 630.894531 C 594.714844 636.527344 594.824219 642.179688 594.804688 647.820312 C 594.792969 652.414062 594.84375 657.003906 594.824219 661.59375 C 594.734375 662.703125 594.757812 663.820312 594.796875 664.941406 C 594.65625 674.320312 594.300781 683.707031 595.035156 693.089844 C 595.359375 697.230469 595.234375 701.40625 595.394531 705.566406 C 595.5 708.195312 595.910156 710.839844 595.917969 713.585938 C 594.902344 713.195312 593.621094 712.949219 592.296875 712.828125 Z M 592.296875 712.828125 " fill-opacity="1" fill-rule="nonzero"/></g><path fill="#ffffff" d="M 1416.96875 991.675781 C 1414.546875 991.675781 1412.171875 991.578125 1409.902344 991.390625 C 1405.816406 991.050781 1401.984375 990.886719 1398.195312 990.886719 C 1397.199219 990.886719 1396.199219 990.898438 1395.199219 990.921875 C 1394.441406 990.941406 1393.691406 990.949219 1392.941406 990.949219 C 1386.25 990.949219 1379.933594 990.277344 1373.242188 989.566406 C 1371.015625 989.328125 1368.789062 989.09375 1366.550781 988.882812 C 1363.929688 988.632812 1361.691406 988.097656 1360.558594 987.445312 C 1359.105469 986.605469 1357.875 985.859375 1356.792969 985.164062 L 1354.773438 983.859375 L 1354.71875 983.886719 L 1353.683594 982.976562 L 1356.261719 982.765625 L 1356.433594 978.953125 C 1356.589844 975.4375 1356.34375 972.09375 1356.105469 968.863281 C 1355.957031 966.886719 1355.816406 965.019531 1355.773438 963.164062 C 1355.707031 960.40625 1355.714844 957.566406 1355.722656 954.824219 C 1355.734375 950.402344 1355.75 945.828125 1355.460938 941.273438 C 1354.605469 927.851562 1355.0625 914.113281 1355.507812 900.832031 C 1355.597656 898.117188 1355.6875 895.402344 1355.769531 892.6875 L 1355.769531 892.472656 C 1355.726562 890.449219 1355.730469 888.773438 1355.882812 887.144531 L 1355.898438 886.984375 L 1355.902344 886.824219 C 1355.984375 882.558594 1356.03125 878.296875 1356.078125 874.03125 C 1356.117188 870.300781 1356.15625 866.574219 1356.222656 862.847656 C 1356.269531 860.160156 1356.300781 857.472656 1356.332031 854.789062 C 1356.414062 847.808594 1356.5 840.589844 1356.882812 833.554688 C 1357.03125 830.84375 1357.144531 828.128906 1357.261719 825.414062 C 1357.652344 816.234375 1358.054688 806.746094 1359.832031 797.691406 C 1360.050781 796.570312 1360.046875 795.519531 1360.046875 794.679688 C 1360.042969 794.355469 1360.042969 794.027344 1360.0625 793.707031 C 1360.757812 782.128906 1360.367188 770.457031 1359.988281 759.171875 L 1359.757812 751.996094 C 1359.394531 740.449219 1359.023438 728.511719 1357.429688 716.730469 C 1357.253906 715.421875 1357.3125 713.996094 1357.589844 712.71875 C 1358.128906 710.28125 1358.347656 707.984375 1358.257812 705.703125 C 1358.15625 703.128906 1358.886719 700.476562 1359.664062 697.667969 C 1359.925781 696.710938 1360.191406 695.757812 1360.425781 694.800781 C 1360.519531 694.410156 1360.671875 694.183594 1360.746094 694.132812 L 1361.011719 693.957031 L 1365.851562 690.5625 L 1361.152344 686.972656 C 1360.984375 686.847656 1360.820312 686.722656 1360.664062 686.59375 C 1361.261719 686.644531 1361.894531 686.746094 1362.5625 686.902344 C 1365.058594 687.484375 1367.757812 687.941406 1370.820312 688.300781 L 1370.984375 688.320312 L 1371.148438 688.328125 C 1374.125 688.449219 1377.164062 688.507812 1380.445312 688.507812 C 1387.335938 688.507812 1394.105469 688.242188 1400.648438 687.980469 C 1405.261719 687.800781 1410.03125 687.613281 1414.671875 687.527344 C 1421.359375 687.40625 1428.183594 687.359375 1434.78125 687.316406 C 1445.175781 687.246094 1455.921875 687.171875 1466.464844 686.808594 C 1483.835938 686.207031 1502.851562 685.925781 1526.308594 685.925781 C 1538.761719 685.925781 1551.425781 686 1563.679688 686.074219 C 1570.125 686.113281 1576.570312 686.152344 1583.011719 686.179688 C 1585.527344 686.140625 1587.953125 686.105469 1590.371094 686.105469 C 1592.707031 686.105469 1594.800781 686.136719 1596.769531 686.199219 L 1597.554688 686.199219 C 1607.421875 686.199219 1617.285156 686.167969 1627.144531 686.132812 C 1636.101562 686.101562 1645.0625 686.074219 1654.019531 686.066406 C 1660.390625 686.0625 1666.757812 686.042969 1673.128906 686.023438 C 1680.214844 686 1687.300781 685.980469 1694.382812 685.980469 C 1705.941406 685.980469 1715.398438 686.039062 1724.144531 686.171875 C 1730.566406 686.265625 1736.992188 686.328125 1743.421875 686.394531 C 1765.628906 686.609375 1788.589844 686.832031 1810.886719 688.484375 C 1811.96875 688.566406 1813.125 688.601562 1814.636719 688.601562 C 1815.226562 688.601562 1817.546875 688.578125 1818.113281 688.578125 C 1818.496094 688.578125 1818.875 688.582031 1819.257812 688.585938 C 1825.816406 688.699219 1832.503906 688.753906 1839.710938 688.753906 C 1860.113281 688.753906 1880.804688 688.300781 1900.8125 687.859375 L 1917.878906 687.492188 C 1945.140625 686.914062 1973.328125 686.320312 2000.878906 684.539062 C 2002.664062 684.421875 2004.519531 684.363281 2006.386719 684.363281 C 2008.78125 684.363281 2011.136719 684.457031 2013.378906 684.644531 C 2017.441406 684.988281 2021.242188 685.152344 2024.992188 685.152344 C 2025.988281 685.152344 2026.984375 685.140625 2027.980469 685.113281 C 2028.734375 685.097656 2029.480469 685.089844 2030.21875 685.089844 C 2036.859375 685.089844 2043.128906 685.761719 2049.765625 686.472656 C 2051.976562 686.707031 2054.1875 686.945312 2056.410156 687.15625 C 2059.003906 687.402344 2061.21875 687.933594 2062.332031 688.582031 C 2064.617188 689.914062 2067.230469 691.5 2069.261719 693.171875 L 2069.980469 693.765625 L 2070.386719 693.875 L 2070.671875 694.058594 L 2070.269531 695.136719 C 2070.167969 695.421875 2070.070312 695.707031 2069.988281 695.996094 L 2069.886719 696.355469 L 2069.851562 696.722656 C 2069.378906 701.332031 2069.765625 705.613281 2070.136719 709.757812 C 2070.3125 711.730469 2070.480469 713.597656 2070.554688 715.453125 C 2070.660156 718.207031 2070.695312 721.042969 2070.726562 723.785156 C 2070.78125 728.195312 2070.832031 732.753906 2071.1875 737.289062 C 2072.238281 750.667969 2071.984375 764.378906 2071.734375 777.636719 C 2071.683594 780.347656 2071.632812 783.0625 2071.59375 785.773438 L 2071.597656 785.988281 C 2071.667969 788.011719 2071.6875 789.6875 2071.558594 791.300781 L 2071.546875 791.460938 L 2071.546875 791.625 C 2071.527344 795.855469 2071.542969 800.085938 2071.558594 804.3125 C 2071.570312 808.058594 2071.585938 811.808594 2071.574219 815.554688 C 2071.566406 818.226562 2071.578125 820.902344 2071.582031 823.582031 C 2071.605469 830.550781 2071.628906 837.761719 2071.347656 844.789062 C 2071.238281 847.5 2071.164062 850.214844 2071.085938 852.929688 C 2070.832031 862.085938 2070.570312 871.558594 2068.925781 880.617188 C 2068.722656 881.738281 2068.738281 882.78125 2068.753906 883.621094 C 2068.761719 883.945312 2068.769531 884.269531 2068.753906 884.589844 C 2068.226562 896.160156 2068.789062 907.796875 2069.332031 919.054688 L 2069.671875 926.285156 C 2070.203125 937.777344 2070.753906 949.660156 2072.511719 961.367188 C 2072.710938 962.667969 2072.671875 964.089844 2072.414062 965.363281 C 2071.914062 967.804688 2071.726562 970.101562 2071.847656 972.378906 C 2071.988281 974.941406 2071.296875 977.597656 2070.5625 980.40625 C 2070.3125 981.367188 2070.0625 982.324219 2069.839844 983.289062 C 2069.75 983.675781 2069.609375 983.898438 2069.53125 983.949219 L 2065.207031 987.109375 L 2067.664062 989.453125 C 2067.015625 989.410156 2066.316406 989.304688 2065.582031 989.136719 C 2063.054688 988.550781 2060.335938 988.089844 2057.265625 987.734375 L 2057.105469 987.714844 L 2056.941406 987.710938 C 2053.945312 987.589844 2050.878906 987.53125 2047.570312 987.53125 C 2040.640625 987.53125 2033.828125 987.796875 2027.242188 988.054688 C 2022.589844 988.238281 2017.777344 988.425781 2013.097656 988.507812 C 2006.359375 988.628906 1999.484375 988.675781 1992.832031 988.722656 C 1982.363281 988.792969 1971.539062 988.863281 1960.917969 989.230469 C 1943.414062 989.832031 1924.253906 990.113281 1900.625 990.113281 C 1888.054688 990.113281 1875.269531 990.035156 1862.90625 989.960938 C 1856.433594 989.925781 1849.964844 989.886719 1843.496094 989.855469 C 1840.96875 989.898438 1838.535156 989.929688 1836.109375 989.929688 C 1833.746094 989.929688 1831.628906 989.902344 1829.632812 989.835938 L 1828.867188 989.835938 C 1818.917969 989.835938 1808.976562 989.871094 1799.03125 989.902344 C 1790.007812 989.933594 1780.980469 989.964844 1771.957031 989.96875 C 1765.539062 989.972656 1759.117188 989.992188 1752.695312 990.011719 C 1745.558594 990.035156 1738.425781 990.058594 1731.289062 990.058594 C 1719.644531 990.058594 1710.117188 989.996094 1701.304688 989.867188 C 1694.835938 989.769531 1688.363281 989.707031 1681.886719 989.644531 C 1659.511719 989.425781 1636.378906 989.203125 1613.914062 987.550781 C 1612.828125 987.472656 1611.664062 987.4375 1610.148438 987.4375 C 1609.558594 987.4375 1607.238281 987.457031 1606.671875 987.457031 C 1606.277344 987.457031 1605.882812 987.453125 1605.484375 987.449219 C 1598.878906 987.335938 1592.140625 987.28125 1584.878906 987.28125 C 1564.324219 987.28125 1543.476562 987.738281 1523.320312 988.179688 L 1505.984375 988.550781 C 1478.566406 989.125 1450.214844 989.71875 1422.507812 991.5 C 1420.710938 991.617188 1418.847656 991.675781 1416.96875 991.675781 Z M 1416.96875 991.675781 " fill-opacity="1" fill-rule="nonzero"/><g clip-path="url(#ac35ed4a8b)"><path fill="#000000" d="M 2076.796875 960.722656 C 2074.921875 948.238281 2074.453125 935.632812 2073.863281 923.066406 C 2073.265625 910.328125 2072.503906 897.566406 2073.082031 884.789062 C 2073.132812 883.65625 2072.988281 882.492188 2073.191406 881.386719 C 2075.375 869.335938 2075.1875 857.121094 2075.675781 844.964844 C 2076.066406 835.175781 2075.878906 825.367188 2075.910156 815.566406 C 2075.933594 807.59375 2075.839844 799.621094 2075.878906 791.644531 C 2076.03125 789.71875 2075.996094 787.777344 2075.925781 785.835938 C 2076.167969 769.546875 2076.785156 753.246094 2075.507812 736.953125 C 2074.945312 729.757812 2075.164062 722.507812 2074.882812 715.285156 C 2074.65625 709.390625 2073.515625 703.457031 2074.160156 697.160156 C 2074.238281 696.882812 2074.351562 696.605469 2074.445312 696.328125 C 2076.070312 695.542969 2076.144531 694.664062 2075.605469 693.683594 C 2075.628906 693.632812 2075.65625 693.582031 2075.679688 693.535156 C 2075.757812 693.472656 2075.820312 693.410156 2075.851562 693.347656 C 2075.921875 693.203125 2075.914062 693.089844 2075.863281 692.992188 C 2076.054688 692.226562 2075.914062 691.476562 2075.289062 690.75 C 2074.410156 689.730469 2073.402344 689.664062 2072.253906 689.9375 C 2072.175781 689.886719 2072.097656 689.859375 2072.019531 689.835938 C 2069.890625 688.082031 2067.269531 686.445312 2064.511719 684.84375 C 2062.644531 683.757812 2059.789062 683.128906 2056.820312 682.847656 C 2047.269531 681.941406 2037.917969 680.542969 2027.875 680.789062 C 2023.160156 680.902344 2018.472656 680.730469 2013.742188 680.332031 C 2009.496094 679.976562 2004.886719 679.9375 2000.597656 680.21875 C 1970.800781 682.148438 1940.714844 682.671875 1910.714844 683.3125 C 1880.300781 683.964844 1849.835938 684.785156 1819.332031 684.261719 C 1816.621094 684.214844 1813.847656 684.363281 1811.207031 684.167969 C 1782.40625 682.039062 1753.242188 682.277344 1724.210938 681.84375 C 1700.839844 681.496094 1677.417969 681.726562 1654.019531 681.738281 C 1634.980469 681.75 1615.949219 681.875 1596.90625 681.875 C 1592.304688 681.726562 1587.667969 681.773438 1583.03125 681.851562 C 1544.140625 681.679688 1505.210938 681.132812 1466.316406 682.480469 C 1449.148438 683.078125 1431.835938 682.890625 1414.59375 683.199219 C 1400.519531 683.453125 1386.363281 684.617188 1371.328125 684.003906 C 1368.683594 683.691406 1366.082031 683.277344 1363.550781 682.6875 C 1360.960938 682.082031 1358.421875 682.023438 1356.007812 682.902344 C 1353.582031 683.785156 1353.4375 684.792969 1354.09375 685.941406 C 1353.960938 686.027344 1353.859375 686.121094 1353.816406 686.210938 C 1353.570312 686.710938 1354.128906 686.894531 1354.867188 686.988281 C 1355.835938 688.191406 1357.09375 689.324219 1358.519531 690.414062 C 1358.441406 690.46875 1358.359375 690.519531 1358.277344 690.578125 C 1357.175781 691.339844 1356.523438 692.527344 1356.21875 693.765625 C 1355.238281 697.757812 1353.761719 701.652344 1353.925781 705.875 C 1354.003906 707.855469 1353.792969 709.816406 1353.359375 711.796875 C 1352.96875 713.570312 1352.894531 715.503906 1353.136719 717.308594 C 1354.832031 729.847656 1355.113281 742.484375 1355.519531 755.085938 C 1355.929688 767.859375 1356.503906 780.660156 1355.738281 793.449219 C 1355.667969 794.585938 1355.796875 795.753906 1355.578125 796.855469 C 1353.214844 808.902344 1353.222656 821.144531 1352.554688 833.316406 C 1352.019531 843.117188 1352.0625 852.953125 1351.890625 862.769531 C 1351.75 870.761719 1351.726562 878.75 1351.570312 886.738281 C 1351.386719 888.667969 1351.394531 890.613281 1351.4375 892.5625 C 1350.957031 908.878906 1350.097656 925.203125 1351.136719 941.550781 C 1351.59375 948.765625 1351.265625 956.027344 1351.441406 963.269531 C 1351.5625 968.335938 1352.34375 973.441406 1352.105469 978.761719 C 1351.113281 978.839844 1350.132812 979.035156 1349.175781 979.382812 C 1346.730469 980.265625 1346.585938 981.273438 1347.25 982.421875 C 1347.113281 982.507812 1347.011719 982.601562 1346.96875 982.691406 C 1346.722656 983.191406 1347.28125 983.375 1348.023438 983.46875 C 1348.625 984.210938 1349.335938 984.921875 1350.125 985.617188 C 1349.933594 986.371094 1350.066406 987.117188 1350.675781 987.84375 C 1351.539062 988.878906 1352.546875 988.960938 1353.699219 988.707031 C 1353.789062 988.765625 1353.878906 988.808594 1353.96875 988.828125 C 1354.179688 988.875 1354.324219 988.851562 1354.441406 988.796875 C 1355.703125 989.609375 1357.027344 990.40625 1358.394531 991.195312 C 1360.273438 992.277344 1363.152344 992.910156 1366.144531 993.191406 C 1375.765625 994.09375 1385.183594 995.492188 1395.304688 995.25 C 1400.054688 995.132812 1404.777344 995.308594 1409.542969 995.703125 C 1413.820312 996.0625 1418.46875 996.097656 1422.785156 995.820312 C 1452.804688 993.890625 1483.117188 993.367188 1513.34375 992.722656 C 1543.984375 992.070312 1574.675781 991.253906 1605.410156 991.777344 C 1608.140625 991.824219 1610.933594 991.675781 1613.59375 991.867188 C 1642.609375 994 1671.992188 993.761719 1701.238281 994.195312 C 1724.785156 994.542969 1748.382812 994.3125 1771.957031 994.296875 C 1791.140625 994.285156 1810.3125 994.160156 1829.5 994.164062 C 1834.136719 994.308594 1838.804688 994.261719 1843.476562 994.1875 C 1882.660156 994.355469 1921.882812 994.902344 1961.066406 993.554688 C 1978.363281 992.960938 1995.804688 993.148438 2013.175781 992.835938 C 2027.355469 992.582031 2041.617188 991.417969 2056.765625 992.035156 C 2059.429688 992.34375 2062.050781 992.757812 2064.601562 993.351562 C 2067.207031 993.957031 2069.765625 994.015625 2072.199219 993.132812 C 2074.644531 992.25 2074.789062 991.246094 2074.125 990.097656 C 2074.261719 990.007812 2074.363281 989.917969 2074.40625 989.828125 C 2074.652344 989.324219 2074.09375 989.144531 2073.351562 989.046875 C 2072.933594 988.535156 2072.453125 988.039062 2071.941406 987.546875 C 2071.976562 987.523438 2072.015625 987.5 2072.050781 987.472656 C 2073.140625 986.695312 2073.777344 985.5 2074.0625 984.257812 C 2074.984375 980.261719 2076.402344 976.355469 2076.175781 972.148438 C 2076.070312 970.171875 2076.253906 968.207031 2076.660156 966.230469 C 2077.023438 964.453125 2077.070312 962.523438 2076.796875 960.722656 Z M 2055.230469 979.328125 C 2045.609375 978.421875 2036.191406 977.023438 2026.074219 977.269531 C 2021.324219 977.382812 2016.597656 977.210938 2011.832031 976.8125 C 2007.554688 976.457031 2002.910156 976.417969 1998.589844 976.699219 C 1968.570312 978.628906 1938.257812 979.152344 1908.035156 979.792969 C 1877.394531 980.445312 1846.703125 981.265625 1815.964844 980.742188 C 1813.238281 980.695312 1810.441406 980.84375 1807.78125 980.648438 C 1778.765625 978.515625 1749.382812 978.757812 1720.136719 978.324219 C 1696.589844 977.976562 1672.992188 978.207031 1649.417969 978.21875 C 1630.234375 978.230469 1611.0625 978.355469 1591.878906 978.355469 C 1587.238281 978.207031 1582.570312 978.253906 1577.898438 978.332031 C 1538.714844 978.160156 1499.496094 977.613281 1460.308594 978.960938 C 1443.011719 979.558594 1425.570312 979.367188 1408.199219 979.679688 C 1394.070312 979.933594 1379.859375 981.085938 1364.773438 980.488281 C 1365.75 976.6875 1367.078125 972.957031 1366.921875 968.933594 C 1366.84375 966.953125 1367.054688 964.988281 1367.488281 963.011719 C 1367.878906 961.238281 1367.953125 959.304688 1367.710938 957.5 C 1366.015625 944.960938 1365.734375 932.324219 1365.328125 919.722656 C 1364.921875 906.949219 1364.34375 894.148438 1365.113281 881.359375 C 1365.179688 880.222656 1365.054688 879.054688 1365.269531 877.949219 C 1367.632812 865.90625 1367.625 853.664062 1368.292969 841.488281 C 1368.828125 831.6875 1368.785156 821.855469 1368.957031 812.035156 C 1369.097656 804.046875 1369.125 796.058594 1369.277344 788.070312 C 1369.460938 786.140625 1369.453125 784.195312 1369.410156 782.246094 C 1369.894531 765.929688 1370.75 749.605469 1369.714844 733.257812 C 1369.253906 726.042969 1369.582031 718.78125 1369.40625 711.539062 C 1369.285156 706.472656 1368.503906 701.367188 1368.742188 696.046875 C 1370.023438 696.355469 1371.421875 696.574219 1372.851562 696.710938 C 1382.398438 697.617188 1391.75 699.011719 1401.792969 698.769531 C 1406.507812 698.652344 1411.195312 698.828125 1415.925781 699.222656 C 1420.171875 699.578125 1424.785156 699.617188 1429.070312 699.339844 C 1458.867188 697.410156 1488.957031 696.886719 1518.953125 696.242188 C 1549.367188 695.589844 1579.832031 694.773438 1610.339844 695.296875 C 1613.046875 695.34375 1615.824219 695.195312 1618.460938 695.390625 C 1647.261719 697.519531 1676.425781 697.28125 1705.457031 697.714844 C 1728.828125 698.0625 1752.25 697.832031 1775.648438 697.816406 C 1794.6875 697.804688 1813.71875 697.679688 1832.761719 697.683594 C 1837.367188 697.828125 1842 697.78125 1846.636719 697.707031 C 1885.527344 697.875 1924.457031 698.421875 1963.351562 697.074219 C 1980.519531 696.480469 1997.832031 696.667969 2015.078125 696.355469 C 2029.152344 696.101562 2043.308594 694.9375 2058.34375 695.554688 C 2059.601562 695.703125 2060.847656 695.878906 2062.082031 696.078125 C 2061.789062 696.601562 2061.570312 697.164062 2061.4375 697.746094 C 2060.511719 701.738281 2059.09375 705.648438 2059.320312 709.855469 C 2059.429688 711.832031 2059.246094 713.792969 2058.839844 715.773438 C 2058.476562 717.550781 2058.429688 719.480469 2058.699219 721.277344 C 2060.578125 733.765625 2061.046875 746.371094 2061.636719 758.9375 C 2062.234375 771.675781 2062.996094 784.4375 2062.417969 797.214844 C 2062.363281 798.347656 2062.507812 799.511719 2062.308594 800.617188 C 2060.121094 812.667969 2060.308594 824.882812 2059.824219 837.039062 C 2059.429688 846.828125 2059.617188 856.636719 2059.589844 866.4375 C 2059.566406 874.410156 2059.65625 882.382812 2059.621094 890.355469 C 2059.464844 892.285156 2059.503906 894.226562 2059.574219 896.167969 C 2059.332031 912.457031 2058.710938 928.757812 2059.988281 945.050781 C 2060.554688 952.246094 2060.335938 959.496094 2060.613281 966.71875 C 2060.792969 971.285156 2061.507812 975.878906 2061.523438 980.644531 C 2059.757812 979.96875 2057.53125 979.542969 2055.230469 979.328125 Z M 2055.230469 979.328125 " fill-opacity="1" fill-rule="nonzero"/></g><g clip-path="url(#0675f1e28d)"><g clip-path="url(#425e1519c7)"><path fill="#000000" d="M 569.457031 219.578125 L 1417.886719 219.578125 L 1417.886719 1068.011719 L 569.457031 1068.011719 Z M 569.457031 219.578125 " fill-opacity="1" fill-rule="nonzero"/></g></g><g clip-path="url(#05e388a4f2)"><path fill="#ffffff" d="M 993.46875 233.425781 C 1001.558594 233.425781 1009.640625 233.664062 1017.71875 234.140625 C 1025.796875 234.617188 1033.851562 235.332031 1041.886719 236.28125 C 1049.921875 237.234375 1057.921875 238.417969 1065.882812 239.84375 C 1073.847656 241.265625 1081.765625 242.921875 1089.632812 244.808594 C 1097.5 246.699219 1105.304688 248.816406 1113.046875 251.164062 C 1120.789062 253.511719 1128.457031 256.089844 1136.046875 258.886719 C 1143.636719 261.6875 1151.140625 264.710938 1158.550781 267.953125 C 1165.964844 271.195312 1173.273438 274.652344 1180.484375 278.324219 C 1187.691406 282 1194.785156 285.878906 1201.765625 289.972656 C 1208.746094 294.0625 1215.601562 298.355469 1222.328125 302.851562 C 1229.054688 307.347656 1235.644531 312.035156 1242.09375 316.917969 C 1248.546875 321.800781 1254.847656 326.871094 1261 332.125 C 1267.152344 337.378906 1273.144531 342.808594 1278.976562 348.417969 C 1284.808594 354.027344 1290.472656 359.800781 1295.964844 365.742188 C 1301.457031 371.683594 1306.765625 377.78125 1311.898438 384.035156 C 1317.03125 390.289062 1321.976562 396.6875 1326.734375 403.234375 C 1331.488281 409.78125 1336.046875 416.460938 1340.410156 423.273438 C 1344.769531 430.085938 1348.929688 437.023438 1352.882812 444.082031 C 1356.835938 451.144531 1360.578125 458.3125 1364.109375 465.589844 C 1367.640625 472.871094 1370.953125 480.25 1374.050781 487.722656 C 1377.144531 495.199219 1380.019531 502.757812 1382.667969 510.402344 C 1385.320312 518.046875 1387.742188 525.761719 1389.941406 533.546875 C 1392.136719 541.335938 1394.101562 549.179688 1395.835938 557.082031 C 1397.570312 564.984375 1399.070312 572.933594 1400.335938 580.925781 C 1401.601562 588.914062 1402.628906 596.9375 1403.421875 604.988281 C 1404.214844 613.039062 1404.769531 621.109375 1405.089844 629.191406 C 1405.40625 637.277344 1405.484375 645.363281 1405.328125 653.453125 C 1405.167969 661.542969 1404.769531 669.621094 1404.136719 677.6875 C 1403.5 685.75 1402.628906 693.792969 1401.519531 701.804688 C 1400.414062 709.820312 1399.070312 717.796875 1397.492188 725.730469 C 1395.914062 733.664062 1394.101562 741.546875 1392.058594 749.375 C 1390.015625 757.203125 1387.746094 764.964844 1385.246094 772.660156 C 1382.742188 780.355469 1380.019531 787.96875 1377.070312 795.503906 C 1374.121094 803.039062 1370.953125 810.480469 1367.566406 817.828125 C 1364.179688 825.175781 1360.578125 832.417969 1356.765625 839.550781 C 1352.949219 846.6875 1348.929688 853.703125 1344.703125 860.601562 C 1340.476562 867.5 1336.046875 874.269531 1331.421875 880.90625 C 1326.796875 887.542969 1321.980469 894.039062 1316.96875 900.394531 C 1311.960938 906.746094 1306.769531 912.949219 1301.394531 918.996094 C 1296.019531 925.042969 1290.472656 930.929688 1284.75 936.648438 C 1279.03125 942.371094 1273.144531 947.917969 1267.097656 953.292969 C 1261.050781 958.667969 1254.851562 963.859375 1248.496094 968.867188 C 1242.140625 973.875 1235.648438 978.695312 1229.007812 983.320312 C 1222.371094 987.945312 1215.601562 992.375 1208.703125 996.601562 C 1201.804688 1000.828125 1194.789062 1004.847656 1187.652344 1008.664062 C 1180.519531 1012.476562 1173.277344 1016.078125 1165.929688 1019.464844 C 1158.582031 1022.851562 1151.140625 1026.019531 1143.605469 1028.96875 C 1136.074219 1031.917969 1128.457031 1034.640625 1120.761719 1037.140625 C 1113.070312 1039.640625 1105.308594 1041.914062 1097.476562 1043.957031 C 1089.648438 1046 1081.769531 1047.808594 1073.832031 1049.386719 C 1065.898438 1050.96875 1057.921875 1052.308594 1049.90625 1053.417969 C 1041.894531 1054.527344 1033.855469 1055.398438 1025.789062 1056.035156 C 1017.722656 1056.667969 1009.644531 1057.066406 1001.554688 1057.222656 C 993.464844 1057.382812 985.378906 1057.304688 977.292969 1056.984375 C 969.210938 1056.667969 961.140625 1056.113281 953.089844 1055.320312 C 945.039062 1054.527344 937.015625 1053.496094 929.027344 1052.230469 C 921.035156 1050.964844 913.089844 1049.464844 905.183594 1047.734375 C 897.28125 1046 889.4375 1044.035156 881.652344 1041.835938 C 873.863281 1039.640625 866.148438 1037.21875 858.503906 1034.566406 C 850.859375 1031.917969 843.300781 1029.042969 835.824219 1025.945312 C 828.351562 1022.851562 820.972656 1019.539062 813.695312 1016.007812 C 806.414062 1012.476562 799.246094 1008.734375 792.1875 1004.78125 C 785.125 1000.828125 778.191406 996.667969 771.375 992.308594 C 764.5625 987.945312 757.882812 983.386719 751.335938 978.628906 L 993.46875 645.367188 Z M 993.46875 233.425781 " fill-opacity="1" fill-rule="nonzero"/></g><path fill="#ffbd59" d="M 751.335938 978.628906 C 744.789062 973.875 738.390625 968.929688 732.136719 963.796875 C 725.882812 958.664062 719.785156 953.351562 713.84375 947.859375 C 707.902344 942.367188 702.128906 936.707031 696.519531 930.875 C 690.914062 925.042969 685.480469 919.050781 680.226562 912.898438 C 674.972656 906.746094 669.902344 900.445312 665.019531 893.992188 C 660.136719 887.542969 655.449219 880.953125 650.953125 874.226562 C 646.457031 867.5 642.164062 860.644531 638.074219 853.664062 C 633.984375 846.683594 630.101562 839.589844 626.425781 832.382812 C 622.753906 825.171875 619.296875 817.863281 616.054688 810.449219 C 612.8125 803.035156 609.789062 795.535156 606.992188 787.945312 C 604.191406 780.355469 601.617188 772.6875 599.265625 764.945312 C 596.917969 757.203125 594.800781 749.398438 592.910156 741.53125 C 591.023438 733.664062 589.367188 725.746094 587.945312 717.78125 C 586.523438 709.816406 585.335938 701.816406 584.382812 693.785156 C 583.433594 685.75 582.71875 677.691406 582.242188 669.617188 C 581.765625 661.539062 581.527344 653.457031 581.527344 645.367188 C 581.527344 637.273438 581.765625 629.191406 582.242188 621.113281 C 582.71875 613.039062 583.433594 604.980469 584.382812 596.945312 C 585.335938 588.914062 586.523438 580.914062 587.945312 572.949219 C 589.367188 564.984375 591.023438 557.066406 592.910156 549.199219 C 594.800781 541.332031 596.917969 533.527344 599.265625 525.785156 C 601.617188 518.042969 604.191406 510.378906 606.992188 502.785156 C 609.789062 495.195312 612.8125 487.695312 616.054688 480.28125 C 619.296875 472.867188 622.753906 465.558594 626.425781 458.347656 C 630.101562 451.140625 633.984375 444.046875 638.074219 437.066406 C 642.164062 430.085938 646.457031 423.230469 650.953125 416.503906 C 655.449219 409.777344 660.136719 403.1875 665.019531 396.738281 C 669.902344 390.285156 674.972656 383.984375 680.226562 377.832031 C 685.480469 371.679688 690.914062 365.6875 696.519531 359.855469 C 702.128906 354.023438 707.902344 348.363281 713.84375 342.871094 C 719.785156 337.378906 725.882812 332.066406 732.136719 326.933594 C 738.390625 321.800781 744.789062 316.855469 751.335938 312.101562 L 993.46875 645.367188 Z M 751.335938 978.628906 " fill-opacity="1" fill-rule="nonzero"/><path fill="#000000" d="M 751.335938 312.101562 C 760.0625 305.757812 769.027344 299.769531 778.226562 294.132812 C 787.425781 288.496094 796.828125 283.226562 806.441406 278.332031 C 816.054688 273.433594 825.84375 268.917969 835.8125 264.789062 C 845.777344 260.660156 855.890625 256.929688 866.152344 253.59375 C 876.410156 250.261719 886.789062 247.332031 897.277344 244.816406 C 907.765625 242.296875 918.339844 240.191406 928.996094 238.503906 C 939.652344 236.816406 950.355469 235.546875 961.109375 234.699219 C 971.867188 233.851562 982.636719 233.429688 993.425781 233.425781 L 993.46875 645.367188 Z M 751.335938 312.101562 " fill-opacity="1" fill-rule="nonzero"/><g fill="#000000" fill-opacity="1"><g transform="translate(1375.558017, 858.580916)"><g><path d="M 1.25 -10.234375 L 4.375 -10.234375 L 4.375 -38.3125 L 1.25 -38.3125 L 1.25 -48.546875 L 28.640625 -48.546875 C 34.003906 -48.546875 38.097656 -47.390625 40.921875 -45.078125 C 43.753906 -42.765625 45.171875 -39.03125 45.171875 -33.875 C 45.171875 -28.71875 43.753906 -24.984375 40.921875 -22.671875 C 38.097656 -20.367188 34.003906 -19.21875 28.640625 -19.21875 L 21.84375 -19.21875 L 21.84375 -10.234375 L 27.828125 -10.234375 L 27.828125 0 L 1.25 0 Z M 23.953125 -28.078125 C 26.367188 -28.078125 27.578125 -29.40625 27.578125 -32.0625 L 27.578125 -34.3125 C 27.578125 -35.6875 27.273438 -36.695312 26.671875 -37.34375 C 26.066406 -37.988281 25.160156 -38.3125 23.953125 -38.3125 L 21.84375 -38.3125 L 21.84375 -28.078125 Z M 23.953125 -28.078125 "/></g></g></g><g fill="#000000" fill-opacity="1"><g transform="translate(1421.600525, 858.580916)"><g><path d="M 24.578125 0.875 C 18.046875 0.875 13.003906 -0.554688 9.453125 -3.421875 C 5.898438 -6.296875 4.125 -10.957031 4.125 -17.40625 L 4.125 -38.3125 L 1 -38.3125 L 1 -48.546875 L 24.078125 -48.546875 L 24.078125 -38.3125 L 21.59375 -38.3125 L 21.59375 -14.21875 C 21.59375 -12.851562 21.890625 -11.847656 22.484375 -11.203125 C 23.085938 -10.554688 23.992188 -10.234375 25.203125 -10.234375 C 26.410156 -10.234375 27.316406 -10.554688 27.921875 -11.203125 C 28.523438 -11.847656 28.828125 -12.851562 28.828125 -14.21875 L 28.828125 -38.3125 L 26.328125 -38.3125 L 26.328125 -48.546875 L 47.734375 -48.546875 L 47.734375 -38.3125 L 44.609375 -38.3125 L 44.609375 -17.40625 C 44.609375 -10.957031 42.878906 -6.296875 39.421875 -3.421875 C 35.972656 -0.554688 31.023438 0.875 24.578125 0.875 Z M 24.578125 0.875 "/></g></g></g><g fill="#000000" fill-opacity="1"><g transform="translate(1470.325724, 858.580916)"><g><path d="M 1.25 -10.234375 L 4.375 -10.234375 L 4.375 -38.3125 L 1.25 -38.3125 L 1.25 -48.546875 L 29.890625 -48.546875 C 35.085938 -48.546875 39.140625 -47.484375 42.046875 -45.359375 C 44.960938 -43.234375 46.421875 -40.195312 46.421875 -36.25 C 46.421875 -33.789062 45.835938 -31.71875 44.671875 -30.03125 C 43.503906 -28.351562 42.140625 -27.085938 40.578125 -26.234375 C 39.023438 -25.378906 37.519531 -24.804688 36.0625 -24.515625 L 36.0625 -23.890625 C 39.007812 -23.597656 41.671875 -22.660156 44.046875 -21.078125 C 46.421875 -19.503906 47.609375 -16.679688 47.609375 -12.609375 C 47.609375 -8.234375 45.960938 -5.035156 42.671875 -3.015625 C 39.390625 -1.003906 35.128906 0 29.890625 0 L 1.25 0 Z M 25.203125 -28.078125 C 26.410156 -28.078125 27.316406 -28.398438 27.921875 -29.046875 C 28.523438 -29.691406 28.828125 -30.695312 28.828125 -32.0625 L 28.828125 -34.3125 C 28.828125 -35.6875 28.523438 -36.695312 27.921875 -37.34375 C 27.316406 -37.988281 26.410156 -38.3125 25.203125 -38.3125 L 21.84375 -38.3125 L 21.84375 -28.078125 Z M 25.640625 -10.234375 C 26.847656 -10.234375 27.753906 -10.554688 28.359375 -11.203125 C 28.960938 -11.847656 29.265625 -12.851562 29.265625 -14.21875 L 29.265625 -16.96875 C 29.265625 -18.34375 28.960938 -19.351562 28.359375 -20 C 27.753906 -20.644531 26.847656 -20.96875 25.640625 -20.96875 L 21.84375 -20.96875 L 21.84375 -10.234375 Z M 25.640625 -10.234375 "/></g></g></g><g fill="#000000" fill-opacity="1"><g transform="translate(1518.676597, 858.580916)"><g><path d="M 1.25 0 L 1.25 -10.234375 L 4.375 -10.234375 L 4.375 -38.3125 L 1.25 -38.3125 L 1.25 -48.546875 L 27.578125 -48.546875 L 27.578125 -38.3125 L 21.84375 -38.3125 L 21.84375 -10.234375 L 27.453125 -10.234375 L 27.453125 -15.96875 L 39.875 -15.96875 L 39.875 0 Z M 1.25 0 "/></g></g></g><g fill="#000000" fill-opacity="1"><g transform="translate(1559.416104, 858.580916)"><g><path d="M 1.25 0 L 1.25 -10.234375 L 4.375 -10.234375 L 4.375 -38.3125 L 1.25 -38.3125 L 1.25 -48.546875 L 24.953125 -48.546875 L 24.953125 -38.3125 L 21.84375 -38.3125 L 21.84375 -10.234375 L 24.953125 -10.234375 L 24.953125 0 Z M 1.25 0 "/></g></g></g><g fill="#000000" fill-opacity="1"><g transform="translate(1585.61916, 858.580916)"><g><path d="M 25.453125 0.875 C 17.585938 0.875 11.523438 -1.117188 7.265625 -5.109375 C 3.003906 -9.109375 0.875 -15.492188 0.875 -24.265625 C 0.875 -41.023438 9.023438 -49.40625 25.328125 -49.40625 C 29.273438 -49.40625 32.941406 -48.925781 36.328125 -47.96875 C 39.722656 -47.019531 42.253906 -45.960938 43.921875 -44.796875 L 43.921875 -29.203125 L 28.953125 -29.203125 L 28.953125 -33.6875 C 28.953125 -35.269531 28.597656 -36.4375 27.890625 -37.1875 C 27.179688 -37.9375 26.117188 -38.3125 24.703125 -38.3125 C 23.285156 -38.3125 22.222656 -37.9375 21.515625 -37.1875 C 20.816406 -36.4375 20.46875 -35.269531 20.46875 -33.6875 L 20.46875 -14.84375 C 20.46875 -13.269531 20.816406 -12.109375 21.515625 -11.359375 C 22.222656 -10.609375 23.285156 -10.234375 24.703125 -10.234375 C 26.117188 -10.234375 27.179688 -10.609375 27.890625 -11.359375 C 28.597656 -12.109375 28.953125 -13.269531 28.953125 -14.84375 L 28.953125 -19.90625 L 43.921875 -19.90625 L 43.921875 -3.75 C 42.210938 -2.582031 39.679688 -1.519531 36.328125 -0.5625 C 32.984375 0.394531 29.359375 0.875 25.453125 0.875 Z M 25.453125 0.875 "/></g></g></g><g fill="#000000" fill-opacity="1"><g transform="translate(1630.663446, 858.580916)"><g/></g></g><g fill="#000000" fill-opacity="1"><g transform="translate(1649.379906, 858.580916)"><g><path d="M 1.25 0 L 1.25 -10.234375 L 4.375 -10.234375 L 4.375 -38.3125 L 1.25 -38.3125 L 1.25 -48.546875 L 38.5625 -48.546875 L 38.5625 -32.375 L 27.515625 -32.375 L 27.515625 -38.3125 L 21.84375 -38.3125 L 21.84375 -27.953125 L 31.25 -27.953125 L 31.25 -20.84375 L 21.84375 -20.84375 L 21.84375 -10.234375 L 30.015625 -10.234375 L 30.015625 0 Z M 1.25 0 "/></g></g></g><g fill="#000000" fill-opacity="1"><g transform="translate(1688.809249, 858.580916)"><g><path d="M 1.25 -10.234375 L 4.375 -10.234375 L 4.375 -38.3125 L 1.25 -38.3125 L 1.25 -48.546875 L 29.890625 -48.546875 C 35.253906 -48.546875 39.347656 -47.441406 42.171875 -45.234375 C 45.003906 -43.023438 46.421875 -39.445312 46.421875 -34.5 C 46.421875 -31.71875 45.859375 -29.304688 44.734375 -27.265625 C 43.609375 -25.222656 42.007812 -23.804688 39.9375 -23.015625 L 40 -22.390625 C 43.988281 -21.773438 45.984375 -19.320312 45.984375 -15.03125 L 45.984375 -10.234375 L 48.921875 -10.234375 L 48.921875 0 L 29.140625 0 L 29.140625 -14.65625 C 29.140625 -16.28125 28.898438 -17.507812 28.421875 -18.34375 C 27.941406 -19.175781 27.191406 -19.738281 26.171875 -20.03125 C 25.148438 -20.320312 23.707031 -20.46875 21.84375 -20.46875 L 21.84375 -10.234375 L 25.953125 -10.234375 L 25.953125 0 L 1.25 0 Z M 25.203125 -28.078125 C 26.410156 -28.078125 27.316406 -28.398438 27.921875 -29.046875 C 28.523438 -29.691406 28.828125 -30.695312 28.828125 -32.0625 L 28.828125 -34.3125 C 28.828125 -35.6875 28.523438 -36.695312 27.921875 -37.34375 C 27.316406 -37.988281 26.410156 -38.3125 25.203125 -38.3125 L 21.84375 -38.3125 L 21.84375 -28.078125 Z M 25.203125 -28.078125 "/></g></g></g><g fill="#000000" fill-opacity="1"><g transform="translate(1738.719823, 858.580916)"><g><path d="M 1.25 0 L 1.25 -10.234375 L 4.375 -10.234375 L 4.375 -38.3125 L 1.25 -38.3125 L 1.25 -48.546875 L 43.359375 -48.546875 L 43.359375 -29.703125 L 29.390625 -29.703125 L 29.390625 -38.3125 L 21.84375 -38.3125 L 21.84375 -28.453125 L 27.328125 -28.453125 L 27.328125 -21.34375 L 21.84375 -21.34375 L 21.84375 -10.234375 L 29.390625 -10.234375 L 29.390625 -20.09375 L 43.359375 -20.09375 L 43.359375 0 Z M 1.25 0 "/></g></g></g><g fill="#000000" fill-opacity="1"><g transform="translate(1783.202608, 858.580916)"><g><path d="M 1.25 0 L 1.25 -10.234375 L 4.375 -10.234375 L 4.375 -38.3125 L 1.25 -38.3125 L 1.25 -48.546875 L 43.359375 -48.546875 L 43.359375 -29.703125 L 29.390625 -29.703125 L 29.390625 -38.3125 L 21.84375 -38.3125 L 21.84375 -28.453125 L 27.328125 -28.453125 L 27.328125 -21.34375 L 21.84375 -21.34375 L 21.84375 -10.234375 L 29.390625 -10.234375 L 29.390625 -20.09375 L 43.359375 -20.09375 L 43.359375 0 Z M 1.25 0 "/></g></g></g><g fill="#000000" fill-opacity="1"><g transform="translate(1827.685393, 858.580916)"><g/></g></g><g fill="#000000" fill-opacity="1"><g transform="translate(1846.401853, 858.580916)"><g><path d="M 70.0625 -38.3125 L 66.9375 -38.3125 L 66.9375 -10.234375 L 70.0625 -10.234375 L 70.0625 0 L 46.484375 0 L 46.484375 -10.234375 L 49.46875 -10.234375 L 49.46875 -32.0625 L 38.875 0 L 29.640625 0 L 18.71875 -31.75 L 18.71875 -10.234375 L 21.71875 -10.234375 L 21.71875 0 L 1.25 0 L 1.25 -10.234375 L 4.375 -10.234375 L 4.375 -38.3125 L 1.25 -38.3125 L 1.25 -48.546875 L 29.828125 -48.546875 L 36.3125 -29.078125 L 42.546875 -48.546875 L 70.0625 -48.546875 Z M 70.0625 -38.3125 "/></g></g></g><g fill="#000000" fill-opacity="1"><g transform="translate(1917.7116, 858.580916)"><g><path d="M 1.25 0 L 1.25 -10.234375 L 4.375 -10.234375 L 4.375 -38.3125 L 1.25 -38.3125 L 1.25 -48.546875 L 24.953125 -48.546875 L 24.953125 -38.3125 L 21.84375 -38.3125 L 21.84375 -10.234375 L 24.953125 -10.234375 L 24.953125 0 Z M 1.25 0 "/></g></g></g><g fill="#000000" fill-opacity="1"><g transform="translate(1943.914636, 858.580916)"><g><path d="M 37.1875 -48.546875 L 57.65625 -48.546875 L 57.65625 -38.3125 L 54.53125 -38.3125 L 54.53125 0 L 37 0 L 18.71875 -28.140625 L 18.71875 -10.234375 L 21.71875 -10.234375 L 21.71875 0 L 1.25 0 L 1.25 -10.234375 L 4.375 -10.234375 L 4.375 -38.3125 L 1.25 -38.3125 L 1.25 -48.546875 L 23.765625 -48.546875 L 40.171875 -23.515625 L 40.171875 -38.3125 L 37.1875 -38.3125 Z M 37.1875 -48.546875 "/></g></g></g><g fill="#000000" fill-opacity="1"><g transform="translate(2002.684325, 858.580916)"><g><path d="M 47.796875 -33.4375 L 37.0625 -33.4375 L 37.0625 -38.3125 L 33.0625 -38.3125 L 33.0625 -10.234375 L 37.4375 -10.234375 L 37.4375 0 L 11.234375 0 L 11.234375 -10.234375 L 15.59375 -10.234375 L 15.59375 -38.3125 L 11.609375 -38.3125 L 11.609375 -33.4375 L 0.875 -33.4375 L 0.875 -48.546875 L 47.796875 -48.546875 Z M 47.796875 -33.4375 "/></g></g></g><g fill="#000000" fill-opacity="1"><g transform="translate(1641.391256, 934.70455)"><g><path d="M 28.015625 -30.640625 C 32.628906 -30.640625 36.234375 -29.304688 38.828125 -26.640625 C 41.429688 -23.972656 42.734375 -20.269531 42.734375 -15.53125 C 42.734375 -10.25 40.992188 -6.191406 37.515625 -3.359375 C 34.046875 -0.535156 29.148438 0.875 22.828125 0.875 C 15.515625 0.875 10.066406 -1.109375 6.484375 -5.078125 C 2.910156 -9.054688 1.125 -15.140625 1.125 -23.328125 C 1.125 -32.316406 3.234375 -38.910156 7.453125 -43.109375 C 11.671875 -47.304688 17.484375 -49.40625 24.890625 -49.40625 C 27.929688 -49.40625 30.757812 -49.144531 33.375 -48.625 C 36 -48.113281 38.101562 -47.441406 39.6875 -46.609375 L 39.6875 -34 C 38.101562 -34.707031 36.289062 -35.28125 34.25 -35.71875 C 32.207031 -36.15625 30.046875 -36.375 27.765625 -36.375 C 21.816406 -36.375 18.84375 -34.171875 18.84375 -29.765625 L 18.84375 -29.015625 C 20.132812 -29.472656 21.585938 -29.859375 23.203125 -30.171875 C 24.828125 -30.484375 26.429688 -30.640625 28.015625 -30.640625 Z M 23.078125 -10.234375 C 24.492188 -10.234375 25.554688 -10.660156 26.265625 -11.515625 C 26.972656 -12.367188 27.328125 -13.707031 27.328125 -15.53125 C 27.328125 -17.195312 26.960938 -18.5 26.234375 -19.4375 C 25.503906 -20.375 24.390625 -20.84375 22.890625 -20.84375 C 21.484375 -20.84375 20.132812 -20.570312 18.84375 -20.03125 L 18.84375 -15.03125 C 18.84375 -13.375 19.195312 -12.160156 19.90625 -11.390625 C 20.613281 -10.617188 21.671875 -10.234375 23.078125 -10.234375 Z M 23.078125 -10.234375 "/></g></g></g><g fill="#000000" fill-opacity="1"><g transform="translate(1684.626292, 934.70455)"><g><path d="M 22.828125 0.875 C 15.804688 0.875 10.390625 -1.117188 6.578125 -5.109375 C 2.773438 -9.109375 0.875 -15.492188 0.875 -24.265625 C 0.875 -33.046875 2.773438 -39.429688 6.578125 -43.421875 C 10.390625 -47.410156 15.804688 -49.40625 22.828125 -49.40625 C 29.859375 -49.40625 35.273438 -47.410156 39.078125 -43.421875 C 42.890625 -39.429688 44.796875 -33.046875 44.796875 -24.265625 C 44.796875 -16.160156 43.035156 -9.941406 39.515625 -5.609375 C 36.003906 -1.285156 30.441406 0.875 22.828125 0.875 Z M 22.828125 -10.234375 C 25.660156 -10.234375 27.078125 -11.769531 27.078125 -14.84375 L 27.078125 -33.6875 C 27.078125 -36.769531 25.660156 -38.3125 22.828125 -38.3125 C 20.003906 -38.3125 18.59375 -36.769531 18.59375 -33.6875 L 18.59375 -14.84375 C 18.59375 -11.769531 20.003906 -10.234375 22.828125 -10.234375 Z M 22.828125 -10.234375 "/></g></g></g><g fill="#000000" fill-opacity="1"><g transform="translate(1730.294472, 934.70455)"><g><path d="M 12.046875 -24.078125 C 5.265625 -24.078125 1.875 -28.238281 1.875 -36.5625 C 1.875 -40.96875 2.742188 -44.164062 4.484375 -46.15625 C 6.234375 -48.15625 8.753906 -49.15625 12.046875 -49.15625 C 18.867188 -49.15625 22.28125 -44.957031 22.28125 -36.5625 C 22.28125 -32.53125 21.46875 -29.441406 19.84375 -27.296875 C 18.21875 -25.148438 15.617188 -24.078125 12.046875 -24.078125 Z M 12.046875 -29.515625 C 13.253906 -29.515625 13.859375 -30.28125 13.859375 -31.8125 L 13.859375 -41.484375 C 13.859375 -42.984375 13.253906 -43.734375 12.046875 -43.734375 C 10.878906 -43.734375 10.296875 -42.984375 10.296875 -41.484375 L 10.296875 -31.8125 C 10.296875 -30.28125 10.878906 -29.515625 12.046875 -29.515625 Z M 9.921875 0 L 9.921875 -2 L 38.9375 -48.546875 L 45.296875 -48.546875 L 45.296875 -46.546875 L 16.34375 0 Z M 43.109375 0.625 C 36.328125 0.625 32.9375 -3.535156 32.9375 -11.859375 C 32.9375 -16.265625 33.804688 -19.460938 35.546875 -21.453125 C 37.296875 -23.453125 39.816406 -24.453125 43.109375 -24.453125 C 49.929688 -24.453125 53.34375 -20.253906 53.34375 -11.859375 C 53.34375 -7.816406 52.53125 -4.722656 50.90625 -2.578125 C 49.28125 -0.441406 46.679688 0.625 43.109375 0.625 Z M 43.109375 -4.796875 C 44.316406 -4.796875 44.921875 -5.566406 44.921875 -7.109375 L 44.921875 -16.78125 C 44.921875 -18.28125 44.316406 -19.03125 43.109375 -19.03125 C 41.941406 -19.03125 41.359375 -18.28125 41.359375 -16.78125 L 41.359375 -7.109375 C 41.359375 -5.566406 41.941406 -4.796875 43.109375 -4.796875 Z M 43.109375 -4.796875 "/></g></g></g><g fill="#000000" fill-opacity="1"><g transform="translate(254.695873, 624.656917)"><g><path d="M 47.046875 -10.234375 L 49.53125 -10.234375 L 49.53125 0 L 25.078125 0 L 25.078125 -10.234375 L 28.828125 -10.234375 L 27.828125 -15.21875 L 19.34375 -15.21875 L 18.34375 -10.234375 L 22.09375 -10.234375 L 22.09375 0 L 0.75 0 L 0.75 -10.234375 L 3.25 -10.234375 L 13.78125 -48.546875 L 36.5 -48.546875 Z M 20.71875 -21.84375 L 26.453125 -21.84375 L 23.890625 -34.25 L 23.265625 -34.25 Z M 20.71875 -21.84375 "/></g></g></g><g fill="#000000" fill-opacity="1"><g transform="translate(304.980774, 624.656917)"><g><path d="M 1.25 0 L 1.25 -10.234375 L 4.375 -10.234375 L 4.375 -38.3125 L 1.25 -38.3125 L 1.25 -48.546875 L 24.953125 -48.546875 L 24.953125 -38.3125 L 21.84375 -38.3125 L 21.84375 -10.234375 L 24.953125 -10.234375 L 24.953125 0 Z M 1.25 0 "/></g></g></g><g fill="#000000" fill-opacity="1"><g transform="translate(331.18383, 624.656917)"><g><path d="M 1.25 -10.234375 L 4.375 -10.234375 L 4.375 -38.3125 L 1.25 -38.3125 L 1.25 -48.546875 L 29.890625 -48.546875 C 35.253906 -48.546875 39.347656 -47.441406 42.171875 -45.234375 C 45.003906 -43.023438 46.421875 -39.445312 46.421875 -34.5 C 46.421875 -31.71875 45.859375 -29.304688 44.734375 -27.265625 C 43.609375 -25.222656 42.007812 -23.804688 39.9375 -23.015625 L 40 -22.390625 C 43.988281 -21.773438 45.984375 -19.320312 45.984375 -15.03125 L 45.984375 -10.234375 L 48.921875 -10.234375 L 48.921875 0 L 29.140625 0 L 29.140625 -14.65625 C 29.140625 -16.28125 28.898438 -17.507812 28.421875 -18.34375 C 27.941406 -19.175781 27.191406 -19.738281 26.171875 -20.03125 C 25.148438 -20.320312 23.707031 -20.46875 21.84375 -20.46875 L 21.84375 -10.234375 L 25.953125 -10.234375 L 25.953125 0 L 1.25 0 Z M 25.203125 -28.078125 C 26.410156 -28.078125 27.316406 -28.398438 27.921875 -29.046875 C 28.523438 -29.691406 28.828125 -30.695312 28.828125 -32.0625 L 28.828125 -34.3125 C 28.828125 -35.6875 28.523438 -36.695312 27.921875 -37.34375 C 27.316406 -37.988281 26.410156 -38.3125 25.203125 -38.3125 L 21.84375 -38.3125 L 21.84375 -28.078125 Z M 25.203125 -28.078125 "/></g></g></g><g fill="#000000" fill-opacity="1"><g transform="translate(381.094404, 624.656917)"><g><path d="M 1.25 -10.234375 L 4.375 -10.234375 L 4.375 -38.25 L 1.25 -38.25 L 1.25 -48.546875 L 26.578125 -48.546875 C 33.523438 -48.546875 39.046875 -46.640625 43.140625 -42.828125 C 47.234375 -39.023438 49.28125 -32.835938 49.28125 -24.265625 C 49.28125 -15.703125 47.234375 -9.515625 43.140625 -5.703125 C 39.046875 -1.898438 33.523438 0 26.578125 0 L 1.25 0 Z M 25.453125 -10.234375 C 26.867188 -10.234375 27.929688 -10.609375 28.640625 -11.359375 C 29.347656 -12.109375 29.703125 -13.269531 29.703125 -14.84375 L 29.703125 -33.6875 C 29.703125 -36.769531 28.285156 -38.3125 25.453125 -38.3125 L 21.84375 -38.3125 L 21.84375 -10.234375 Z M 25.453125 -10.234375 "/></g></g></g><g fill="#000000" fill-opacity="1"><g transform="translate(431.254536, 624.656917)"><g><path d="M 1.25 -10.234375 L 4.375 -10.234375 L 4.375 -38.3125 L 1.25 -38.3125 L 1.25 -48.546875 L 29.890625 -48.546875 C 35.253906 -48.546875 39.347656 -47.441406 42.171875 -45.234375 C 45.003906 -43.023438 46.421875 -39.445312 46.421875 -34.5 C 46.421875 -31.71875 45.859375 -29.304688 44.734375 -27.265625 C 43.609375 -25.222656 42.007812 -23.804688 39.9375 -23.015625 L 40 -22.390625 C 43.988281 -21.773438 45.984375 -19.320312 45.984375 -15.03125 L 45.984375 -10.234375 L 48.921875 -10.234375 L 48.921875 0 L 29.140625 0 L 29.140625 -14.65625 C 29.140625 -16.28125 28.898438 -17.507812 28.421875 -18.34375 C 27.941406 -19.175781 27.191406 -19.738281 26.171875 -20.03125 C 25.148438 -20.320312 23.707031 -20.46875 21.84375 -20.46875 L 21.84375 -10.234375 L 25.953125 -10.234375 L 25.953125 0 L 1.25 0 Z M 25.203125 -28.078125 C 26.410156 -28.078125 27.316406 -28.398438 27.921875 -29.046875 C 28.523438 -29.691406 28.828125 -30.695312 28.828125 -32.0625 L 28.828125 -34.3125 C 28.828125 -35.6875 28.523438 -36.695312 27.921875 -37.34375 C 27.316406 -37.988281 26.410156 -38.3125 25.203125 -38.3125 L 21.84375 -38.3125 L 21.84375 -28.078125 Z M 25.203125 -28.078125 "/></g></g></g><g fill="#000000" fill-opacity="1"><g transform="translate(481.16511, 624.656917)"><g><path d="M 24.703125 0.875 C 17.097656 0.875 11.222656 -1.117188 7.078125 -5.109375 C 2.941406 -9.109375 0.875 -15.492188 0.875 -24.265625 C 0.875 -33.046875 2.941406 -39.429688 7.078125 -43.421875 C 11.222656 -47.410156 17.097656 -49.40625 24.703125 -49.40625 C 32.316406 -49.40625 38.191406 -47.410156 42.328125 -43.421875 C 46.472656 -39.429688 48.546875 -33.046875 48.546875 -24.265625 C 48.546875 -15.492188 46.472656 -9.109375 42.328125 -5.109375 C 38.191406 -1.117188 32.316406 0.875 24.703125 0.875 Z M 24.703125 -10.234375 C 26.117188 -10.234375 27.179688 -10.609375 27.890625 -11.359375 C 28.597656 -12.109375 28.953125 -13.269531 28.953125 -14.84375 L 28.953125 -33.6875 C 28.953125 -35.269531 28.597656 -36.4375 27.890625 -37.1875 C 27.179688 -37.9375 26.117188 -38.3125 24.703125 -38.3125 C 23.285156 -38.3125 22.222656 -37.9375 21.515625 -37.1875 C 20.816406 -36.4375 20.46875 -35.269531 20.46875 -33.6875 L 20.46875 -14.84375 C 20.46875 -13.226562 20.816406 -12.054688 21.515625 -11.328125 C 22.222656 -10.597656 23.285156 -10.234375 24.703125 -10.234375 Z M 24.703125 -10.234375 "/></g></g></g><g fill="#000000" fill-opacity="1"><g transform="translate(530.576589, 624.656917)"><g><path d="M 1.25 -10.234375 L 4.375 -10.234375 L 4.375 -38.3125 L 1.25 -38.3125 L 1.25 -48.546875 L 28.640625 -48.546875 C 34.003906 -48.546875 38.097656 -47.390625 40.921875 -45.078125 C 43.753906 -42.765625 45.171875 -39.03125 45.171875 -33.875 C 45.171875 -28.71875 43.753906 -24.984375 40.921875 -22.671875 C 38.097656 -20.367188 34.003906 -19.21875 28.640625 -19.21875 L 21.84375 -19.21875 L 21.84375 -10.234375 L 27.828125 -10.234375 L 27.828125 0 L 1.25 0 Z M 23.953125 -28.078125 C 26.367188 -28.078125 27.578125 -29.40625 27.578125 -32.0625 L 27.578125 -34.3125 C 27.578125 -35.6875 27.273438 -36.695312 26.671875 -37.34375 C 26.066406 -37.988281 25.160156 -38.3125 23.953125 -38.3125 L 21.84375 -38.3125 L 21.84375 -28.078125 Z M 23.953125 -28.078125 "/></g></g></g><g fill="#000000" fill-opacity="1"><g transform="translate(345.785507, 700.770035)"><g><path d="M 30.328125 -24.765625 C 31.609375 -24.429688 32.84375 -23.753906 34.03125 -22.734375 C 35.21875 -21.722656 36.195312 -20.445312 36.96875 -18.90625 C 37.738281 -17.363281 38.125 -15.65625 38.125 -13.78125 C 38.125 -9.207031 36.488281 -5.617188 33.21875 -3.015625 C 29.957031 -0.421875 25.125 0.875 18.71875 0.875 C 15.675781 0.875 12.632812 0.53125 9.59375 -0.15625 C 6.5625 -0.84375 3.863281 -1.6875 1.5 -2.6875 L 1.5 -15.96875 C 4.070312 -14.84375 6.738281 -13.925781 9.5 -13.21875 C 12.269531 -12.519531 14.90625 -12.171875 17.40625 -12.171875 C 19.15625 -12.171875 20.429688 -12.4375 21.234375 -12.96875 C 22.046875 -13.507812 22.453125 -14.40625 22.453125 -15.65625 C 22.453125 -18.070312 21 -19.28125 18.09375 -19.28125 L 13.59375 -19.28125 L 13.59375 -29.515625 L 17.09375 -29.515625 C 19.84375 -29.515625 21.21875 -30.675781 21.21875 -33 C 21.21875 -35.25 19.84375 -36.375 17.09375 -36.375 C 15.09375 -36.375 13.007812 -35.90625 10.84375 -34.96875 C 8.6875 -34.03125 6.585938 -32.8125 4.546875 -31.3125 L 0.875 -44.609375 C 3.40625 -45.941406 6.289062 -47.070312 9.53125 -48 C 12.78125 -48.9375 16.050781 -49.40625 19.34375 -49.40625 C 25.082031 -49.40625 29.488281 -48.195312 32.5625 -45.78125 C 35.644531 -43.375 37.1875 -39.96875 37.1875 -35.5625 C 37.1875 -32.8125 36.539062 -30.550781 35.25 -28.78125 C 33.957031 -27.019531 32.316406 -25.679688 30.328125 -24.765625 Z M 30.328125 -24.765625 "/></g></g></g><g fill="#000000" fill-opacity="1"><g transform="translate(384.653371, 700.770035)"><g><path d="M 22.828125 0.875 C 15.804688 0.875 10.390625 -1.117188 6.578125 -5.109375 C 2.773438 -9.109375 0.875 -15.492188 0.875 -24.265625 C 0.875 -33.046875 2.773438 -39.429688 6.578125 -43.421875 C 10.390625 -47.410156 15.804688 -49.40625 22.828125 -49.40625 C 29.859375 -49.40625 35.273438 -47.410156 39.078125 -43.421875 C 42.890625 -39.429688 44.796875 -33.046875 44.796875 -24.265625 C 44.796875 -16.160156 43.035156 -9.941406 39.515625 -5.609375 C 36.003906 -1.285156 30.441406 0.875 22.828125 0.875 Z M 22.828125 -10.234375 C 25.660156 -10.234375 27.078125 -11.769531 27.078125 -14.84375 L 27.078125 -33.6875 C 27.078125 -36.769531 25.660156 -38.3125 22.828125 -38.3125 C 20.003906 -38.3125 18.59375 -36.769531 18.59375 -33.6875 L 18.59375 -14.84375 C 18.59375 -11.769531 20.003906 -10.234375 22.828125 -10.234375 Z M 22.828125 -10.234375 "/></g></g></g><g fill="#000000" fill-opacity="1"><g transform="translate(430.321551, 700.770035)"><g><path d="M 12.046875 -24.078125 C 5.265625 -24.078125 1.875 -28.238281 1.875 -36.5625 C 1.875 -40.96875 2.742188 -44.164062 4.484375 -46.15625 C 6.234375 -48.15625 8.753906 -49.15625 12.046875 -49.15625 C 18.867188 -49.15625 22.28125 -44.957031 22.28125 -36.5625 C 22.28125 -32.53125 21.46875 -29.441406 19.84375 -27.296875 C 18.21875 -25.148438 15.617188 -24.078125 12.046875 -24.078125 Z M 12.046875 -29.515625 C 13.253906 -29.515625 13.859375 -30.28125 13.859375 -31.8125 L 13.859375 -41.484375 C 13.859375 -42.984375 13.253906 -43.734375 12.046875 -43.734375 C 10.878906 -43.734375 10.296875 -42.984375 10.296875 -41.484375 L 10.296875 -31.8125 C 10.296875 -30.28125 10.878906 -29.515625 12.046875 -29.515625 Z M 9.921875 0 L 9.921875 -2 L 38.9375 -48.546875 L 45.296875 -48.546875 L 45.296875 -46.546875 L 16.34375 0 Z M 43.109375 0.625 C 36.328125 0.625 32.9375 -3.535156 32.9375 -11.859375 C 32.9375 -16.265625 33.804688 -19.460938 35.546875 -21.453125 C 37.296875 -23.453125 39.816406 -24.453125 43.109375 -24.453125 C 49.929688 -24.453125 53.34375 -20.253906 53.34375 -11.859375 C 53.34375 -7.816406 52.53125 -4.722656 50.90625 -2.578125 C 49.28125 -0.441406 46.679688 0.625 43.109375 0.625 Z M 43.109375 -4.796875 C 44.316406 -4.796875 44.921875 -5.566406 44.921875 -7.109375 L 44.921875 -16.78125 C 44.921875 -18.28125 44.316406 -19.03125 43.109375 -19.03125 C 41.941406 -19.03125 41.359375 -18.28125 41.359375 -16.78125 L 41.359375 -7.109375 C 41.359375 -5.566406 41.941406 -4.796875 43.109375 -4.796875 Z M 43.109375 -4.796875 "/></g></g></g><g clip-path="url(#fb39f688e8)"><g fill="#000000" fill-opacity="1"><g transform="translate(730.894535, 147.97446)"><g><path d="M 47.796875 -33.4375 L 37.0625 -33.4375 L 37.0625 -38.3125 L 33.0625 -38.3125 L 33.0625 -10.234375 L 37.4375 -10.234375 L 37.4375 0 L 11.234375 0 L 11.234375 -10.234375 L 15.59375 -10.234375 L 15.59375 -38.3125 L 11.609375 -38.3125 L 11.609375 -33.4375 L 0.875 -33.4375 L 0.875 -48.546875 L 47.796875 -48.546875 Z M 47.796875 -33.4375 "/></g></g></g></g><g clip-path="url(#8458f8ceb3)"><g fill="#000000" fill-opacity="1"><g transform="translate(779.55735, 147.97446)"><g><path d="M 1.25 0 L 1.25 -10.234375 L 4.375 -10.234375 L 4.375 -38.3125 L 1.25 -38.3125 L 1.25 -48.546875 L 43.359375 -48.546875 L 43.359375 -29.703125 L 29.390625 -29.703125 L 29.390625 -38.3125 L 21.84375 -38.3125 L 21.84375 -28.453125 L 27.328125 -28.453125 L 27.328125 -21.34375 L 21.84375 -21.34375 L 21.84375 -10.234375 L 29.390625 -10.234375 L 29.390625 -20.09375 L 43.359375 -20.09375 L 43.359375 0 Z M 1.25 0 "/></g></g></g></g><g clip-path="url(#468f85fa3d)"><g fill="#000000" fill-opacity="1"><g transform="translate(824.040145, 147.97446)"><g><path d="M 47.046875 -10.234375 L 49.53125 -10.234375 L 49.53125 0 L 25.078125 0 L 25.078125 -10.234375 L 28.828125 -10.234375 L 27.828125 -15.21875 L 19.34375 -15.21875 L 18.34375 -10.234375 L 22.09375 -10.234375 L 22.09375 0 L 0.75 0 L 0.75 -10.234375 L 3.25 -10.234375 L 13.78125 -48.546875 L 36.5 -48.546875 Z M 20.71875 -21.84375 L 26.453125 -21.84375 L 23.890625 -34.25 L 23.265625 -34.25 Z M 20.71875 -21.84375 "/></g></g></g></g><g clip-path="url(#61f4c44747)"><g fill="#000000" fill-opacity="1"><g transform="translate(874.325046, 147.97446)"><g><path d="M 70.0625 -38.3125 L 66.9375 -38.3125 L 66.9375 -10.234375 L 70.0625 -10.234375 L 70.0625 0 L 46.484375 0 L 46.484375 -10.234375 L 49.46875 -10.234375 L 49.46875 -32.0625 L 38.875 0 L 29.640625 0 L 18.71875 -31.75 L 18.71875 -10.234375 L 21.71875 -10.234375 L 21.71875 0 L 1.25 0 L 1.25 -10.234375 L 4.375 -10.234375 L 4.375 -38.3125 L 1.25 -38.3125 L 1.25 -48.546875 L 29.828125 -48.546875 L 36.3125 -29.078125 L 42.546875 -48.546875 L 70.0625 -48.546875 Z M 70.0625 -38.3125 "/></g></g></g></g><g fill="#000000" fill-opacity="1"><g transform="translate(771.533071, 223.088441)"><g><path d="M 2.75 0 L 2.75 -10.234375 L 8.734375 -10.234375 L 8.734375 -38.3125 L 0.875 -38.3125 L 0.875 -45.359375 L 14.71875 -48.546875 L 25.203125 -48.546875 L 25.203125 -10.234375 L 30.453125 -10.234375 L 30.453125 0 Z M 2.75 0 "/></g></g></g><g fill="#000000" fill-opacity="1"><g transform="translate(804.099723, 223.088441)"><g><path d="M 22.828125 0.875 C 15.804688 0.875 10.390625 -1.117188 6.578125 -5.109375 C 2.773438 -9.109375 0.875 -15.492188 0.875 -24.265625 C 0.875 -33.046875 2.773438 -39.429688 6.578125 -43.421875 C 10.390625 -47.410156 15.804688 -49.40625 22.828125 -49.40625 C 29.859375 -49.40625 35.273438 -47.410156 39.078125 -43.421875 C 42.890625 -39.429688 44.796875 -33.046875 44.796875 -24.265625 C 44.796875 -16.160156 43.035156 -9.941406 39.515625 -5.609375 C 36.003906 -1.285156 30.441406 0.875 22.828125 0.875 Z M 22.828125 -10.234375 C 25.660156 -10.234375 27.078125 -11.769531 27.078125 -14.84375 L 27.078125 -33.6875 C 27.078125 -36.769531 25.660156 -38.3125 22.828125 -38.3125 C 20.003906 -38.3125 18.59375 -36.769531 18.59375 -33.6875 L 18.59375 -14.84375 C 18.59375 -11.769531 20.003906 -10.234375 22.828125 -10.234375 Z M 22.828125 -10.234375 "/></g></g></g><g fill="#000000" fill-opacity="1"><g transform="translate(849.767904, 223.088441)"><g><path d="M 12.046875 -24.078125 C 5.265625 -24.078125 1.875 -28.238281 1.875 -36.5625 C 1.875 -40.96875 2.742188 -44.164062 4.484375 -46.15625 C 6.234375 -48.15625 8.753906 -49.15625 12.046875 -49.15625 C 18.867188 -49.15625 22.28125 -44.957031 22.28125 -36.5625 C 22.28125 -32.53125 21.46875 -29.441406 19.84375 -27.296875 C 18.21875 -25.148438 15.617188 -24.078125 12.046875 -24.078125 Z M 12.046875 -29.515625 C 13.253906 -29.515625 13.859375 -30.28125 13.859375 -31.8125 L 13.859375 -41.484375 C 13.859375 -42.984375 13.253906 -43.734375 12.046875 -43.734375 C 10.878906 -43.734375 10.296875 -42.984375 10.296875 -41.484375 L 10.296875 -31.8125 C 10.296875 -30.28125 10.878906 -29.515625 12.046875 -29.515625 Z M 9.921875 0 L 9.921875 -2 L 38.9375 -48.546875 L 45.296875 -48.546875 L 45.296875 -46.546875 L 16.34375 0 Z M 43.109375 0.625 C 36.328125 0.625 32.9375 -3.535156 32.9375 -11.859375 C 32.9375 -16.265625 33.804688 -19.460938 35.546875 -21.453125 C 37.296875 -23.453125 39.816406 -24.453125 43.109375 -24.453125 C 49.929688 -24.453125 53.34375 -20.253906 53.34375 -11.859375 C 53.34375 -7.816406 52.53125 -4.722656 50.90625 -2.578125 C 49.28125 -0.441406 46.679688 0.625 43.109375 0.625 Z M 43.109375 -4.796875 C 44.316406 -4.796875 44.921875 -5.566406 44.921875 -7.109375 L 44.921875 -16.78125 C 44.921875 -18.28125 44.316406 -19.03125 43.109375 -19.03125 C 41.941406 -19.03125 41.359375 -18.28125 41.359375 -16.78125 L 41.359375 -7.109375 C 41.359375 -5.566406 41.941406 -4.796875 43.109375 -4.796875 Z M 43.109375 -4.796875 "/></g></g></g></svg>