<svg xmlns="http://www.w3.org/2000/svg" xmlns:xlink="http://www.w3.org/1999/xlink" zoomAndPan="magnify" preserveAspectRatio="xMidYMid meet" version="1.0" viewBox="911.29 367.2 361.5 489.75"><defs><clipPath id="73337e36b3"><path d="M 911.292969 367.199219 L 1272.792969 367.199219 L 1272.792969 856.949219 L 911.292969 856.949219 Z M 911.292969 367.199219 " clip-rule="nonzero"/></clipPath></defs><g clip-path="url(#73337e36b3)"><path fill="#000000" d="M 1254.679688 565.746094 L 1229.703125 565.746094 L 1229.703125 505.015625 C 1229.800781 429.007812 1168 367.199219 1091.992188 367.199219 C 1015.988281 367.199219 954.1875 429.007812 954.1875 505.015625 L 954.1875 565.746094 L 929.308594 565.746094 C 919.414062 565.746094 911.382812 573.777344 911.382812 583.667969 L 911.382812 839.121094 C 911.382812 848.917969 919.414062 856.949219 929.308594 856.949219 L 1254.777344 856.949219 C 1264.671875 856.949219 1272.703125 848.917969 1272.703125 839.023438 L 1272.703125 583.667969 C 1272.605469 573.777344 1264.574219 565.746094 1254.679688 565.746094 Z M 990.035156 505.015625 C 990.035156 448.792969 1035.773438 403.050781 1091.992188 403.050781 C 1148.214844 403.050781 1193.953125 448.792969 1193.953125 505.015625 L 1193.953125 565.746094 L 990.035156 565.746094 Z M 1109.917969 724.226562 L 1109.917969 771.339844 C 1109.917969 781.234375 1101.886719 789.265625 1091.992188 789.265625 C 1082.101562 789.265625 1074.070312 781.234375 1074.070312 771.339844 L 1074.070312 724.226562 C 1061.730469 717.761719 1053.304688 704.832031 1053.304688 690.042969 C 1053.304688 668.691406 1070.640625 651.449219 1091.894531 651.449219 C 1113.25 651.449219 1130.488281 668.789062 1130.488281 690.042969 C 1130.683594 704.832031 1122.257812 717.761719 1109.917969 724.226562 Z M 1109.917969 724.226562 " fill-opacity="1" fill-rule="nonzero"/></g></svg>