<svg xmlns="http://www.w3.org/2000/svg" xmlns:xlink="http://www.w3.org/1999/xlink" zoomAndPan="magnify" preserveAspectRatio="xMidYMid meet" version="1.0" viewBox="837.66 367.2 508.5 489.75"><defs><clipPath id="c6608bf164"><path d="M 837.664062 367.199219 L 1346.164062 367.199219 L 1346.164062 856.949219 L 837.664062 856.949219 Z M 837.664062 367.199219 " clip-rule="nonzero"/></clipPath></defs><g clip-path="url(#c6608bf164)"><path fill="#000000" d="M 894.253906 367.199219 C 871.007812 367.199219 854.6875 381.21875 846.996094 396.835938 C 839.304688 412.453125 837.78125 429.519531 837.78125 442.066406 C 837.78125 482.054688 864.519531 514.347656 895.234375 542.472656 C 922.886719 567.796875 954.898438 590.507812 978.375 612.074219 C 980.683594 628.320312 982.933594 645.199219 985.238281 663.546875 C 986.949219 677.132812 1029.011719 684.902344 1038.773438 694.742188 L 1041.910156 694.742188 L 1060.539062 717.746094 L 1060.539062 740.363281 L 1041.910156 763.367188 L 1016.613281 763.367188 L 1016.613281 831.996094 L 985.238281 831.996094 L 985.238281 856.949219 L 1198.585938 856.949219 L 1198.585938 831.996094 L 1167.210938 831.996094 L 1167.210938 763.367188 L 1141.914062 763.367188 L 1123.285156 740.363281 L 1123.285156 717.746094 L 1141.914062 694.742188 L 1145.050781 694.742188 C 1154.878906 684.835938 1190.589844 677.226562 1192.308594 663.546875 C 1194.3125 647.617188 1196.507812 632.8125 1198.78125 618.507812 C 1222.589844 595.0625 1258.203125 570.300781 1288.589844 542.472656 C 1319.304688 514.347656 1346.042969 482.050781 1346.042969 442.066406 C 1346.042969 429.519531 1344.519531 412.453125 1336.828125 396.835938 C 1329.136719 381.21875 1312.816406 367.199219 1289.570312 367.199219 C 1275.976562 367.199219 1264.984375 374.9375 1258.195312 383.773438 C 1251.40625 392.609375 1247.15625 402.617188 1242.902344 411.847656 C 1239.710938 418.769531 1236.433594 425.058594 1233.097656 429.980469 C 1234.207031 422.660156 1235.203125 415.457031 1236.234375 407.753906 L 947.589844 407.753906 C 948.625 415.464844 949.695312 422.65625 950.726562 429.980469 C 947.394531 425.058594 944.113281 418.769531 940.921875 411.847656 C 936.667969 402.617188 932.417969 392.609375 925.628906 383.773438 C 918.839844 374.9375 907.847656 367.199219 894.253906 367.199219 Z M 894.253906 392.15625 C 899.484375 392.15625 901.828125 393.582031 905.824219 398.785156 C 909.820312 403.988281 913.804688 412.691406 918.175781 422.179688 C 922.550781 431.667969 927.21875 442.144531 935.039062 451.035156 C 940.238281 456.941406 947.378906 461.914062 955.824219 464.683594 C 961.496094 502.304688 967.023438 537.171875 972.691406 574.449219 C 952.476562 557.835938 930.871094 541.339844 912.097656 524.148438 C 883.199219 497.683594 862.878906 470.707031 862.878906 442.066406 C 862.878906 431.792969 864.492188 417.625 869.351562 407.753906 C 874.210938 397.882812 879.851562 392.15625 894.253906 392.15625 Z M 1289.570312 392.15625 C 1303.972656 392.15625 1309.613281 397.882812 1314.472656 407.753906 C 1319.332031 417.625 1320.945312 431.792969 1320.945312 442.066406 C 1320.945312 470.707031 1300.625 497.683594 1271.726562 524.148438 C 1251.253906 542.894531 1227.332031 560.78125 1205.644531 578.929688 C 1212.804688 539.894531 1220.316406 504.167969 1227.214844 465.074219 C 1236.015625 462.371094 1243.421875 457.128906 1248.785156 451.035156 C 1256.609375 442.144531 1261.273438 431.667969 1265.648438 422.179688 C 1270.023438 412.691406 1274.003906 403.984375 1278 398.785156 C 1281.996094 393.582031 1284.339844 392.15625 1289.570312 392.15625 Z M 1074.066406 694.742188 L 1109.757812 694.742188 L 1100.933594 705.660156 C 1100.042969 706.765625 1099.363281 707.988281 1098.890625 709.328125 C 1098.421875 710.664062 1098.1875 712.039062 1098.1875 713.457031 L 1098.1875 744.652344 C 1098.1875 746.070312 1098.421875 747.445312 1098.890625 748.785156 C 1099.363281 750.121094 1100.042969 751.34375 1100.933594 752.449219 L 1109.757812 763.367188 L 1074.066406 763.367188 L 1082.890625 752.449219 C 1083.78125 751.34375 1084.460938 750.121094 1084.933594 748.785156 C 1085.402344 747.445312 1085.636719 746.070312 1085.636719 744.652344 L 1085.636719 713.457031 C 1085.636719 712.039062 1085.402344 710.664062 1084.933594 709.324219 C 1084.460938 707.988281 1083.78125 706.765625 1082.890625 705.660156 Z M 1074.066406 694.742188 " fill-opacity="1" fill-rule="nonzero"/></g></svg>