<svg xmlns="http://www.w3.org/2000/svg" xmlns:xlink="http://www.w3.org/1999/xlink" zoomAndPan="magnify" preserveAspectRatio="xMidYMid meet" version="1.0" viewBox="307.2 202.24 408.8 171.67"><defs><clipPath id="bf9ce2ab90"><path d="M 307.199219 202.238281 L 716 202.238281 L 716 373.90625 L 307.199219 373.90625 Z M 307.199219 202.238281 " clip-rule="nonzero"/></clipPath></defs><g clip-path="url(#bf9ce2ab90)"><path fill="#000000" d="M 319.851562 373.3125 C 308.875 372.25 307.199219 370.394531 307.199219 359.300781 C 307.199219 340.015625 311.632812 320.085938 319.5625 303.710938 C 323.527344 295.527344 327.011719 290.300781 335.910156 279.1875 C 340.066406 273.996094 341.25 271.878906 341.25 269.648438 C 341.25 267.554688 343.023438 265.75 345.070312 265.75 C 346.089844 265.75 346.519531 265.566406 346.519531 265.140625 C 346.519531 264.804688 346.691406 264.53125 346.902344 264.53125 C 347.113281 264.53125 347.765625 263.457031 348.355469 262.144531 C 350.394531 257.59375 351.019531 257.203125 369.222656 249.117188 C 383.796875 242.640625 382.761719 243.171875 385.269531 240.875 L 387.460938 238.871094 L 387.46875 236.167969 C 387.472656 234.683594 387.746094 232.191406 388.078125 230.628906 C 388.871094 226.882812 388.871094 226.890625 387.453125 226.15625 C 385.078125 224.925781 380.617188 220.199219 376.914062 214.984375 C 373.085938 209.59375 372.792969 209.320312 366.652344 205.496094 C 365.574219 204.824219 365.546875 204.738281 366.171875 204.042969 C 367.109375 203.007812 369.910156 202.375 371.738281 202.789062 C 373.5 203.1875 374.433594 203.757812 378.976562 207.214844 C 384.988281 211.789062 388.339844 212.964844 395.367188 212.964844 C 399.570312 212.964844 399.757812 212.925781 401.230469 211.761719 C 403.117188 210.261719 403.785156 210.007812 410.417969 208.261719 C 414.40625 207.210938 416.179688 206.921875 417.421875 207.121094 C 418.894531 207.355469 419.082031 207.292969 419.082031 206.585938 C 419.082031 206.144531 419.410156 205.488281 419.808594 205.125 C 420.464844 204.53125 423.71875 204.441406 452.136719 204.253906 C 469.515625 204.140625 486.195312 204 489.199219 203.9375 L 494.660156 203.832031 L 495.011719 205.046875 C 495.207031 205.71875 495.695312 206.90625 496.097656 207.6875 L 496.828125 209.109375 L 683.179688 209.109375 L 689.492188 206.34375 C 694.949219 203.949219 696.070312 203.59375 697.800781 203.703125 L 699.800781 203.832031 L 700.5625 206.316406 L 701.328125 208.804688 L 703.808594 209.027344 C 705.636719 209.195312 706.453125 209.101562 706.925781 208.671875 C 707.917969 207.773438 711.574219 207.910156 712.546875 208.882812 C 716.511719 212.855469 716.082031 227.066406 711.804688 233.46875 C 710.789062 234.988281 710.578125 235.101562 708.53125 235.21875 C 706.878906 235.3125 706.257812 235.191406 705.988281 234.710938 C 705.671875 234.140625 695.355469 234.078125 601.261719 234.078125 C 508.859375 234.078125 496.859375 234.148438 496.652344 234.6875 C 496.523438 235.023438 496.074219 235.296875 495.652344 235.296875 C 495 235.296875 494.886719 235.605469 494.886719 237.328125 L 494.886719 239.355469 L 504.941406 239.355469 C 513.15625 239.355469 515.140625 239.246094 515.785156 238.761719 C 516.898438 237.917969 522.5625 237.90625 523.261719 238.746094 C 523.941406 239.570312 527.445312 239.570312 528.125 238.746094 C 528.839844 237.882812 534.707031 237.882812 535.421875 238.746094 C 536.074219 239.535156 539.015625 239.527344 540.058594 238.734375 C 541.042969 237.992188 546.378906 237.910156 547.097656 238.625 C 547.738281 239.269531 547.738281 244.316406 547.097656 244.960938 C 546.503906 245.554688 540.847656 245.625 540.488281 245.042969 C 540.164062 244.511719 535.546875 244.511719 535.21875 245.042969 C 534.890625 245.570312 529.058594 245.570312 528.734375 245.042969 C 528.40625 244.511719 523.789062 244.511719 523.464844 245.042969 C 523.136719 245.570312 516.085938 245.570312 515.761719 245.042969 C 515.605469 244.789062 511.636719 244.636719 505.199219 244.636719 L 494.886719 244.636719 L 494.886719 257.125 L 496 257.601562 C 496.613281 257.863281 497.480469 258.664062 497.929688 259.375 C 498.574219 260.398438 499.066406 260.699219 500.261719 260.800781 C 501.765625 260.925781 501.777344 260.9375 501.777344 262.726562 C 501.777344 264.382812 501.691406 264.53125 500.753906 264.53125 C 500.058594 264.53125 499.617188 264.828125 499.375 265.460938 C 498.925781 266.640625 498.210938 267.234375 496.804688 267.585938 C 496.191406 267.742188 495.402344 268.351562 495.054688 268.945312 C 493.761719 271.136719 487.214844 274.3125 483.941406 274.335938 C 482.085938 274.351562 481.832031 274.484375 479.992188 276.445312 C 477.847656 278.734375 474.121094 283.574219 471.410156 287.601562 C 468.121094 292.484375 467.257812 295.289062 466.539062 303.371094 C 465.699219 312.832031 462.453125 317.722656 454.253906 321.882812 C 447.570312 325.277344 443.496094 326.003906 432.578125 325.746094 C 423.859375 325.542969 420.867188 324.917969 415.140625 322.117188 C 408.558594 318.894531 404.402344 313.792969 402.445312 306.535156 C 400.703125 300.070312 397.878906 295.496094 394.5625 293.785156 C 392.339844 292.636719 388.546875 292.679688 384.730469 293.898438 C 383.117188 294.414062 381.671875 294.960938 381.523438 295.113281 C 381.371094 295.265625 380.746094 295.386719 380.136719 295.386719 C 378.996094 295.386719 376.925781 297.335938 376.925781 298.410156 C 376.925781 299.371094 375.257812 301.070312 374.320312 301.070312 C 372.984375 301.070312 369.425781 305.007812 367.996094 308.070312 C 366.3125 311.675781 365.8125 315.828125 366.378906 321.503906 C 366.929688 327.019531 369.007812 338.167969 371.492188 348.914062 C 374.585938 362.300781 374.691406 365.773438 372.089844 368.378906 C 368.492188 371.980469 355.367188 373.804688 333.820312 373.691406 C 327.988281 373.664062 321.703125 373.492188 319.855469 373.3125 Z M 445.640625 320.964844 C 449.832031 319.890625 455.117188 317.335938 457.285156 315.335938 C 459.367188 313.414062 461.425781 309.304688 462.078125 305.777344 C 462.644531 302.710938 462.019531 298.6875 460.351562 294.621094 C 457.640625 288.003906 456.132812 286.699219 450.699219 286.273438 C 448.492188 286.101562 446.8125 286.140625 446.523438 286.375 C 446.257812 286.589844 444.761719 286.976562 443.199219 287.234375 C 436.632812 288.328125 431.410156 290.261719 429.113281 292.449219 C 427.414062 294.070312 426.3125 297.472656 426.257812 301.277344 C 426.21875 304.050781 426.371094 304.828125 427.285156 306.597656 C 427.875 307.738281 428.824219 309.226562 429.394531 309.90625 C 430.730469 311.492188 430.699219 311.679688 429.191406 311.15625 C 426.703125 310.285156 423.160156 304.359375 423.144531 301.039062 C 423.132812 299.054688 425.535156 289.695312 426.566406 287.699219 C 426.910156 287.039062 427.1875 286.386719 427.1875 286.25 C 427.1875 285.703125 422.78125 284.082031 420.597656 283.828125 L 418.261719 283.554688 L 418.011719 284.808594 C 417.800781 285.855469 417.300781 286.304688 414.953125 287.539062 C 409.675781 290.316406 406.839844 294.660156 406.109375 301.082031 C 405.914062 302.773438 405.707031 304.332031 405.648438 304.542969 C 405.363281 305.523438 406.261719 308.757812 407.417969 310.925781 C 410.496094 316.710938 417.316406 320.621094 426.378906 321.796875 C 430.730469 322.359375 442.113281 321.871094 445.640625 320.964844 Z M 445.640625 320.964844 " fill-opacity="1" fill-rule="nonzero"/></g></svg>