<svg xmlns="http://www.w3.org/2000/svg" xmlns:xlink="http://www.w3.org/1999/xlink" zoomAndPan="magnify" preserveAspectRatio="xMidYMid meet" version="1.0" viewBox="390 57.71 247 100.52"><defs><clipPath id="cf819967a5"><path d="M 390 57.710938 L 637 57.710938 L 637 158.164062 L 390 158.164062 Z M 390 57.710938 " clip-rule="nonzero"/></clipPath><clipPath id="bcacf2793a"><path d="M 418.246094 78.738281 L 608.113281 78.738281 L 608.113281 140.359375 L 418.246094 140.359375 Z M 418.246094 78.738281 " clip-rule="nonzero"/></clipPath></defs><g clip-path="url(#cf819967a5)"><path fill="#000000" d="M 633.832031 125.074219 C 632.902344 128.554688 631.355469 131.796875 629.449219 134.867188 C 625.015625 142 619.257812 147.875 612.40625 152.75 C 608.152344 155.777344 603.347656 157.078125 598.296875 157.730469 C 595.980469 158.035156 593.621094 158.226562 591.28125 158.226562 C 539.996094 158.214844 488.710938 158.183594 437.425781 158.132812 C 433.628906 158.132812 429.816406 157.996094 426.015625 157.855469 C 425.0625 157.824219 424.089844 157.644531 423.167969 157.363281 C 416.5625 155.367188 410.382812 152.507812 405.027344 148.074219 C 397.585938 141.914062 393.117188 133.949219 391.371094 124.578125 C 386.839844 100.277344 394.707031 80.472656 413.714844 64.898438 C 416.988281 62.21875 420.691406 60.148438 424.734375 58.820312 C 426.152344 58.355469 427.6875 58.019531 429.179688 58.007812 C 446.6875 57.921875 464.195312 57.902344 481.714844 57.882812 C 492.511719 57.871094 503.308594 57.882812 514.105469 57.882812 C 514.105469 57.859375 514.105469 57.839844 514.105469 57.808594 C 540.683594 57.808594 567.261719 57.808594 593.84375 57.816406 C 595.992188 57.816406 598.171875 57.742188 600.265625 58.09375 C 602.414062 58.449219 604.597656 59.0625 606.585938 59.960938 C 621.054688 66.542969 630.0625 77.769531 634.160156 92.953125 C 637.019531 103.664062 636.679688 114.40625 633.832031 125.074219 Z M 633.832031 125.074219 " fill-opacity="1" fill-rule="nonzero"/></g><path fill="#c88240" d="M 617.945312 137.449219 C 619.117188 136.027344 620.175781 134.558594 621.128906 133.070312 C 618.039062 142.664062 609.125 150.164062 599.144531 152.160156 C 591.980469 153.53125 585.097656 153.53125 577.933594 153.257812 C 528.339844 151.0625 479.300781 154.902344 429.710938 152.984375 C 421.941406 152.550781 415.082031 148.457031 409.777344 142.640625 C 412.246094 144.878906 415.082031 146.832031 418.308594 148.507812 C 422.226562 150.535156 426.324219 151.621094 430.832031 151.609375 C 475.132812 151.546875 519.441406 151.589844 563.738281 151.609375 C 572.535156 151.609375 581.320312 151.621094 590.117188 151.714844 C 593.332031 151.746094 596.476562 151.429688 599.515625 150.386719 C 606.882812 147.84375 613.054688 143.390625 617.945312 137.449219 Z M 428.886719 62.617188 C 445.96875 59.328125 461.941406 61.523438 478.476562 61.523438 C 489.769531 61.523438 501.0625 62.34375 512.359375 62.070312 C 539.359375 61.246094 566.636719 60.972656 593.628906 61.246094 C 600.945312 61.40625 607.730469 63.484375 614.1875 66.460938 C 610.40625 63.675781 606.214844 61.574219 601.558594 60.425781 C 599.058594 59.800781 596.339844 59.949219 593.714844 59.949219 C 567.421875 59.917969 541.105469 59.929688 514.804688 59.929688 C 514.804688 59.875 514.804688 59.8125 514.804688 59.757812 C 486.625 59.757812 458.449219 59.757812 430.273438 59.769531 C 429.53125 59.769531 428.757812 59.90625 428.039062 60.128906 C 423.011719 61.636719 418.382812 63.96875 414.382812 67.355469 C 407.628906 73.074219 402.402344 79.332031 398.738281 86.160156 C 405.800781 75.1875 415.261719 65.300781 428.886719 62.617188 Z M 484.148438 86.792969 C 484.148438 86.792969 484.148438 86.804688 484.148438 86.792969 C 488.914062 86.835938 493.507812 87.054688 498.28125 87.289062 C 498.28125 86.476562 498.28125 85.652344 498.28125 84.789062 C 493.65625 84.902344 489.050781 85.019531 484.351562 85.136719 C 484.277344 85.726562 484.171875 86.265625 484.148438 86.792969 Z M 525.460938 85.148438 C 525.441406 85.683594 525.410156 86.023438 525.410156 86.359375 C 525.410156 86.707031 525.410156 87.054688 525.410156 87.40625 C 529.261719 87.59375 533.105469 87.617188 536.957031 87.617188 C 536.949219 86.792969 536.949219 85.96875 536.949219 85.148438 C 533.117188 85.148438 529.398438 85.148438 525.460938 85.148438 Z M 502.726562 120.84375 C 506.304688 123.039062 510.71875 122.761719 514.570312 121.664062 C 518.242188 120.832031 520.390625 117.984375 521.398438 114.585938 C 521.386719 114.605469 521.386719 114.617188 521.375 114.636719 C 519.652344 118.058594 517.003906 120.324219 513.121094 120.832031 C 509.574219 121.285156 506.230469 120.589844 503.222656 118.59375 C 501.128906 117.203125 499.675781 115.3125 499.167969 112.824219 C 499.105469 112.484375 499.03125 112.148438 498.957031 111.808594 C 498.800781 115.355469 499.539062 119.039062 502.726562 120.84375 Z M 552.742188 86.265625 C 552.707031 86.867188 552.675781 87.476562 552.65625 88.078125 C 568.574219 87.40625 584.695312 87.574219 600.625 87.160156 C 600.625 87.121094 600.636719 87.089844 600.636719 87.046875 C 600.679688 86.601562 600.585938 86.148438 600.554688 85.683594 C 584.558594 84.882812 568.746094 85.640625 552.742188 86.265625 Z M 455.707031 117.707031 C 452.660156 120.949219 445.683594 122.636719 441.46875 121.253906 C 436.992188 119.777344 433.859375 115.34375 433.660156 110.289062 C 433.191406 113.320312 433.699219 116.433594 435.777344 118.921875 C 442.390625 126.066406 456.164062 124.144531 459.191406 114.808594 C 459.675781 113.339844 459.675781 111.695312 459.210938 110.132812 C 458.96875 112.917969 457.824219 115.449219 455.707031 117.707031 Z M 441.839844 84.734375 C 431.371094 87.488281 423.488281 96.171875 421.6875 106.609375 C 424.472656 98.378906 430.144531 91.507812 438.527344 88.164062 C 448.605469 84.398438 460.597656 87.964844 467.445312 96.078125 C 467.445312 96.066406 467.4375 96.066406 467.4375 96.058594 C 462.058594 85.242188 451.335938 82.234375 441.839844 84.734375 Z M 441.839844 84.734375 " fill-opacity="1" fill-rule="nonzero"/><path fill="#c7743e" d="M 633.472656 99.582031 C 631.832031 88.132812 627.035156 78.234375 618.640625 70.207031 C 617.222656 68.855469 615.742188 67.597656 614.195312 66.460938 C 607.738281 63.484375 600.953125 61.40625 593.640625 61.246094 C 566.636719 60.972656 539.359375 61.246094 512.367188 62.070312 C 501.074219 62.34375 489.78125 61.523438 478.488281 61.523438 C 461.953125 61.523438 445.980469 59.328125 428.894531 62.617188 C 415.261719 65.300781 405.800781 75.1875 398.738281 86.160156 C 392.640625 97.542969 390.925781 110.480469 393.871094 125.019531 C 395.773438 134.433594 400.664062 142.125 408.488281 147.863281 C 412.765625 151.007812 417.546875 153.140625 422.503906 154.945312 C 425.253906 155.949219 428.046875 156.539062 431.023438 156.328125 C 433.300781 156.167969 435.585938 156.242188 437.871094 156.242188 C 488.066406 156.210938 538.261719 156.167969 588.453125 156.160156 C 592.203125 156.160156 595.90625 155.957031 599.609375 155.355469 C 603.972656 154.648438 608.015625 153.265625 611.644531 150.652344 C 618.007812 146.070312 623.375 140.5625 627.578125 133.957031 C 629.660156 130.675781 631.28125 127.171875 632.210938 123.386719 C 634.140625 115.546875 634.625 107.609375 633.472656 99.582031 Z M 621.128906 133.070312 C 618.039062 142.664062 609.125 150.164062 599.144531 152.160156 C 591.980469 153.53125 585.097656 153.53125 577.933594 153.257812 C 528.339844 151.0625 479.300781 154.902344 429.710938 152.984375 C 421.941406 152.550781 415.082031 148.457031 409.777344 142.640625 C 403.722656 137.15625 399.933594 129.992188 398.347656 121.316406 C 395.191406 104.171875 399.957031 89.261719 411.609375 76.429688 C 414.59375 73.148438 417.886719 70.207031 421.613281 67.769531 C 425.105469 65.476562 428.851562 64.308594 433.117188 64.316406 C 460.460938 64.402344 487.800781 64.359375 524.691406 64.359375 C 539.65625 64.433594 564.160156 64.558594 588.664062 64.675781 C 590.390625 64.6875 592.136719 64.84375 593.851562 64.71875 C 600.765625 64.222656 606.34375 67.082031 611.328125 71.460938 C 620.644531 79.628906 626.539062 89.757812 627.765625 102.09375 C 628.878906 113.234375 627.066406 123.796875 621.128906 133.070312 Z M 484.65625 115.082031 C 483.777344 110.089844 483.628906 105.066406 483.640625 100.035156 C 483.652344 95.625 483.949219 91.214844 484.140625 86.804688 C 488.902344 86.835938 493.496094 87.066406 498.269531 87.300781 C 498.269531 88.785156 498.269531 90.191406 498.269531 91.605469 C 498.28125 97.046875 498.238281 102.492188 498.355469 107.9375 C 498.386719 109.226562 498.660156 110.523438 498.9375 111.808594 C 498.789062 115.355469 499.539062 119.039062 502.714844 120.84375 C 506.292969 123.039062 510.707031 122.761719 514.558594 121.664062 C 518.234375 120.832031 520.382812 117.984375 521.386719 114.585938 C 522.945312 111.472656 523.589844 108.105469 524.109375 104.710938 C 524.976562 98.96875 525.367188 93.199219 525.386719 87.394531 C 529.242188 87.582031 533.082031 87.605469 536.9375 87.605469 C 536.96875 91.636719 537.042969 95.699219 536.882812 99.761719 C 536.652344 105.691406 536.003906 111.566406 534.3125 117.316406 C 532.585938 123.144531 529 127.238281 523.398438 129.527344 C 515.523438 132.746094 507.414062 133.242188 499.210938 131.046875 C 490.996094 128.851562 486.140625 123.5 484.65625 115.082031 Z M 554.328125 99.886719 C 553.660156 99.855469 552.996094 99.707031 552.085938 99.582031 C 552.273438 95.6875 552.453125 91.890625 552.644531 88.078125 C 568.566406 87.40625 584.6875 87.574219 600.617188 87.160156 C 600.339844 90.074219 600.054688 92.984375 599.714844 95.898438 C 599.496094 97.839844 598.921875 98.367188 596.964844 98.621094 C 593.808594 99.03125 590.65625 99.402344 587.5 99.8125 C 585.183594 100.121094 584.25 101.027344 584.0625 103.433594 C 583.839844 106.25 583.765625 109.078125 583.628906 111.90625 C 583.308594 118.445312 582.992188 124.988281 582.675781 131.542969 C 582.664062 131.65625 582.570312 131.773438 582.429688 132.058594 C 578.738281 132.226562 574.957031 132.585938 571.167969 132.175781 C 569.65625 132.007812 569.550781 131.761719 569.589844 130.171875 C 569.804688 122.234375 569.992188 114.3125 570.183594 106.375 C 570.195312 105.964844 570.152344 105.554688 570.164062 105.132812 C 570.195312 102.28125 568.523438 100.109375 565.113281 100.214844 C 561.527344 100.320312 557.925781 100.023438 554.328125 99.886719 Z M 432.9375 129.683594 C 436.78125 131.511719 440.886719 132.460938 445.164062 132.523438 C 449.726562 132.597656 454.046875 131.339844 458.246094 129.714844 C 464.515625 127.289062 468.378906 122.710938 469.839844 116.179688 C 470.304688 114.109375 470.472656 111.96875 470.78125 109.859375 C 470.632812 105.003906 469.605469 100.414062 467.457031 96.078125 C 460.609375 87.964844 448.617188 84.398438 438.539062 88.164062 C 430.15625 91.507812 424.480469 98.378906 421.699219 106.609375 C 421.484375 107.84375 421.347656 109.097656 421.316406 110.386719 C 421.050781 118.984375 424.566406 125.695312 432.9375 129.683594 Z M 433.648438 109.730469 C 433.667969 103 439.132812 96.921875 445.832031 96.195312 C 451.800781 95.539062 457.71875 99.941406 458.9375 105.871094 C 459.242188 107.347656 459.339844 108.769531 459.222656 110.132812 C 459.699219 111.695312 459.699219 113.351562 459.199219 114.808594 C 456.171875 124.144531 442.390625 126.066406 435.785156 118.921875 C 433.699219 116.433594 433.191406 113.320312 433.667969 110.289062 C 433.648438 110.101562 433.636719 109.910156 433.648438 109.730469 Z M 433.648438 109.730469 " fill-opacity="1" fill-rule="nonzero"/><path fill="#b58250" d="M 596.667969 100.910156 C 597.90625 100.761719 598.902344 100.4375 599.664062 99.898438 C 599.429688 101.269531 598.828125 102.472656 597.78125 103 C 594.054688 104.234375 590.167969 104.390625 586.359375 104.390625 C 586.410156 103.539062 586.476562 102.664062 586.527344 101.753906 C 587.46875 101.660156 588.347656 101.566406 589.226562 101.5 C 591.703125 101.300781 594.191406 101.207031 596.667969 100.910156 Z M 599.21875 67.460938 C 596.53125 67.25 593.832031 67.136719 591.132812 67.125 C 565.378906 67.101562 539.636719 67.113281 513.882812 67.113281 C 513.882812 67.039062 513.882812 66.964844 513.882812 66.890625 C 485.851562 66.890625 457.8125 66.890625 429.785156 66.902344 C 429.320312 66.902344 428.800781 66.976562 428.398438 67.1875 C 426.429688 68.179688 424.300781 68.980469 422.554688 70.28125 C 415.496094 75.542969 409.917969 81.464844 406.074219 88.144531 C 414.921875 77.042969 426.925781 68.160156 442.117188 68.390625 C 494.183594 70.035156 546.261719 69.214844 598.328125 70.035156 C 603.84375 70.152344 608.449219 72.410156 612.566406 75.671875 C 609.644531 72.75 606.269531 70.28125 602.363281 68.371094 C 601.390625 67.90625 600.289062 67.546875 599.21875 67.460938 Z M 582.84375 134.054688 C 578.726562 134.550781 574.578125 134.898438 570.449219 134.136719 C 568.882812 133.84375 567.800781 132.964844 567.621094 131.277344 C 567.613281 131.226562 567.613281 131.171875 567.601562 131.121094 C 567.09375 133.347656 566.808594 135.792969 569.402344 136.226562 C 574.367188 137.324219 579.871094 137.871094 583.996094 135.128906 C 585.5625 134.011719 585.128906 131.617188 584.90625 129.429688 C 584.867188 130.234375 584.8125 131.023438 584.769531 131.828125 C 584.695312 133.25 584.324219 133.875 582.84375 134.054688 Z M 566.066406 102.367188 C 561.992188 102.207031 557.925781 102.050781 553.851562 101.851562 C 553.175781 101.816406 552.484375 101.628906 551.828125 101.417969 C 551.363281 101.269531 551.027344 101.101562 550.769531 100.898438 C 550.550781 102.3125 551.183594 103.582031 552.855469 103.824219 C 558.023438 104.035156 563.019531 104.75 568.109375 104.921875 C 568.058594 104.109375 567.855469 103.273438 567.738281 102.367188 C 567 102.367188 566.53125 102.386719 566.066406 102.367188 Z M 523.484375 131.867188 C 515.207031 134.980469 506.757812 135.46875 498.25 132.976562 C 489.441406 130.402344 484.234375 124.566406 482.625 115.515625 C 482.570312 115.21875 482.53125 114.914062 482.476562 114.617188 C 482.910156 120.875 484.5 127.132812 489.769531 131.300781 C 501.339844 140.363281 516.773438 138.441406 528.617188 131.300781 C 533.125 128.566406 535.191406 124.144531 536.015625 119.355469 C 533.824219 125.367188 529.675781 129.535156 523.484375 131.867188 Z M 454.046875 133.25 C 452.617188 133.453125 451.207031 133.832031 449.78125 134.054688 C 439.945312 135.5625 431.246094 133.335938 424.207031 126.042969 C 421.855469 123.605469 420.460938 120.671875 419.6875 117.496094 C 419.65625 129.273438 431.636719 136.269531 442.382812 137.050781 C 451.75 138.148438 463.316406 137.871094 468.558594 128.808594 C 470.390625 125.652344 471.308594 122.097656 471.574219 118.4375 C 469.183594 126.433594 462.429688 132.078125 454.046875 133.25 Z M 451.207031 101.890625 C 453.125 102.492188 454.882812 103.453125 456.300781 104.730469 C 454.890625 101.226562 451.621094 98.726562 447.8125 98.355469 C 441.765625 97.777344 435.945312 103.390625 435.945312 109.785156 C 435.945312 110.492188 436.007812 111.167969 436.113281 111.820312 C 438.242188 105.382812 443.851562 99.941406 451.207031 101.890625 Z M 451.207031 101.890625 " fill-opacity="1" fill-rule="nonzero"/><path fill="#cb915a" d="M 442.117188 68.390625 C 426.9375 68.167969 414.921875 77.042969 406.074219 88.144531 C 400.769531 97.363281 398.792969 108.023438 400.8125 120.335938 C 403.078125 134.148438 411.113281 143.519531 424.257812 148.488281 C 426.132812 149.195312 428.027344 149.628906 430.101562 149.617188 C 448.234375 149.554688 466.378906 149.574219 484.507812 149.5625 C 520.160156 149.554688 555.808594 149.542969 591.449219 149.511719 C 594.710938 149.511719 597.949219 149.195312 600.988281 147.832031 C 604.871094 146.09375 608.28125 143.625 611.539062 140.941406 C 615.171875 137.976562 618.242188 134.496094 620.261719 130.265625 C 627.386719 115.449219 628.234375 100.574219 620.09375 85.832031 C 617.996094 82.042969 615.507812 78.625 612.566406 75.660156 C 608.449219 72.398438 603.84375 70.140625 598.328125 70.027344 C 546.25 69.214844 494.183594 70.035156 442.117188 68.390625 Z M 471.839844 117.496094 C 471.753906 117.8125 471.667969 118.128906 471.574219 118.449219 C 471.308594 122.097656 470.390625 125.664062 468.558594 128.820312 C 463.316406 137.882812 451.75 138.15625 442.378906 137.058594 C 431.636719 136.28125 419.65625 129.285156 419.6875 117.507812 C 419.453125 116.527344 419.273438 115.523438 419.136719 114.5 C 417.253906 99.371094 428.460938 84.535156 443.578125 82.042969 C 454.671875 80.21875 465.097656 85.167969 470.050781 96.289062 C 471.921875 100.507812 472.824219 104.929688 473.089844 109.574219 C 472.6875 112.210938 472.496094 114.914062 471.839844 117.496094 Z M 536.621094 117.476562 C 536.4375 118.121094 536.238281 118.730469 536.015625 119.332031 C 535.191406 124.125 533.136719 128.546875 528.617188 131.277344 C 516.773438 138.421875 501.339844 140.339844 489.769531 131.277344 C 484.5 127.121094 482.898438 120.863281 482.476562 114.597656 C 481.789062 110.3125 481.621094 105.996094 481.726562 101.679688 C 481.851562 96.097656 482.234375 90.515625 482.539062 84.945312 C 482.613281 83.5625 482.964844 83.195312 484.285156 83.164062 C 488.773438 83.027344 493.273438 82.929688 497.761719 82.835938 C 498.429688 82.824219 499.105469 82.929688 499.941406 82.992188 C 500.003906 84.058594 500.121094 85.007812 500.121094 85.949219 C 500.113281 91.46875 499.972656 96.984375 500.070312 102.503906 C 500.121094 105.320312 500.324219 108.171875 500.851562 110.925781 C 501.941406 116.546875 507.042969 119.734375 512.78125 118.742188 C 516.019531 118.183594 518.277344 116.335938 519.40625 113.414062 C 520.425781 110.796875 521.132812 108.03125 521.652344 105.277344 C 522.742188 99.507812 522.945312 93.640625 523.082031 87.773438 C 523.113281 86.347656 523.386719 84.925781 523.601562 83.089844 C 527.800781 83.089844 531.675781 83.003906 535.539062 83.121094 C 538.132812 83.195312 538.917969 83.847656 539.011719 86.253906 C 539.414062 96.753906 539.5 107.21875 536.621094 117.476562 Z M 600.753906 83.605469 C 601.972656 83.710938 602.457031 84.460938 602.394531 85.570312 C 602.171875 89.144531 602.046875 92.734375 601.589844 96.277344 C 601.367188 97.976562 600.734375 99.136719 599.664062 99.898438 C 599.429688 101.269531 598.828125 102.472656 597.78125 103 C 594.054688 104.234375 590.167969 104.390625 586.359375 104.390625 C 586.292969 105.4375 586.230469 106.460938 586.167969 107.484375 C 585.746094 114.808594 585.332031 122.121094 584.917969 129.441406 C 585.140625 131.625 585.574219 134.019531 584.007812 135.140625 C 579.878906 137.882812 574.367188 137.335938 569.410156 136.238281 C 566.828125 135.804688 567.105469 133.355469 567.613281 131.128906 C 567.515625 130.234375 567.410156 129.316406 567.441406 128.417969 C 567.664062 120.769531 567.941406 113.117188 568.140625 105.480469 C 568.140625 105.300781 568.140625 105.121094 568.132812 104.941406 C 563.039062 104.773438 558.042969 104.054688 552.878906 103.84375 C 551.207031 103.601562 550.570312 102.335938 550.792969 100.921875 C 550.347656 100.550781 550.210938 100.035156 550.253906 99.148438 C 550.464844 94.949219 550.707031 90.75 551.015625 86.558594 C 551.140625 84.808594 551.660156 84.34375 553.300781 84.261719 C 568.425781 83.523438 583.5625 82.960938 598.710938 83.394531 C 599.386719 83.394531 600.066406 83.542969 600.753906 83.605469 Z M 436.125 111.832031 C 438.242188 105.382812 443.851562 99.941406 451.207031 101.902344 C 453.125 102.503906 454.882812 103.464844 456.300781 104.742188 C 456.480469 105.183594 456.628906 105.648438 456.746094 106.132812 C 457.8125 110.492188 456.195312 115.175781 452.59375 117.414062 C 450.988281 118.414062 449.164062 119.34375 447.324219 119.660156 C 441.597656 120.640625 437.046875 117.234375 436.125 111.832031 Z M 436.125 111.832031 " fill-opacity="1" fill-rule="nonzero"/><g clip-path="url(#bcacf2793a)"><path fill="#cb915a" d="M 418.246094 78.738281 L 608.113281 78.738281 L 608.113281 140.359375 L 418.246094 140.359375 Z M 418.246094 78.738281 " fill-opacity="1" fill-rule="nonzero"/></g></svg>